{"glyphs":{"0":{"ha":861,"x_min":79,"x_max":782,"o":"m 431 -21 q 170 104 261 -21 q 79 493 79 229 q 170 884 79 758 q 431 1010 261 1010 q 691 884 600 1010 q 782 493 782 758 q 691 104 782 229 q 431 -21 600 -21 m 431 86 q 553 124 503 86 q 632 253 604 163 q 660 493 660 343 q 632 735 660 644 q 553 865 604 826 q 431 903 503 903 q 308 865 358 903 q 229 735 257 826 q 201 493 201 644 q 229 253 201 343 q 308 124 257 163 q 431 86 358 86 m 154 190 l 651 865 l 707 796 l 210 121 l 154 190 z "},"1":{"ha":861,"x_min":129,"x_max":742,"o":"m 742 0 l 129 0 l 129 115 l 742 115 l 742 0 m 386 794 q 331 756 369 774 q 247 727 292 738 q 168 717 201 717 l 129 717 l 129 829 l 156 829 q 256 851 203 829 q 351 909 310 872 q 406 986 392 946 l 504 986 l 504 28 l 386 28 l 386 794 z "},"2":{"ha":861,"x_min":107,"x_max":739,"o":"m 107 103 q 282 264 208 192 q 428 411 356 336 q 526 530 490 478 q 577 628 561 582 q 593 725 593 675 q 547 858 593 810 q 421 906 501 906 q 325 883 365 906 q 263 819 285 861 q 242 721 242 778 q 247 646 242 692 l 124 656 q 117 729 117 690 q 155 875 117 811 q 263 974 193 939 q 422 1010 332 1010 q 581 976 513 1010 q 685 878 649 942 q 721 729 721 814 q 703 610 721 665 q 640 491 685 556 q 511 336 596 426 q 405 228 460 281 q 279 113 350 176 l 739 113 l 739 0 l 107 0 l 107 103 z "},"3":{"ha":861,"x_min":93,"x_max":753,"o":"m 419 564 q 499 583 458 564 q 567 640 539 601 q 594 738 594 679 q 546 860 594 817 q 415 903 497 903 q 276 842 325 903 q 226 672 226 782 l 111 697 q 148 861 111 790 q 255 971 185 932 q 422 1010 325 1010 q 576 978 508 1010 q 681 884 643 946 q 719 738 719 822 q 670 606 719 664 q 549 526 621 547 q 699 445 646 511 q 753 283 753 379 q 708 122 753 190 q 588 16 664 53 q 419 -21 513 -21 q 249 18 322 -21 q 136 126 176 57 q 93 281 96 194 l 214 296 q 274 143 217 201 q 419 85 331 85 q 571 133 514 85 q 628 282 628 182 q 611 358 628 318 q 549 429 594 399 q 424 460 504 460 l 364 460 l 364 564 l 419 564 z "},"4":{"ha":861,"x_min":65,"x_max":781,"o":"m 622 250 l 622 0 l 504 0 l 504 250 l 65 250 l 65 336 l 488 986 l 622 986 l 622 349 l 781 349 l 781 250 l 622 250 m 504 840 q 460 761 488 806 q 435 718 447 740 l 253 442 q 224 396 239 419 q 194 349 204 363 l 504 349 l 504 840 z "},"5":{"ha":861,"x_min":107,"x_max":747,"o":"m 706 876 l 264 876 l 225 519 q 315 621 256 583 q 449 658 374 658 q 606 616 539 658 q 710 498 674 574 q 747 324 747 422 q 707 144 747 222 q 594 22 667 65 q 426 -21 522 -21 q 277 9 344 -21 q 165 94 210 39 q 107 226 121 150 l 236 242 q 273 160 246 194 q 341 106 300 125 q 429 86 382 86 q 531 113 488 86 q 598 194 574 140 q 622 324 622 247 q 576 487 622 421 q 435 553 529 553 q 333 528 374 553 q 271 469 293 504 q 239 394 249 433 l 115 407 l 168 986 l 706 986 l 706 876 z "},"6":{"ha":861,"x_min":94,"x_max":760,"o":"m 442 -21 q 250 35 328 -21 q 133 201 172 90 q 94 475 94 311 q 136 765 94 646 q 258 947 178 885 q 454 1010 339 1010 q 651 945 575 1010 q 749 761 726 881 l 624 733 q 565 863 607 819 q 453 906 522 906 q 320 856 372 906 q 243 710 268 807 q 218 467 218 613 l 218 400 q 247 234 218 306 q 326 123 275 163 q 443 83 376 83 q 544 113 501 83 q 611 195 588 142 q 635 321 635 249 q 581 491 635 428 q 438 554 528 554 q 335 528 381 554 q 259 451 290 501 q 214 331 228 401 l 193 453 q 244 563 207 517 q 338 633 282 608 q 461 658 393 658 q 618 617 550 658 q 723 499 686 575 q 760 322 760 424 q 720 143 760 221 q 608 22 681 65 q 442 -21 536 -21 z "},"7":{"ha":861,"x_min":115,"x_max":754,"o":"m 115 986 l 754 986 l 754 888 q 518 495 610 729 q 418 0 426 261 l 281 0 l 281 0 q 385 465 294 226 q 619 876 476 704 l 115 876 l 115 986 z "},"8":{"ha":861,"x_min":85,"x_max":776,"o":"m 435 -21 q 251 13 331 -21 q 128 108 172 46 q 85 250 85 169 q 119 397 85 336 q 220 494 153 458 q 386 540 288 531 l 446 500 q 265 411 318 464 q 211 268 211 358 q 272 131 211 183 q 435 79 333 79 q 594 126 536 79 q 651 258 651 174 q 610 378 651 331 q 481 454 569 426 l 349 496 q 175 597 229 533 q 121 761 121 660 q 160 891 121 835 q 269 978 199 947 q 432 1010 340 1010 q 594 980 525 1010 q 702 894 664 950 q 740 764 740 838 q 672 589 740 654 q 476 514 603 524 l 404 550 q 530 604 485 576 q 595 668 575 632 q 615 758 615 704 q 566 874 615 832 q 428 915 517 915 q 294 874 343 915 q 246 761 246 833 q 285 652 246 694 q 410 583 324 610 l 529 547 q 719 440 661 508 q 776 258 776 371 q 734 112 776 175 q 615 14 692 49 q 435 -21 538 -21 z "},"9":{"ha":861,"x_min":96,"x_max":764,"o":"m 411 -21 q 205 49 285 -21 q 107 246 125 118 l 232 274 q 287 134 242 185 q 413 83 332 83 q 550 135 500 83 q 619 280 600 186 q 639 513 639 374 l 639 599 q 589 815 639 724 q 417 906 539 906 q 314 878 358 906 q 245 803 269 851 q 221 692 221 756 q 246 578 221 626 q 315 503 271 529 q 418 478 360 478 q 518 503 471 478 q 597 572 565 528 q 638 669 629 617 l 665 560 q 610 456 647 497 q 520 394 572 414 q 406 374 468 374 q 247 410 317 374 q 136 518 176 447 q 96 690 96 589 q 135 855 96 782 q 249 969 175 928 q 418 1010 322 1010 q 678 885 593 1010 q 764 515 764 761 q 731 235 764 354 q 619 48 697 117 q 411 -21 542 -21 z "},"\u0000":{"ha":0,"x_min":0,"x_max":0,"o":""},"\r":{"ha":861,"x_min":0,"x_max":0,"o":""}," ":{"ha":861,"x_min":0,"x_max":0,"o":""},"A":{"ha":861,"x_min":40,"x_max":821,"o":"m 569 386 q 487 659 522 535 q 432 872 451 783 l 429 872 q 374 663 410 786 q 290 386 339 539 l 168 0 l 40 0 l 357 986 l 504 986 l 821 0 l 693 0 l 569 386 m 619 396 l 619 285 l 242 285 l 242 396 l 619 396 z "},"B":{"ha":861,"x_min":125,"x_max":789,"o":"m 440 986 q 687 908 613 986 q 761 724 761 831 q 719 593 761 650 q 596 513 676 536 q 738 434 686 497 q 789 271 789 371 q 758 140 789 201 q 656 40 728 79 q 469 0 585 0 l 125 0 l 125 986 l 440 986 m 254 107 l 461 107 q 611 156 565 107 q 657 283 657 206 q 612 404 657 358 q 475 450 567 450 l 254 450 l 254 107 m 254 556 l 439 556 q 589 601 549 556 q 629 714 629 646 q 587 833 629 786 q 439 879 544 879 l 254 879 l 254 556 z "},"C":{"ha":861,"x_min":75,"x_max":785,"o":"m 426 -24 q 232 33 311 -24 q 114 198 153 90 q 75 457 75 306 l 75 529 q 169 883 75 757 q 438 1010 263 1010 q 613 972 540 1010 q 729 856 686 933 q 785 663 772 779 l 656 642 q 592 832 647 765 q 436 899 536 899 q 264 810 319 899 q 208 536 208 722 l 208 465 q 266 183 208 278 q 436 88 324 88 q 592 154 538 88 q 656 346 647 221 l 783 319 q 731 141 772 218 q 613 20 689 64 q 426 -24 536 -24 z "},"D":{"ha":861,"x_min":106,"x_max":814,"o":"m 106 986 l 394 986 q 622 924 526 986 q 765 749 717 861 q 814 494 814 638 q 762 240 814 353 q 615 64 710 128 q 392 0 519 0 l 106 0 l 106 986 m 390 108 q 546 161 481 108 q 646 302 611 214 q 681 494 681 390 q 648 689 681 601 q 551 827 615 776 q 393 878 486 878 l 235 878 l 235 108 l 390 108 z "},"E":{"ha":861,"x_min":146,"x_max":732,"o":"m 722 875 l 275 875 l 275 560 l 699 560 l 699 451 l 275 451 l 275 111 l 732 111 l 732 0 l 146 0 l 146 986 l 722 986 l 722 875 z "},"F":{"ha":861,"x_min":160,"x_max":764,"o":"m 764 875 l 289 875 l 289 560 l 726 560 l 726 449 l 289 449 l 289 0 l 160 0 l 160 986 l 764 986 l 764 875 z "},"G":{"ha":861,"x_min":75,"x_max":764,"o":"m 410 -24 q 226 36 301 -24 q 113 203 151 96 q 75 449 75 310 l 75 546 q 169 887 75 764 q 433 1010 263 1010 q 615 962 546 1010 q 713 848 683 914 q 753 711 743 782 l 626 693 q 570 836 617 774 q 429 899 524 899 q 265 814 321 899 q 210 524 210 729 l 210 469 q 263 188 210 286 q 429 89 315 89 q 559 134 511 89 q 626 240 607 179 q 646 353 646 300 l 646 411 l 399 411 l 399 515 l 764 515 l 764 0 l 675 0 l 656 144 q 564 21 624 65 q 410 -24 504 -24 z "},"H":{"ha":861,"x_min":113,"x_max":749,"o":"m 749 0 l 619 0 l 619 450 l 242 450 l 242 0 l 113 0 l 113 986 l 242 986 l 242 558 l 619 558 l 619 986 l 749 986 l 749 0 z "},"I":{"ha":861,"x_min":119,"x_max":742,"o":"m 742 104 l 742 0 l 119 0 l 119 104 l 742 104 m 742 986 l 742 882 l 119 882 l 119 986 l 742 986 m 494 0 l 365 0 l 365 986 l 494 986 l 494 0 z "},"J":{"ha":861,"x_min":75,"x_max":722,"o":"m 400 -24 q 217 26 290 -24 q 109 155 143 76 q 75 318 75 233 l 203 361 q 255 163 203 239 q 406 88 307 88 q 550 151 507 88 q 593 328 593 215 l 593 986 l 722 986 l 722 299 q 638 65 722 154 q 400 -24 554 -24 z "},"K":{"ha":861,"x_min":117,"x_max":801,"o":"m 439 653 l 801 0 l 651 0 l 351 558 l 439 653 m 618 986 l 769 986 l 468 594 l 383 510 l 196 281 l 204 446 l 618 986 m 246 986 l 246 0 l 117 0 l 117 986 l 246 986 z "},"L":{"ha":861,"x_min":160,"x_max":761,"o":"m 289 986 l 289 111 l 761 111 l 761 0 l 160 0 l 160 986 l 289 986 z "},"M":{"ha":861,"x_min":113,"x_max":749,"o":"m 490 236 l 371 236 l 285 622 q 253 792 269 682 q 240 876 246 831 l 232 876 q 234 751 233 821 q 235 613 235 681 l 235 0 l 113 0 l 113 986 l 300 986 l 411 471 q 420 424 417 446 q 426 383 424 401 l 435 383 q 441 424 438 401 q 450 471 444 446 l 561 986 l 749 986 l 749 0 l 626 0 l 626 613 q 629 876 626 751 l 621 876 q 601 746 615 825 q 576 622 588 667 l 490 236 z "},"N":{"ha":861,"x_min":113,"x_max":749,"o":"m 572 315 q 602 240 590 272 q 619 186 614 207 l 622 186 q 620 238 621 211 q 619 292 619 265 l 619 986 l 749 986 l 749 0 l 597 0 l 288 710 q 263 771 274 742 q 246 818 253 800 l 243 826 l 239 826 q 241 785 240 806 q 242 742 242 764 l 242 0 l 113 0 l 113 986 l 282 986 l 572 315 z "},"O":{"ha":861,"x_min":71,"x_max":790,"o":"m 431 -24 q 232 33 313 -24 q 111 195 151 89 q 71 449 71 301 l 71 538 q 111 791 71 685 q 232 953 151 897 q 431 1010 313 1010 q 629 953 549 1010 q 750 791 710 897 q 790 538 790 685 l 790 449 q 750 195 790 301 q 629 33 710 89 q 431 -24 549 -24 m 431 88 q 601 175 546 88 q 656 449 656 263 l 656 538 q 601 811 656 724 q 431 899 546 899 q 260 811 315 899 q 206 538 206 724 l 206 449 q 260 175 206 263 q 431 88 315 88 z "},"P":{"ha":861,"x_min":153,"x_max":803,"o":"m 454 508 q 583 536 536 508 q 649 605 631 564 q 667 693 667 646 q 623 824 667 769 q 468 878 579 878 l 282 878 l 282 508 l 454 508 m 282 0 l 153 0 l 153 986 l 475 986 q 672 943 599 986 q 774 835 744 900 q 803 694 803 769 q 770 555 803 621 q 659 446 738 489 q 451 403 581 403 l 282 403 l 282 0 z "},"Q":{"ha":861,"x_min":71,"x_max":790,"o":"m 431 -24 q 232 33 313 -24 q 111 195 151 89 q 71 449 71 301 l 71 538 q 111 791 71 685 q 232 953 151 897 q 431 1010 313 1010 q 629 953 549 1010 q 750 791 710 897 q 790 538 790 685 l 790 449 q 750 195 790 301 q 629 33 710 89 q 431 -24 549 -24 m 431 88 q 601 175 546 88 q 656 449 656 263 l 656 538 q 601 811 656 724 q 431 899 546 899 q 260 811 315 899 q 206 538 206 724 l 206 449 q 260 175 206 263 q 431 88 315 88 m 722 -64 q 786 -54 750 -64 l 786 -172 q 744 -178 767 -176 q 699 -181 722 -181 q 556 -133 617 -181 q 469 -4 494 -85 l 557 38 q 612 -29 583 -7 q 667 -58 640 -51 q 722 -64 693 -64 z "},"R":{"ha":861,"x_min":118,"x_max":799,"o":"m 118 986 l 435 986 q 681 911 594 986 q 768 699 768 836 q 738 569 768 626 q 653 474 708 511 q 521 425 597 438 l 475 413 l 225 413 l 225 515 l 429 515 q 540 536 494 515 q 609 597 586 557 q 632 696 632 638 q 580 831 632 785 q 429 878 528 878 l 247 878 l 247 0 l 118 0 l 118 986 m 424 419 l 558 433 l 799 0 l 656 0 l 424 419 z "},"S":{"ha":861,"x_min":76,"x_max":774,"o":"m 442 -24 q 251 18 328 -24 q 131 128 174 60 q 76 283 89 197 l 201 308 q 242 194 214 244 q 319 115 269 144 q 440 85 369 85 q 583 121 524 85 q 642 242 642 157 q 619 339 642 303 q 564 393 597 375 q 482 424 531 411 l 350 458 q 172 556 238 489 q 107 732 107 624 q 146 869 107 806 q 256 972 185 933 q 421 1010 328 1010 q 590 982 515 1010 q 710 892 664 954 q 767 733 757 831 l 643 697 q 574 853 635 806 q 425 901 514 901 q 283 855 326 901 q 239 743 239 808 q 281 638 239 681 q 390 576 324 596 l 517 543 q 705 450 636 511 q 774 260 774 389 q 738 122 774 186 q 628 17 703 57 q 442 -24 553 -24 z "},"T":{"ha":861,"x_min":54,"x_max":804,"o":"m 804 986 l 804 875 l 494 875 l 494 0 l 364 0 l 364 875 l 54 875 l 54 986 l 804 986 z "},"U":{"ha":861,"x_min":94,"x_max":767,"o":"m 224 986 l 224 329 q 247 201 224 256 q 318 117 271 147 q 435 88 365 88 q 588 151 539 88 q 638 329 638 215 l 638 986 l 767 986 l 767 329 q 684 72 767 168 q 435 -24 601 -24 q 247 22 324 -24 q 133 146 171 67 q 94 329 94 225 l 94 986 l 224 986 z "},"V":{"ha":861,"x_min":54,"x_max":807,"o":"m 410 190 q 428 114 419 153 l 433 114 q 440 144 438 129 q 451 190 446 168 l 669 986 l 807 986 l 510 0 l 350 0 l 54 986 l 189 986 l 410 190 z "},"W":{"ha":861,"x_min":64,"x_max":797,"o":"m 64 986 l 193 986 l 226 286 q 232 110 232 182 l 246 110 q 274 296 249 179 l 369 743 l 492 743 l 588 296 q 615 110 613 179 l 629 110 q 635 286 629 182 l 668 986 l 797 986 l 722 0 l 553 0 l 464 424 q 446 531 451 486 q 438 621 440 575 l 424 621 q 415 531 421 575 q 397 424 410 486 l 308 0 l 139 0 l 64 986 z "},"X":{"ha":861,"x_min":44,"x_max":817,"o":"m 354 521 l 79 986 l 225 986 l 389 679 q 415 624 407 644 q 426 581 424 604 l 432 581 q 442 624 435 604 q 468 676 450 643 l 629 986 l 776 986 l 506 510 l 817 0 l 663 0 l 465 358 q 438 415 444 396 q 429 451 432 433 l 424 451 q 414 413 421 432 q 385 354 407 394 l 192 0 l 44 0 l 354 521 z "},"Y":{"ha":861,"x_min":46,"x_max":815,"o":"m 496 0 l 367 0 l 367 393 l 46 986 l 189 986 l 431 500 l 672 986 l 815 986 l 496 393 l 496 0 z "},"Z":{"ha":861,"x_min":94,"x_max":767,"o":"m 611 875 l 113 875 l 113 986 l 747 986 l 747 867 l 229 111 l 767 111 l 767 0 l 94 0 l 94 119 l 611 875 z "},"Á":{"ha":861,"x_min":40,"x_max":821,"o":"m 569 386 q 487 659 522 535 q 432 872 451 783 l 429 872 q 374 663 410 786 q 290 386 339 539 l 168 0 l 40 0 l 357 986 l 504 986 l 821 0 l 693 0 l 569 386 m 619 396 l 619 285 l 242 285 l 242 396 l 619 396 m 472 1228 l 631 1228 l 486 1079 l 375 1079 l 472 1228 z "},"Ă":{"ha":861,"x_min":40,"x_max":821,"o":"m 569 386 q 487 659 522 535 q 432 872 451 783 l 429 872 q 374 663 410 786 q 290 386 339 539 l 168 0 l 40 0 l 357 986 l 504 986 l 821 0 l 693 0 l 569 386 m 619 396 l 619 285 l 242 285 l 242 396 l 619 396 m 314 1228 q 351 1174 319 1196 q 431 1153 382 1153 q 510 1174 479 1153 q 549 1228 542 1196 l 656 1228 q 581 1109 643 1150 q 431 1068 519 1068 q 279 1109 342 1068 q 206 1228 217 1150 l 314 1228 z "},"Â":{"ha":861,"x_min":40,"x_max":821,"o":"m 569 386 q 487 659 522 535 q 432 872 451 783 l 429 872 q 374 663 410 786 q 290 386 339 539 l 168 0 l 40 0 l 357 986 l 504 986 l 821 0 l 693 0 l 569 386 m 619 396 l 619 285 l 242 285 l 242 396 l 619 396 z "},"Ä":{"ha":861,"x_min":40,"x_max":821,"o":"m 569 386 q 487 659 522 535 q 432 872 451 783 l 429 872 q 374 663 410 786 q 290 386 339 539 l 168 0 l 40 0 l 357 986 l 504 986 l 821 0 l 693 0 l 569 386 m 619 396 l 619 285 l 242 285 l 242 396 l 619 396 m 349 1074 l 197 1074 l 197 1228 l 349 1228 l 349 1074 m 664 1074 l 513 1074 l 513 1228 l 664 1228 l 664 1074 z "},"Æ":{"ha":861,"x_min":28,"x_max":792,"o":"m 410 335 l 410 232 l 124 232 l 135 335 l 410 335 m 782 986 l 782 875 l 501 875 l 501 560 l 758 560 l 758 451 l 501 451 l 501 111 l 792 111 l 792 0 l 379 0 l 379 986 l 782 986 m 28 0 l 300 986 l 401 986 l 154 0 l 28 0 z "},"Ǽ":{"ha":861,"x_min":28,"x_max":792,"o":"m 410 335 l 410 232 l 124 232 l 135 335 l 410 335 m 782 986 l 782 875 l 501 875 l 501 560 l 758 560 l 758 451 l 501 451 l 501 111 l 792 111 l 792 0 l 379 0 l 379 986 l 782 986 m 28 0 l 300 986 l 401 986 l 154 0 l 28 0 m 608 1228 l 767 1228 l 622 1079 l 511 1079 l 608 1228 z "},"À":{"ha":861,"x_min":40,"x_max":821,"o":"m 569 386 q 487 659 522 535 q 432 872 451 783 l 429 872 q 374 663 410 786 q 290 386 339 539 l 168 0 l 40 0 l 357 986 l 504 986 l 821 0 l 693 0 l 569 386 m 619 396 l 619 285 l 242 285 l 242 396 l 619 396 m 231 1228 l 389 1228 l 486 1079 l 375 1079 l 231 1228 z "},"Ā":{"ha":861,"x_min":40,"x_max":821,"o":"m 569 386 q 487 659 522 535 q 432 872 451 783 l 429 872 q 374 663 410 786 q 290 386 339 539 l 168 0 l 40 0 l 357 986 l 504 986 l 821 0 l 693 0 l 569 386 m 619 396 l 619 285 l 242 285 l 242 396 l 619 396 m 208 1168 l 653 1168 l 653 1074 l 208 1074 l 208 1168 z "},"Ą":{"ha":861,"x_min":40,"x_max":865,"o":"m 569 386 q 487 659 522 535 q 432 872 451 783 l 429 872 q 374 663 410 786 q 290 386 339 539 l 168 0 l 40 0 l 357 986 l 504 986 l 821 0 l 693 0 l 569 386 m 619 396 l 619 285 l 242 285 l 242 396 l 619 396 m 865 -176 q 812 -255 853 -228 q 718 -282 771 -282 q 618 -249 658 -282 q 578 -158 578 -217 q 608 -69 578 -112 q 706 6 639 -25 l 815 0 q 729 -34 763 -8 q 681 -90 696 -60 q 667 -146 667 -121 q 681 -194 667 -175 q 722 -212 696 -212 q 764 -194 747 -212 q 790 -149 781 -176 l 865 -176 z "},"Å":{"ha":861,"x_min":40,"x_max":821,"o":"m 569 386 q 487 659 522 535 q 432 872 451 783 l 429 872 q 374 663 410 786 q 290 386 339 539 l 168 0 l 40 0 l 357 986 l 504 986 l 821 0 l 693 0 l 569 386 m 619 396 l 619 285 l 242 285 l 242 396 l 619 396 m 431 1019 q 330 1055 368 1019 q 292 1146 292 1090 q 330 1237 292 1201 q 431 1272 368 1272 q 531 1237 493 1272 q 569 1146 569 1201 q 531 1055 569 1090 q 431 1019 493 1019 m 431 1082 q 474 1100 457 1082 q 492 1146 492 1118 q 474 1192 492 1174 q 431 1210 457 1210 q 387 1192 404 1210 q 369 1146 369 1174 q 387 1100 369 1118 q 431 1082 404 1082 z "},"Ã":{"ha":861,"x_min":40,"x_max":821,"o":"m 569 386 q 487 659 522 535 q 432 872 451 783 l 429 872 q 374 663 410 786 q 290 386 339 539 l 168 0 l 40 0 l 357 986 l 504 986 l 821 0 l 693 0 l 569 386 m 619 396 l 619 285 l 242 285 l 242 396 l 619 396 m 331 1235 q 392 1224 365 1235 q 450 1194 418 1214 q 497 1169 479 1176 q 539 1161 515 1161 q 584 1174 564 1161 q 611 1224 604 1188 l 693 1210 q 639 1106 682 1142 q 528 1069 596 1069 q 465 1080 490 1069 q 408 1110 440 1090 q 365 1135 383 1126 q 321 1143 346 1143 q 278 1128 297 1143 q 250 1076 258 1114 l 167 1092 q 226 1199 181 1164 q 331 1235 272 1235 z "},"Ć":{"ha":861,"x_min":75,"x_max":785,"o":"m 426 -24 q 232 33 311 -24 q 114 198 153 90 q 75 457 75 306 l 75 529 q 169 883 75 757 q 438 1010 263 1010 q 613 972 540 1010 q 729 856 686 933 q 785 663 772 779 l 656 642 q 592 832 647 765 q 436 899 536 899 q 264 810 319 899 q 208 536 208 722 l 208 465 q 266 183 208 278 q 436 88 324 88 q 592 154 538 88 q 656 346 647 221 l 783 319 q 731 141 772 218 q 613 20 689 64 q 426 -24 536 -24 m 472 1228 l 631 1228 l 486 1079 l 375 1079 l 472 1228 z "},"Č":{"ha":861,"x_min":75,"x_max":785,"o":"m 426 -24 q 232 33 311 -24 q 114 198 153 90 q 75 457 75 306 l 75 529 q 169 883 75 757 q 438 1010 263 1010 q 613 972 540 1010 q 729 856 686 933 q 785 663 772 779 l 656 642 q 592 832 647 765 q 436 899 536 899 q 264 810 319 899 q 208 536 208 722 l 208 465 q 266 183 208 278 q 436 88 324 88 q 592 154 538 88 q 656 346 647 221 l 783 319 q 731 141 772 218 q 613 20 689 64 q 426 -24 536 -24 m 343 1228 l 433 1132 l 521 1228 l 639 1228 l 504 1078 l 358 1078 l 222 1228 l 343 1228 z "},"Ç":{"ha":861,"x_min":75,"x_max":785,"o":"m 426 -24 q 232 33 311 -24 q 114 198 153 90 q 75 457 75 306 l 75 529 q 169 883 75 757 q 438 1010 263 1010 q 613 972 540 1010 q 729 856 686 933 q 785 663 772 779 l 656 642 q 592 832 647 765 q 436 899 536 899 q 264 810 319 899 q 208 536 208 722 l 208 465 q 266 183 208 278 q 436 88 324 88 q 592 154 538 88 q 656 346 647 221 l 783 319 q 731 141 772 218 q 613 20 689 64 q 426 -24 536 -24 m 472 10 l 424 -68 q 449 -56 432 -60 q 483 -51 467 -51 q 558 -78 529 -51 q 586 -150 586 -106 q 542 -241 586 -206 q 436 -276 497 -276 q 359 -260 396 -276 q 300 -201 322 -244 l 379 -175 q 403 -204 389 -194 q 438 -214 418 -214 q 480 -199 463 -214 q 497 -157 497 -183 q 481 -115 497 -129 q 442 -100 464 -100 q 414 -105 425 -100 q 393 -121 403 -110 l 339 -104 l 399 10 l 472 10 z "},"Ĉ":{"ha":861,"x_min":75,"x_max":785,"o":"m 426 -24 q 232 33 311 -24 q 114 198 153 90 q 75 457 75 306 l 75 529 q 169 883 75 757 q 438 1010 263 1010 q 613 972 540 1010 q 729 856 686 933 q 785 663 772 779 l 656 642 q 592 832 647 765 q 436 899 536 899 q 264 810 319 899 q 208 536 208 722 l 208 465 q 266 183 208 278 q 436 88 324 88 q 592 154 538 88 q 656 346 647 221 l 783 319 q 731 141 772 218 q 613 20 689 64 q 426 -24 536 -24 z "},"Ċ":{"ha":861,"x_min":75,"x_max":785,"o":"m 426 -24 q 232 33 311 -24 q 114 198 153 90 q 75 457 75 306 l 75 529 q 169 883 75 757 q 438 1010 263 1010 q 613 972 540 1010 q 729 856 686 933 q 785 663 772 779 l 656 642 q 592 832 647 765 q 436 899 536 899 q 264 810 319 899 q 208 536 208 722 l 208 465 q 266 183 208 278 q 436 88 324 88 q 592 154 538 88 q 656 346 647 221 l 783 319 q 731 141 772 218 q 613 20 689 64 q 426 -24 536 -24 m 347 1228 l 514 1228 l 514 1074 l 347 1074 l 347 1228 z "},"Ď":{"ha":861,"x_min":106,"x_max":814,"o":"m 106 986 l 394 986 q 622 924 526 986 q 765 749 717 861 q 814 494 814 638 q 762 240 814 353 q 615 64 710 128 q 392 0 519 0 l 106 0 l 106 986 m 390 108 q 546 161 481 108 q 646 302 611 214 q 681 494 681 390 q 648 689 681 601 q 551 827 615 776 q 393 878 486 878 l 235 878 l 235 108 l 390 108 m 343 1228 l 433 1132 l 521 1228 l 639 1228 l 504 1078 l 358 1078 l 222 1228 l 343 1228 z "},"Đ":{"ha":861,"x_min":0,"x_max":814,"o":"m 467 557 l 467 457 l 0 457 l 0 557 l 467 557 m 106 986 l 394 986 q 622 924 526 986 q 765 749 717 861 q 814 494 814 638 q 762 240 814 353 q 615 64 710 128 q 392 0 519 0 l 106 0 l 106 986 m 390 108 q 546 161 481 108 q 646 302 611 214 q 681 494 681 390 q 648 689 681 601 q 551 827 615 776 q 393 878 486 878 l 235 878 l 235 108 l 390 108 z "},"É":{"ha":861,"x_min":146,"x_max":732,"o":"m 722 875 l 275 875 l 275 560 l 699 560 l 699 451 l 275 451 l 275 111 l 732 111 l 732 0 l 146 0 l 146 986 l 722 986 l 722 875 m 472 1228 l 631 1228 l 486 1079 l 375 1079 l 472 1228 z "},"Ĕ":{"ha":861,"x_min":146,"x_max":732,"o":"m 722 875 l 275 875 l 275 560 l 699 560 l 699 451 l 275 451 l 275 111 l 732 111 l 732 0 l 146 0 l 146 986 l 722 986 l 722 875 m 314 1228 q 351 1174 319 1196 q 431 1153 382 1153 q 510 1174 479 1153 q 549 1228 542 1196 l 656 1228 q 581 1109 643 1150 q 431 1068 519 1068 q 279 1109 342 1068 q 206 1228 217 1150 l 314 1228 z "},"Ě":{"ha":861,"x_min":146,"x_max":732,"o":"m 722 875 l 275 875 l 275 560 l 699 560 l 699 451 l 275 451 l 275 111 l 732 111 l 732 0 l 146 0 l 146 986 l 722 986 l 722 875 m 343 1228 l 433 1132 l 521 1228 l 639 1228 l 504 1078 l 358 1078 l 222 1228 l 343 1228 z "},"Ê":{"ha":861,"x_min":146,"x_max":732,"o":"m 722 875 l 275 875 l 275 560 l 699 560 l 699 451 l 275 451 l 275 111 l 732 111 l 732 0 l 146 0 l 146 986 l 722 986 l 722 875 z "},"Ë":{"ha":861,"x_min":146,"x_max":732,"o":"m 722 875 l 275 875 l 275 560 l 699 560 l 699 451 l 275 451 l 275 111 l 732 111 l 732 0 l 146 0 l 146 986 l 722 986 l 722 875 m 349 1074 l 197 1074 l 197 1228 l 349 1228 l 349 1074 m 664 1074 l 513 1074 l 513 1228 l 664 1228 l 664 1074 z "},"Ė":{"ha":861,"x_min":146,"x_max":732,"o":"m 722 875 l 275 875 l 275 560 l 699 560 l 699 451 l 275 451 l 275 111 l 732 111 l 732 0 l 146 0 l 146 986 l 722 986 l 722 875 m 347 1228 l 514 1228 l 514 1074 l 347 1074 l 347 1228 z "},"È":{"ha":861,"x_min":146,"x_max":732,"o":"m 722 875 l 275 875 l 275 560 l 699 560 l 699 451 l 275 451 l 275 111 l 732 111 l 732 0 l 146 0 l 146 986 l 722 986 l 722 875 m 231 1228 l 389 1228 l 486 1079 l 375 1079 l 231 1228 z "},"Ē":{"ha":861,"x_min":146,"x_max":732,"o":"m 722 875 l 275 875 l 275 560 l 699 560 l 699 451 l 275 451 l 275 111 l 732 111 l 732 0 l 146 0 l 146 986 l 722 986 l 722 875 m 208 1168 l 653 1168 l 653 1074 l 208 1074 l 208 1168 z "},"Ę":{"ha":861,"x_min":146,"x_max":732,"o":"m 722 875 l 275 875 l 275 560 l 699 560 l 699 451 l 275 451 l 275 111 l 732 111 l 732 0 l 146 0 l 146 986 l 722 986 l 722 875 m 713 -176 q 659 -255 700 -228 q 565 -282 618 -282 q 465 -249 506 -282 q 425 -158 425 -217 q 456 -69 425 -112 q 553 6 486 -25 l 663 0 q 576 -34 610 -8 q 528 -90 543 -60 q 514 -146 514 -121 q 528 -194 514 -175 q 569 -212 543 -212 q 611 -194 594 -212 q 638 -149 628 -176 l 713 -176 z "},"Ð":{"ha":861,"x_min":0,"x_max":814,"o":"m 467 557 l 467 457 l 0 457 l 0 557 l 467 557 m 106 986 l 394 986 q 622 924 526 986 q 765 749 717 861 q 814 494 814 638 q 762 240 814 353 q 615 64 710 128 q 392 0 519 0 l 106 0 l 106 986 m 390 108 q 546 161 481 108 q 646 302 611 214 q 681 494 681 390 q 648 689 681 601 q 551 827 615 776 q 393 878 486 878 l 235 878 l 235 108 l 390 108 z "},"Ğ":{"ha":861,"x_min":75,"x_max":764,"o":"m 410 -24 q 226 36 301 -24 q 113 203 151 96 q 75 449 75 310 l 75 546 q 169 887 75 764 q 433 1010 263 1010 q 615 962 546 1010 q 713 848 683 914 q 753 711 743 782 l 626 693 q 570 836 617 774 q 429 899 524 899 q 265 814 321 899 q 210 524 210 729 l 210 469 q 263 188 210 286 q 429 89 315 89 q 559 134 511 89 q 626 240 607 179 q 646 353 646 300 l 646 411 l 399 411 l 399 515 l 764 515 l 764 0 l 675 0 l 656 144 q 564 21 624 65 q 410 -24 504 -24 m 314 1228 q 351 1174 319 1196 q 431 1153 382 1153 q 510 1174 479 1153 q 549 1228 542 1196 l 656 1228 q 581 1109 643 1150 q 431 1068 519 1068 q 279 1109 342 1068 q 206 1228 217 1150 l 314 1228 z "},"Ĝ":{"ha":861,"x_min":75,"x_max":764,"o":"m 410 -24 q 226 36 301 -24 q 113 203 151 96 q 75 449 75 310 l 75 546 q 169 887 75 764 q 433 1010 263 1010 q 615 962 546 1010 q 713 848 683 914 q 753 711 743 782 l 626 693 q 570 836 617 774 q 429 899 524 899 q 265 814 321 899 q 210 524 210 729 l 210 469 q 263 188 210 286 q 429 89 315 89 q 559 134 511 89 q 626 240 607 179 q 646 353 646 300 l 646 411 l 399 411 l 399 515 l 764 515 l 764 0 l 675 0 l 656 144 q 564 21 624 65 q 410 -24 504 -24 z "},"Ģ":{"ha":861,"x_min":75,"x_max":764,"o":"m 410 -24 q 226 36 301 -24 q 113 203 151 96 q 75 449 75 310 l 75 546 q 169 887 75 764 q 433 1010 263 1010 q 615 962 546 1010 q 713 848 683 914 q 753 711 743 782 l 626 693 q 570 836 617 774 q 429 899 524 899 q 265 814 321 899 q 210 524 210 729 l 210 469 q 263 188 210 286 q 429 89 315 89 q 559 134 511 89 q 626 240 607 179 q 646 353 646 300 l 646 411 l 399 411 l 399 515 l 764 515 l 764 0 l 675 0 l 656 144 q 564 21 624 65 q 410 -24 504 -24 m 356 -276 q 409 -244 397 -262 q 421 -189 421 -226 l 350 -189 l 350 -64 l 483 -64 l 483 -175 q 462 -272 483 -235 q 383 -329 440 -308 l 356 -276 z "},"Ġ":{"ha":861,"x_min":75,"x_max":764,"o":"m 410 -24 q 226 36 301 -24 q 113 203 151 96 q 75 449 75 310 l 75 546 q 169 887 75 764 q 433 1010 263 1010 q 615 962 546 1010 q 713 848 683 914 q 753 711 743 782 l 626 693 q 570 836 617 774 q 429 899 524 899 q 265 814 321 899 q 210 524 210 729 l 210 469 q 263 188 210 286 q 429 89 315 89 q 559 134 511 89 q 626 240 607 179 q 646 353 646 300 l 646 411 l 399 411 l 399 515 l 764 515 l 764 0 l 675 0 l 656 144 q 564 21 624 65 q 410 -24 504 -24 m 347 1228 l 514 1228 l 514 1074 l 347 1074 l 347 1228 z "},"Ħ":{"ha":861,"x_min":29,"x_max":832,"o":"m 832 808 l 832 726 l 29 726 l 29 808 l 832 808 m 749 0 l 619 0 l 619 450 l 242 450 l 242 0 l 113 0 l 113 986 l 242 986 l 242 558 l 619 558 l 619 986 l 749 986 l 749 0 z "},"Ĥ":{"ha":861,"x_min":113,"x_max":749,"o":"m 749 0 l 619 0 l 619 450 l 242 450 l 242 0 l 113 0 l 113 986 l 242 986 l 242 558 l 619 558 l 619 986 l 749 986 l 749 0 z "},"Í":{"ha":861,"x_min":119,"x_max":742,"o":"m 742 104 l 742 0 l 119 0 l 119 104 l 742 104 m 742 986 l 742 882 l 119 882 l 119 986 l 742 986 m 494 0 l 365 0 l 365 986 l 494 986 l 494 0 m 472 1228 l 631 1228 l 486 1079 l 375 1079 l 472 1228 z "},"Ĭ":{"ha":861,"x_min":119,"x_max":742,"o":"m 742 104 l 742 0 l 119 0 l 119 104 l 742 104 m 742 986 l 742 882 l 119 882 l 119 986 l 742 986 m 494 0 l 365 0 l 365 986 l 494 986 l 494 0 m 314 1228 q 351 1174 319 1196 q 431 1153 382 1153 q 510 1174 479 1153 q 549 1228 542 1196 l 656 1228 q 581 1109 643 1150 q 431 1068 519 1068 q 279 1109 342 1068 q 206 1228 217 1150 l 314 1228 z "},"Î":{"ha":861,"x_min":119,"x_max":742,"o":"m 742 104 l 742 0 l 119 0 l 119 104 l 742 104 m 742 986 l 742 882 l 119 882 l 119 986 l 742 986 m 494 0 l 365 0 l 365 986 l 494 986 l 494 0 z "},"Ï":{"ha":861,"x_min":119,"x_max":742,"o":"m 742 104 l 742 0 l 119 0 l 119 104 l 742 104 m 742 986 l 742 882 l 119 882 l 119 986 l 742 986 m 494 0 l 365 0 l 365 986 l 494 986 l 494 0 m 349 1074 l 197 1074 l 197 1228 l 349 1228 l 349 1074 m 664 1074 l 513 1074 l 513 1228 l 664 1228 l 664 1074 z "},"İ":{"ha":861,"x_min":119,"x_max":742,"o":"m 742 104 l 742 0 l 119 0 l 119 104 l 742 104 m 742 986 l 742 882 l 119 882 l 119 986 l 742 986 m 494 0 l 365 0 l 365 986 l 494 986 l 494 0 m 347 1228 l 514 1228 l 514 1074 l 347 1074 l 347 1228 z "},"Ì":{"ha":861,"x_min":119,"x_max":742,"o":"m 742 104 l 742 0 l 119 0 l 119 104 l 742 104 m 742 986 l 742 882 l 119 882 l 119 986 l 742 986 m 494 0 l 365 0 l 365 986 l 494 986 l 494 0 m 231 1228 l 389 1228 l 486 1079 l 375 1079 l 231 1228 z "},"Ĳ":{"ha":861,"x_min":132,"x_max":742,"o":"m 351 115 q 410 103 385 106 q 475 101 435 101 q 553 115 524 101 q 597 161 582 128 q 613 256 613 194 l 613 986 l 742 986 l 742 243 q 716 115 742 171 q 632 24 690 58 q 478 -10 574 -10 q 406 -5 436 -10 q 351 10 376 0 l 351 115 m 261 0 l 132 0 l 132 986 l 261 986 l 261 0 z "},"Ī":{"ha":861,"x_min":119,"x_max":742,"o":"m 742 104 l 742 0 l 119 0 l 119 104 l 742 104 m 742 986 l 742 882 l 119 882 l 119 986 l 742 986 m 494 0 l 365 0 l 365 986 l 494 986 l 494 0 m 208 1168 l 653 1168 l 653 1074 l 208 1074 l 208 1168 z "},"Į":{"ha":861,"x_min":119,"x_max":742,"o":"m 742 104 l 742 0 l 119 0 l 119 104 l 742 104 m 742 986 l 742 882 l 119 882 l 119 986 l 742 986 m 494 0 l 365 0 l 365 986 l 494 986 l 494 0 m 722 -176 q 669 -255 710 -228 q 575 -282 628 -282 q 475 -249 515 -282 q 435 -158 435 -217 q 465 -69 435 -112 q 563 6 496 -25 l 672 0 q 586 -34 619 -8 q 538 -90 553 -60 q 524 -146 524 -121 q 538 -194 524 -175 q 579 -212 553 -212 q 621 -194 604 -212 q 647 -149 638 -176 l 722 -176 z "},"Ĩ":{"ha":861,"x_min":119,"x_max":742,"o":"m 742 104 l 742 0 l 119 0 l 119 104 l 742 104 m 742 986 l 742 882 l 119 882 l 119 986 l 742 986 m 494 0 l 365 0 l 365 986 l 494 986 l 494 0 m 331 1235 q 392 1224 365 1235 q 450 1194 418 1214 q 497 1169 479 1176 q 539 1161 515 1161 q 584 1174 564 1161 q 611 1224 604 1188 l 693 1210 q 639 1106 682 1142 q 528 1069 596 1069 q 465 1080 490 1069 q 408 1110 440 1090 q 365 1135 383 1126 q 321 1143 346 1143 q 278 1128 297 1143 q 250 1076 258 1114 l 167 1092 q 226 1199 181 1164 q 331 1235 272 1235 z "},"Ĵ":{"ha":861,"x_min":75,"x_max":867,"o":"m 400 -24 q 217 26 290 -24 q 109 155 143 76 q 75 318 75 233 l 203 361 q 255 163 203 239 q 406 88 307 88 q 550 151 507 88 q 593 328 593 215 l 593 986 l 722 986 l 722 299 q 638 65 722 154 q 400 -24 554 -24 z "},"Ķ":{"ha":861,"x_min":117,"x_max":801,"o":"m 439 653 l 801 0 l 651 0 l 351 558 l 439 653 m 618 986 l 769 986 l 468 594 l 383 510 l 196 281 l 204 446 l 618 986 m 246 986 l 246 0 l 117 0 l 117 986 l 246 986 m 369 -276 q 423 -244 411 -262 q 435 -189 435 -226 l 364 -189 l 364 -64 l 497 -64 l 497 -175 q 476 -272 497 -235 q 397 -329 454 -308 l 369 -276 z "},"Ĺ":{"ha":861,"x_min":160,"x_max":761,"o":"m 289 986 l 289 111 l 761 111 l 761 0 l 160 0 l 160 986 l 289 986 m 267 1228 l 425 1228 l 281 1079 l 169 1079 l 267 1228 z "},"Ľ":{"ha":861,"x_min":160,"x_max":761,"o":"m 289 986 l 289 111 l 761 111 l 761 0 l 160 0 l 160 986 l 289 986 m 444 1010 l 560 1010 l 465 778 l 394 778 l 444 1010 z "},"Ļ":{"ha":861,"x_min":160,"x_max":761,"o":"m 289 986 l 289 111 l 761 111 l 761 0 l 160 0 l 160 986 l 289 986 m 369 -276 q 423 -244 411 -262 q 435 -189 435 -226 l 364 -189 l 364 -64 l 497 -64 l 497 -175 q 476 -272 497 -235 q 397 -329 454 -308 l 369 -276 z "},"Ŀ":{"ha":861,"x_min":160,"x_max":761,"o":"m 289 986 l 289 111 l 761 111 l 761 0 l 160 0 l 160 986 l 289 986 z "},"Ł":{"ha":861,"x_min":22,"x_max":761,"o":"m 564 754 l 564 647 l 22 311 l 22 418 l 564 754 m 289 986 l 289 111 l 761 111 l 761 0 l 160 0 l 160 986 l 289 986 z "},"Ń":{"ha":861,"x_min":113,"x_max":749,"o":"m 572 315 q 602 240 590 272 q 619 186 614 207 l 622 186 q 620 238 621 211 q 619 292 619 265 l 619 986 l 749 986 l 749 0 l 597 0 l 288 710 q 263 771 274 742 q 246 818 253 800 l 243 826 l 239 826 q 241 785 240 806 q 242 742 242 764 l 242 0 l 113 0 l 113 986 l 282 986 l 572 315 m 472 1228 l 631 1228 l 486 1079 l 375 1079 l 472 1228 z "},"Ň":{"ha":861,"x_min":113,"x_max":749,"o":"m 572 315 q 602 240 590 272 q 619 186 614 207 l 622 186 q 620 238 621 211 q 619 292 619 265 l 619 986 l 749 986 l 749 0 l 597 0 l 288 710 q 263 771 274 742 q 246 818 253 800 l 243 826 l 239 826 q 241 785 240 806 q 242 742 242 764 l 242 0 l 113 0 l 113 986 l 282 986 l 572 315 m 343 1228 l 433 1132 l 521 1228 l 639 1228 l 504 1078 l 358 1078 l 222 1228 l 343 1228 z "},"Ņ":{"ha":861,"x_min":113,"x_max":749,"o":"m 572 315 q 602 240 590 272 q 619 186 614 207 l 622 186 q 620 238 621 211 q 619 292 619 265 l 619 986 l 749 986 l 749 0 l 597 0 l 288 710 q 263 771 274 742 q 246 818 253 800 l 243 826 l 239 826 q 241 785 240 806 q 242 742 242 764 l 242 0 l 113 0 l 113 986 l 282 986 l 572 315 m 369 -276 q 423 -244 411 -262 q 435 -189 435 -226 l 364 -189 l 364 -64 l 497 -64 l 497 -175 q 476 -272 497 -235 q 397 -329 454 -308 l 369 -276 z "},"Ñ":{"ha":861,"x_min":113,"x_max":749,"o":"m 572 315 q 602 240 590 272 q 619 186 614 207 l 622 186 q 620 238 621 211 q 619 292 619 265 l 619 986 l 749 986 l 749 0 l 597 0 l 288 710 q 263 771 274 742 q 246 818 253 800 l 243 826 l 239 826 q 241 785 240 806 q 242 742 242 764 l 242 0 l 113 0 l 113 986 l 282 986 l 572 315 m 331 1235 q 392 1224 365 1235 q 450 1194 418 1214 q 497 1169 479 1176 q 539 1161 515 1161 q 584 1174 564 1161 q 611 1224 604 1188 l 693 1210 q 639 1106 682 1142 q 528 1069 596 1069 q 465 1080 490 1069 q 408 1110 440 1090 q 365 1135 383 1126 q 321 1143 346 1143 q 278 1128 297 1143 q 250 1076 258 1114 l 167 1092 q 226 1199 181 1164 q 331 1235 272 1235 z "},"Ŋ":{"ha":861,"x_min":114,"x_max":747,"o":"m 561 -281 q 517 -278 540 -281 q 476 -272 494 -276 l 476 -171 q 503 -173 489 -172 q 535 -174 517 -174 q 584 -161 567 -174 q 609 -122 601 -149 q 617 -51 617 -96 l 617 0 l 286 717 q 262 775 274 743 q 242 833 250 807 l 238 833 q 240 792 239 813 q 240 749 240 771 l 240 0 l 114 0 l 114 986 l 283 986 l 574 350 q 603 276 592 310 q 621 221 615 242 l 624 221 q 622 273 622 246 q 621 326 621 300 l 621 986 l 747 986 l 747 -33 q 704 -215 747 -150 q 561 -281 661 -281 z "},"Ó":{"ha":861,"x_min":71,"x_max":790,"o":"m 431 -24 q 232 33 313 -24 q 111 195 151 89 q 71 449 71 301 l 71 538 q 111 791 71 685 q 232 953 151 897 q 431 1010 313 1010 q 629 953 549 1010 q 750 791 710 897 q 790 538 790 685 l 790 449 q 750 195 790 301 q 629 33 710 89 q 431 -24 549 -24 m 431 88 q 601 175 546 88 q 656 449 656 263 l 656 538 q 601 811 656 724 q 431 899 546 899 q 260 811 315 899 q 206 538 206 724 l 206 449 q 260 175 206 263 q 431 88 315 88 m 472 1228 l 631 1228 l 486 1079 l 375 1079 l 472 1228 z "},"Ŏ":{"ha":861,"x_min":71,"x_max":790,"o":"m 431 -24 q 232 33 313 -24 q 111 195 151 89 q 71 449 71 301 l 71 538 q 111 791 71 685 q 232 953 151 897 q 431 1010 313 1010 q 629 953 549 1010 q 750 791 710 897 q 790 538 790 685 l 790 449 q 750 195 790 301 q 629 33 710 89 q 431 -24 549 -24 m 431 88 q 601 175 546 88 q 656 449 656 263 l 656 538 q 601 811 656 724 q 431 899 546 899 q 260 811 315 899 q 206 538 206 724 l 206 449 q 260 175 206 263 q 431 88 315 88 m 314 1228 q 351 1174 319 1196 q 431 1153 382 1153 q 510 1174 479 1153 q 549 1228 542 1196 l 656 1228 q 581 1109 643 1150 q 431 1068 519 1068 q 279 1109 342 1068 q 206 1228 217 1150 l 314 1228 z "},"Ô":{"ha":861,"x_min":71,"x_max":790,"o":"m 431 -24 q 232 33 313 -24 q 111 195 151 89 q 71 449 71 301 l 71 538 q 111 791 71 685 q 232 953 151 897 q 431 1010 313 1010 q 629 953 549 1010 q 750 791 710 897 q 790 538 790 685 l 790 449 q 750 195 790 301 q 629 33 710 89 q 431 -24 549 -24 m 431 88 q 601 175 546 88 q 656 449 656 263 l 656 538 q 601 811 656 724 q 431 899 546 899 q 260 811 315 899 q 206 538 206 724 l 206 449 q 260 175 206 263 q 431 88 315 88 z "},"Ö":{"ha":861,"x_min":71,"x_max":790,"o":"m 431 -24 q 232 33 313 -24 q 111 195 151 89 q 71 449 71 301 l 71 538 q 111 791 71 685 q 232 953 151 897 q 431 1010 313 1010 q 629 953 549 1010 q 750 791 710 897 q 790 538 790 685 l 790 449 q 750 195 790 301 q 629 33 710 89 q 431 -24 549 -24 m 431 88 q 601 175 546 88 q 656 449 656 263 l 656 538 q 601 811 656 724 q 431 899 546 899 q 260 811 315 899 q 206 538 206 724 l 206 449 q 260 175 206 263 q 431 88 315 88 m 349 1074 l 197 1074 l 197 1228 l 349 1228 l 349 1074 m 664 1074 l 513 1074 l 513 1228 l 664 1228 l 664 1074 z "},"Œ":{"ha":861,"x_min":53,"x_max":792,"o":"m 782 986 l 782 875 l 501 875 l 501 560 l 758 560 l 758 451 l 501 451 l 501 111 l 792 111 l 792 0 l 379 0 l 379 986 l 782 986 m 135 96 q 74 209 94 143 q 53 356 53 275 l 53 633 q 74 787 53 721 q 135 897 94 853 q 231 964 174 942 q 361 986 288 986 l 457 986 l 457 878 l 347 878 q 273 863 304 878 q 221 817 242 847 q 190 740 200 786 q 179 633 179 694 l 179 356 q 190 249 179 294 q 224 171 201 203 q 278 124 246 140 q 350 108 310 108 l 453 108 l 453 0 l 364 0 q 233 25 290 0 q 135 96 175 50 z "},"Ò":{"ha":861,"x_min":71,"x_max":790,"o":"m 431 -24 q 232 33 313 -24 q 111 195 151 89 q 71 449 71 301 l 71 538 q 111 791 71 685 q 232 953 151 897 q 431 1010 313 1010 q 629 953 549 1010 q 750 791 710 897 q 790 538 790 685 l 790 449 q 750 195 790 301 q 629 33 710 89 q 431 -24 549 -24 m 431 88 q 601 175 546 88 q 656 449 656 263 l 656 538 q 601 811 656 724 q 431 899 546 899 q 260 811 315 899 q 206 538 206 724 l 206 449 q 260 175 206 263 q 431 88 315 88 m 231 1228 l 389 1228 l 486 1079 l 375 1079 l 231 1228 z "},"Ő":{"ha":861,"x_min":71,"x_max":790,"o":"m 431 -24 q 232 33 313 -24 q 111 195 151 89 q 71 449 71 301 l 71 538 q 111 791 71 685 q 232 953 151 897 q 431 1010 313 1010 q 629 953 549 1010 q 750 791 710 897 q 790 538 790 685 l 790 449 q 750 195 790 301 q 629 33 710 89 q 431 -24 549 -24 m 431 88 q 601 175 546 88 q 656 449 656 263 l 656 538 q 601 811 656 724 q 431 899 546 899 q 260 811 315 899 q 206 538 206 724 l 206 449 q 260 175 206 263 q 431 88 315 88 m 575 1228 l 701 1228 l 601 1079 l 485 1079 l 575 1228 m 350 1228 l 476 1228 l 376 1079 l 260 1079 l 350 1228 z "},"Ō":{"ha":861,"x_min":71,"x_max":790,"o":"m 431 -24 q 232 33 313 -24 q 111 195 151 89 q 71 449 71 301 l 71 538 q 111 791 71 685 q 232 953 151 897 q 431 1010 313 1010 q 629 953 549 1010 q 750 791 710 897 q 790 538 790 685 l 790 449 q 750 195 790 301 q 629 33 710 89 q 431 -24 549 -24 m 431 88 q 601 175 546 88 q 656 449 656 263 l 656 538 q 601 811 656 724 q 431 899 546 899 q 260 811 315 899 q 206 538 206 724 l 206 449 q 260 175 206 263 q 431 88 315 88 m 208 1168 l 653 1168 l 653 1074 l 208 1074 l 208 1168 z "},"Ø":{"ha":861,"x_min":71,"x_max":790,"o":"m 431 -24 q 232 33 313 -24 q 111 195 151 89 q 71 449 71 301 l 71 538 q 111 791 71 685 q 232 953 151 897 q 431 1010 313 1010 q 629 953 549 1010 q 750 791 710 897 q 790 538 790 685 l 790 449 q 750 195 790 301 q 629 33 710 89 q 431 -24 549 -24 m 431 88 q 601 175 546 88 q 656 449 656 263 l 656 538 q 601 811 656 724 q 431 899 546 899 q 260 811 315 899 q 206 538 206 724 l 206 449 q 260 175 206 263 q 431 88 315 88 m 72 -11 l 719 1033 l 790 994 l 144 -47 l 72 -11 z "},"Ǿ":{"ha":861,"x_min":71,"x_max":790,"o":"m 431 -24 q 232 33 313 -24 q 111 195 151 89 q 71 449 71 301 l 71 538 q 111 791 71 685 q 232 953 151 897 q 431 1010 313 1010 q 629 953 549 1010 q 750 791 710 897 q 790 538 790 685 l 790 449 q 750 195 790 301 q 629 33 710 89 q 431 -24 549 -24 m 431 88 q 601 175 546 88 q 656 449 656 263 l 656 538 q 601 811 656 724 q 431 899 546 899 q 260 811 315 899 q 206 538 206 724 l 206 449 q 260 175 206 263 q 431 88 315 88 m 72 -11 l 719 1033 l 790 994 l 144 -47 l 72 -11 m 472 1228 l 631 1228 l 486 1079 l 375 1079 l 472 1228 z "},"Õ":{"ha":861,"x_min":71,"x_max":790,"o":"m 431 -24 q 232 33 313 -24 q 111 195 151 89 q 71 449 71 301 l 71 538 q 111 791 71 685 q 232 953 151 897 q 431 1010 313 1010 q 629 953 549 1010 q 750 791 710 897 q 790 538 790 685 l 790 449 q 750 195 790 301 q 629 33 710 89 q 431 -24 549 -24 m 431 88 q 601 175 546 88 q 656 449 656 263 l 656 538 q 601 811 656 724 q 431 899 546 899 q 260 811 315 899 q 206 538 206 724 l 206 449 q 260 175 206 263 q 431 88 315 88 m 331 1235 q 392 1224 365 1235 q 450 1194 418 1214 q 497 1169 479 1176 q 539 1161 515 1161 q 584 1174 564 1161 q 611 1224 604 1188 l 693 1210 q 639 1106 682 1142 q 528 1069 596 1069 q 465 1080 490 1069 q 408 1110 440 1090 q 365 1135 383 1126 q 321 1143 346 1143 q 278 1128 297 1143 q 250 1076 258 1114 l 167 1092 q 226 1199 181 1164 q 331 1235 272 1235 z "},"Ŕ":{"ha":861,"x_min":118,"x_max":799,"o":"m 118 986 l 435 986 q 681 911 594 986 q 768 699 768 836 q 738 569 768 626 q 653 474 708 511 q 521 425 597 438 l 475 413 l 225 413 l 225 515 l 429 515 q 540 536 494 515 q 609 597 586 557 q 632 696 632 638 q 580 831 632 785 q 429 878 528 878 l 247 878 l 247 0 l 118 0 l 118 986 m 424 419 l 558 433 l 799 0 l 656 0 l 424 419 m 471 1228 l 629 1228 l 485 1079 l 374 1079 l 471 1228 z "},"Ř":{"ha":861,"x_min":118,"x_max":799,"o":"m 118 986 l 435 986 q 681 911 594 986 q 768 699 768 836 q 738 569 768 626 q 653 474 708 511 q 521 425 597 438 l 475 413 l 225 413 l 225 515 l 429 515 q 540 536 494 515 q 609 597 586 557 q 632 696 632 638 q 580 831 632 785 q 429 878 528 878 l 247 878 l 247 0 l 118 0 l 118 986 m 424 419 l 558 433 l 799 0 l 656 0 l 424 419 m 342 1228 l 432 1132 l 519 1228 l 638 1228 l 503 1078 l 357 1078 l 221 1228 l 342 1228 z "},"Ŗ":{"ha":861,"x_min":118,"x_max":799,"o":"m 118 986 l 435 986 q 681 911 594 986 q 768 699 768 836 q 738 569 768 626 q 653 474 708 511 q 521 425 597 438 l 475 413 l 225 413 l 225 515 l 429 515 q 540 536 494 515 q 609 597 586 557 q 632 696 632 638 q 580 831 632 785 q 429 878 528 878 l 247 878 l 247 0 l 118 0 l 118 986 m 424 419 l 558 433 l 799 0 l 656 0 l 424 419 m 368 -276 q 422 -244 410 -262 q 433 -189 433 -226 l 363 -189 l 363 -64 l 496 -64 l 496 -175 q 474 -272 496 -235 q 396 -329 453 -308 l 368 -276 z "},"Ś":{"ha":861,"x_min":76,"x_max":774,"o":"m 442 -24 q 251 18 328 -24 q 131 128 174 60 q 76 283 89 197 l 201 308 q 242 194 214 244 q 319 115 269 144 q 440 85 369 85 q 583 121 524 85 q 642 242 642 157 q 619 339 642 303 q 564 393 597 375 q 482 424 531 411 l 350 458 q 172 556 238 489 q 107 732 107 624 q 146 869 107 806 q 256 972 185 933 q 421 1010 328 1010 q 590 982 515 1010 q 710 892 664 954 q 767 733 757 831 l 643 697 q 574 853 635 806 q 425 901 514 901 q 283 855 326 901 q 239 743 239 808 q 281 638 239 681 q 390 576 324 596 l 517 543 q 705 450 636 511 q 774 260 774 389 q 738 122 774 186 q 628 17 703 57 q 442 -24 553 -24 m 472 1228 l 631 1228 l 486 1079 l 375 1079 l 472 1228 z "},"Š":{"ha":861,"x_min":76,"x_max":774,"o":"m 442 -24 q 251 18 328 -24 q 131 128 174 60 q 76 283 89 197 l 201 308 q 242 194 214 244 q 319 115 269 144 q 440 85 369 85 q 583 121 524 85 q 642 242 642 157 q 619 339 642 303 q 564 393 597 375 q 482 424 531 411 l 350 458 q 172 556 238 489 q 107 732 107 624 q 146 869 107 806 q 256 972 185 933 q 421 1010 328 1010 q 590 982 515 1010 q 710 892 664 954 q 767 733 757 831 l 643 697 q 574 853 635 806 q 425 901 514 901 q 283 855 326 901 q 239 743 239 808 q 281 638 239 681 q 390 576 324 596 l 517 543 q 705 450 636 511 q 774 260 774 389 q 738 122 774 186 q 628 17 703 57 q 442 -24 553 -24 m 343 1228 l 433 1132 l 521 1228 l 639 1228 l 504 1078 l 358 1078 l 222 1228 l 343 1228 z "},"Ş":{"ha":861,"x_min":76,"x_max":774,"o":"m 442 -24 q 251 18 328 -24 q 131 128 174 60 q 76 283 89 197 l 201 308 q 242 194 214 244 q 319 115 269 144 q 440 85 369 85 q 583 121 524 85 q 642 242 642 157 q 619 339 642 303 q 564 393 597 375 q 482 424 531 411 l 350 458 q 172 556 238 489 q 107 732 107 624 q 146 869 107 806 q 256 972 185 933 q 421 1010 328 1010 q 590 982 515 1010 q 710 892 664 954 q 767 733 757 831 l 643 697 q 574 853 635 806 q 425 901 514 901 q 283 855 326 901 q 239 743 239 808 q 281 638 239 681 q 390 576 324 596 l 517 543 q 705 450 636 511 q 774 260 774 389 q 738 122 774 186 q 628 17 703 57 q 442 -24 553 -24 m 514 10 l 465 -68 q 491 -56 474 -60 q 525 -51 508 -51 q 599 -78 571 -51 q 628 -150 628 -106 q 583 -241 628 -206 q 478 -276 539 -276 q 401 -260 438 -276 q 342 -201 364 -244 l 421 -175 q 445 -204 431 -194 q 479 -214 460 -214 q 522 -199 504 -214 q 539 -157 539 -183 q 522 -115 539 -129 q 483 -100 506 -100 q 456 -105 467 -100 q 435 -121 444 -110 l 381 -104 l 440 10 l 514 10 z "},"Ŝ":{"ha":861,"x_min":76,"x_max":774,"o":"m 442 -24 q 251 18 328 -24 q 131 128 174 60 q 76 283 89 197 l 201 308 q 242 194 214 244 q 319 115 269 144 q 440 85 369 85 q 583 121 524 85 q 642 242 642 157 q 619 339 642 303 q 564 393 597 375 q 482 424 531 411 l 350 458 q 172 556 238 489 q 107 732 107 624 q 146 869 107 806 q 256 972 185 933 q 421 1010 328 1010 q 590 982 515 1010 q 710 892 664 954 q 767 733 757 831 l 643 697 q 574 853 635 806 q 425 901 514 901 q 283 855 326 901 q 239 743 239 808 q 281 638 239 681 q 390 576 324 596 l 517 543 q 705 450 636 511 q 774 260 774 389 q 738 122 774 186 q 628 17 703 57 q 442 -24 553 -24 z "},"Ș":{"ha":861,"x_min":76,"x_max":774,"o":"m 442 -24 q 251 18 328 -24 q 131 128 174 60 q 76 283 89 197 l 201 308 q 242 194 214 244 q 319 115 269 144 q 440 85 369 85 q 583 121 524 85 q 642 242 642 157 q 619 339 642 303 q 564 393 597 375 q 482 424 531 411 l 350 458 q 172 556 238 489 q 107 732 107 624 q 146 869 107 806 q 256 972 185 933 q 421 1010 328 1010 q 590 982 515 1010 q 710 892 664 954 q 767 733 757 831 l 643 697 q 574 853 635 806 q 425 901 514 901 q 283 855 326 901 q 239 743 239 808 q 281 638 239 681 q 390 576 324 596 l 517 543 q 705 450 636 511 q 774 260 774 389 q 738 122 774 186 q 628 17 703 57 q 442 -24 553 -24 m 411 -276 q 465 -244 453 -262 q 476 -189 476 -226 l 406 -189 l 406 -64 l 539 -64 l 539 -175 q 517 -272 539 -235 q 439 -329 496 -308 l 411 -276 z "},"Ŧ":{"ha":861,"x_min":54,"x_max":804,"o":"m 764 635 l 764 553 l 96 553 l 96 635 l 764 635 m 804 986 l 804 875 l 494 875 l 494 0 l 364 0 l 364 875 l 54 875 l 54 986 l 804 986 z "},"Ť":{"ha":861,"x_min":54,"x_max":804,"o":"m 804 986 l 804 875 l 494 875 l 494 0 l 364 0 l 364 875 l 54 875 l 54 986 l 804 986 m 342 1228 l 432 1132 l 519 1228 l 638 1228 l 503 1078 l 357 1078 l 221 1228 l 342 1228 z "},"Ţ":{"ha":861,"x_min":54,"x_max":804,"o":"m 804 986 l 804 875 l 494 875 l 494 0 l 364 0 l 364 875 l 54 875 l 54 986 l 804 986 m 471 10 l 422 -68 q 448 -56 431 -60 q 482 -51 465 -51 q 556 -78 528 -51 q 585 -150 585 -106 q 540 -241 585 -206 q 435 -276 496 -276 q 358 -260 394 -276 q 299 -201 321 -244 l 378 -175 q 402 -204 388 -194 q 436 -214 417 -214 q 478 -199 461 -214 q 496 -157 496 -183 q 479 -115 496 -129 q 440 -100 463 -100 q 413 -105 424 -100 q 392 -121 401 -110 l 338 -104 l 397 10 l 471 10 z "},"Ț":{"ha":861,"x_min":54,"x_max":804,"o":"m 804 986 l 804 875 l 494 875 l 494 0 l 364 0 l 364 875 l 54 875 l 54 986 l 804 986 m 368 -276 q 422 -244 410 -262 q 433 -189 433 -226 l 363 -189 l 363 -64 l 496 -64 l 496 -175 q 474 -272 496 -235 q 396 -329 453 -308 l 368 -276 z "},"Þ":{"ha":861,"x_min":136,"x_max":767,"o":"m 136 986 l 261 986 l 261 817 l 460 817 q 637 778 568 817 q 736 678 706 740 q 767 546 767 617 q 738 424 767 485 q 640 322 708 364 q 460 281 571 281 l 261 281 l 261 0 l 136 0 l 136 986 m 451 386 q 564 411 521 386 q 624 472 607 436 q 642 546 642 508 q 596 663 642 615 q 451 711 550 711 l 261 711 l 261 386 l 451 386 z "},"Ú":{"ha":861,"x_min":94,"x_max":767,"o":"m 224 986 l 224 329 q 247 201 224 256 q 318 117 271 147 q 435 88 365 88 q 588 151 539 88 q 638 329 638 215 l 638 986 l 767 986 l 767 329 q 684 72 767 168 q 435 -24 601 -24 q 247 22 324 -24 q 133 146 171 67 q 94 329 94 225 l 94 986 l 224 986 m 472 1228 l 631 1228 l 486 1079 l 375 1079 l 472 1228 z "},"Ŭ":{"ha":861,"x_min":94,"x_max":767,"o":"m 224 986 l 224 329 q 247 201 224 256 q 318 117 271 147 q 435 88 365 88 q 588 151 539 88 q 638 329 638 215 l 638 986 l 767 986 l 767 329 q 684 72 767 168 q 435 -24 601 -24 q 247 22 324 -24 q 133 146 171 67 q 94 329 94 225 l 94 986 l 224 986 m 314 1228 q 351 1174 319 1196 q 431 1153 382 1153 q 510 1174 479 1153 q 549 1228 542 1196 l 656 1228 q 581 1109 643 1150 q 431 1068 519 1068 q 279 1109 342 1068 q 206 1228 217 1150 l 314 1228 z "},"Û":{"ha":861,"x_min":94,"x_max":767,"o":"m 224 986 l 224 329 q 247 201 224 256 q 318 117 271 147 q 435 88 365 88 q 588 151 539 88 q 638 329 638 215 l 638 986 l 767 986 l 767 329 q 684 72 767 168 q 435 -24 601 -24 q 247 22 324 -24 q 133 146 171 67 q 94 329 94 225 l 94 986 l 224 986 z "},"Ü":{"ha":861,"x_min":94,"x_max":767,"o":"m 224 986 l 224 329 q 247 201 224 256 q 318 117 271 147 q 435 88 365 88 q 588 151 539 88 q 638 329 638 215 l 638 986 l 767 986 l 767 329 q 684 72 767 168 q 435 -24 601 -24 q 247 22 324 -24 q 133 146 171 67 q 94 329 94 225 l 94 986 l 224 986 m 349 1074 l 197 1074 l 197 1228 l 349 1228 l 349 1074 m 664 1074 l 513 1074 l 513 1228 l 664 1228 l 664 1074 z "},"Ù":{"ha":861,"x_min":94,"x_max":767,"o":"m 224 986 l 224 329 q 247 201 224 256 q 318 117 271 147 q 435 88 365 88 q 588 151 539 88 q 638 329 638 215 l 638 986 l 767 986 l 767 329 q 684 72 767 168 q 435 -24 601 -24 q 247 22 324 -24 q 133 146 171 67 q 94 329 94 225 l 94 986 l 224 986 m 231 1228 l 389 1228 l 486 1079 l 375 1079 l 231 1228 z "},"Ű":{"ha":861,"x_min":94,"x_max":767,"o":"m 224 986 l 224 329 q 247 201 224 256 q 318 117 271 147 q 435 88 365 88 q 588 151 539 88 q 638 329 638 215 l 638 986 l 767 986 l 767 329 q 684 72 767 168 q 435 -24 601 -24 q 247 22 324 -24 q 133 146 171 67 q 94 329 94 225 l 94 986 l 224 986 m 575 1228 l 701 1228 l 601 1079 l 485 1079 l 575 1228 m 350 1228 l 476 1228 l 376 1079 l 260 1079 l 350 1228 z "},"Ū":{"ha":861,"x_min":94,"x_max":767,"o":"m 224 986 l 224 329 q 247 201 224 256 q 318 117 271 147 q 435 88 365 88 q 588 151 539 88 q 638 329 638 215 l 638 986 l 767 986 l 767 329 q 684 72 767 168 q 435 -24 601 -24 q 247 22 324 -24 q 133 146 171 67 q 94 329 94 225 l 94 986 l 224 986 m 208 1168 l 653 1168 l 653 1074 l 208 1074 l 208 1168 z "},"Ų":{"ha":861,"x_min":94,"x_max":767,"o":"m 547 -144 q 563 -194 547 -175 q 603 -212 578 -212 q 644 -194 628 -212 q 671 -149 661 -176 l 746 -176 q 691 -255 732 -228 q 590 -282 650 -282 q 497 -249 536 -282 q 458 -156 458 -217 q 494 -54 458 -106 q 619 58 529 -3 l 669 58 q 576 -53 604 -1 q 547 -144 547 -104 m 224 986 l 224 329 q 247 201 224 256 q 318 117 271 147 q 435 88 365 88 q 588 151 539 88 q 638 329 638 215 l 638 986 l 767 986 l 767 329 q 684 72 767 168 q 435 -24 601 -24 q 247 22 324 -24 q 133 146 171 67 q 94 329 94 225 l 94 986 l 224 986 z "},"Ů":{"ha":861,"x_min":94,"x_max":767,"o":"m 224 986 l 224 329 q 247 201 224 256 q 318 117 271 147 q 435 88 365 88 q 588 151 539 88 q 638 329 638 215 l 638 986 l 767 986 l 767 329 q 684 72 767 168 q 435 -24 601 -24 q 247 22 324 -24 q 133 146 171 67 q 94 329 94 225 l 94 986 l 224 986 m 431 1019 q 330 1055 368 1019 q 292 1146 292 1090 q 330 1237 292 1201 q 431 1272 368 1272 q 531 1237 493 1272 q 569 1146 569 1201 q 531 1055 569 1090 q 431 1019 493 1019 m 431 1082 q 474 1100 457 1082 q 492 1146 492 1118 q 474 1192 492 1174 q 431 1210 457 1210 q 387 1192 404 1210 q 369 1146 369 1174 q 387 1100 369 1118 q 431 1082 404 1082 z "},"Ũ":{"ha":861,"x_min":94,"x_max":767,"o":"m 224 986 l 224 329 q 247 201 224 256 q 318 117 271 147 q 435 88 365 88 q 588 151 539 88 q 638 329 638 215 l 638 986 l 767 986 l 767 329 q 684 72 767 168 q 435 -24 601 -24 q 247 22 324 -24 q 133 146 171 67 q 94 329 94 225 l 94 986 l 224 986 m 331 1235 q 392 1224 365 1235 q 450 1194 418 1214 q 497 1169 479 1176 q 539 1161 515 1161 q 584 1174 564 1161 q 611 1224 604 1188 l 693 1210 q 639 1106 682 1142 q 528 1069 596 1069 q 465 1080 490 1069 q 408 1110 440 1090 q 365 1135 383 1126 q 321 1143 346 1143 q 278 1128 297 1143 q 250 1076 258 1114 l 167 1092 q 226 1199 181 1164 q 331 1235 272 1235 z "},"Ẃ":{"ha":861,"x_min":64,"x_max":797,"o":"m 64 986 l 193 986 l 226 286 q 232 110 232 182 l 246 110 q 274 296 249 179 l 369 743 l 492 743 l 588 296 q 615 110 613 179 l 629 110 q 635 286 629 182 l 668 986 l 797 986 l 722 0 l 553 0 l 464 424 q 446 531 451 486 q 438 621 440 575 l 424 621 q 415 531 421 575 q 397 424 410 486 l 308 0 l 139 0 l 64 986 m 472 1228 l 631 1228 l 486 1079 l 375 1079 l 472 1228 z "},"Ŵ":{"ha":861,"x_min":64,"x_max":797,"o":"m 64 986 l 193 986 l 226 286 q 232 110 232 182 l 246 110 q 274 296 249 179 l 369 743 l 492 743 l 588 296 q 615 110 613 179 l 629 110 q 635 286 629 182 l 668 986 l 797 986 l 722 0 l 553 0 l 464 424 q 446 531 451 486 q 438 621 440 575 l 424 621 q 415 531 421 575 q 397 424 410 486 l 308 0 l 139 0 l 64 986 z "},"Ẅ":{"ha":861,"x_min":64,"x_max":797,"o":"m 64 986 l 193 986 l 226 286 q 232 110 232 182 l 246 110 q 274 296 249 179 l 369 743 l 492 743 l 588 296 q 615 110 613 179 l 629 110 q 635 286 629 182 l 668 986 l 797 986 l 722 0 l 553 0 l 464 424 q 446 531 451 486 q 438 621 440 575 l 424 621 q 415 531 421 575 q 397 424 410 486 l 308 0 l 139 0 l 64 986 m 349 1074 l 197 1074 l 197 1228 l 349 1228 l 349 1074 m 664 1074 l 513 1074 l 513 1228 l 664 1228 l 664 1074 z "},"Ẁ":{"ha":861,"x_min":64,"x_max":797,"o":"m 64 986 l 193 986 l 226 286 q 232 110 232 182 l 246 110 q 274 296 249 179 l 369 743 l 492 743 l 588 296 q 615 110 613 179 l 629 110 q 635 286 629 182 l 668 986 l 797 986 l 722 0 l 553 0 l 464 424 q 446 531 451 486 q 438 621 440 575 l 424 621 q 415 531 421 575 q 397 424 410 486 l 308 0 l 139 0 l 64 986 m 231 1228 l 389 1228 l 486 1079 l 375 1079 l 231 1228 z "},"Ý":{"ha":861,"x_min":46,"x_max":815,"o":"m 496 0 l 367 0 l 367 393 l 46 986 l 189 986 l 431 500 l 672 986 l 815 986 l 496 393 l 496 0 m 472 1228 l 631 1228 l 486 1079 l 375 1079 l 472 1228 z "},"Ŷ":{"ha":861,"x_min":46,"x_max":815,"o":"m 496 0 l 367 0 l 367 393 l 46 986 l 189 986 l 431 500 l 672 986 l 815 986 l 496 393 l 496 0 z "},"Ÿ":{"ha":861,"x_min":46,"x_max":815,"o":"m 496 0 l 367 0 l 367 393 l 46 986 l 189 986 l 431 500 l 672 986 l 815 986 l 496 393 l 496 0 m 349 1074 l 197 1074 l 197 1228 l 349 1228 l 349 1074 m 664 1074 l 513 1074 l 513 1228 l 664 1228 l 664 1074 z "},"Ỳ":{"ha":861,"x_min":46,"x_max":815,"o":"m 496 0 l 367 0 l 367 393 l 46 986 l 189 986 l 431 500 l 672 986 l 815 986 l 496 393 l 496 0 m 231 1228 l 389 1228 l 486 1079 l 375 1079 l 231 1228 z "},"Ź":{"ha":861,"x_min":94,"x_max":767,"o":"m 611 875 l 113 875 l 113 986 l 747 986 l 747 867 l 229 111 l 767 111 l 767 0 l 94 0 l 94 119 l 611 875 m 472 1228 l 631 1228 l 486 1079 l 375 1079 l 472 1228 z "},"Ž":{"ha":861,"x_min":94,"x_max":767,"o":"m 611 875 l 113 875 l 113 986 l 747 986 l 747 867 l 229 111 l 767 111 l 767 0 l 94 0 l 94 119 l 611 875 m 343 1228 l 433 1132 l 521 1228 l 639 1228 l 504 1078 l 358 1078 l 222 1228 l 343 1228 z "},"Ż":{"ha":861,"x_min":94,"x_max":767,"o":"m 611 875 l 113 875 l 113 986 l 747 986 l 747 867 l 229 111 l 767 111 l 767 0 l 94 0 l 94 119 l 611 875 m 347 1228 l 514 1228 l 514 1074 l 347 1074 l 347 1228 z "},"a":{"ha":861,"x_min":114,"x_max":717,"o":"m 347 -17 q 179 40 244 -17 q 114 188 114 97 q 138 283 114 242 q 211 351 163 324 q 447 408 278 388 l 574 424 l 574 424 q 574 436 574 431 q 538 572 574 529 q 425 614 503 614 q 309 578 351 614 q 263 476 267 542 l 136 476 q 179 603 142 550 q 281 683 217 656 q 433 711 346 711 q 633 639 574 711 q 693 422 693 567 q 693 422 693 422 q 693 422 693 422 l 693 235 q 699 95 693 151 q 717 0 704 39 l 593 0 q 588 47 590 17 q 582 126 585 74 q 490 18 547 53 q 347 -17 432 -17 m 369 81 q 478 108 432 81 q 550 185 525 135 q 575 303 575 235 l 575 338 l 410 315 q 279 274 319 303 q 239 194 239 246 q 274 111 239 142 q 369 81 308 81 z "},"b":{"ha":861,"x_min":156,"x_max":774,"o":"m 274 574 q 360 673 303 635 q 488 711 418 711 q 640 665 575 711 q 739 536 704 618 q 774 349 774 454 q 738 158 774 240 q 638 29 703 75 q 483 -17 572 -17 q 394 0 438 -17 q 318 47 351 17 q 267 119 285 78 l 246 0 l 156 0 l 156 1007 l 274 1007 l 274 574 m 271 328 q 293 201 271 256 q 357 117 315 147 q 456 88 399 88 q 559 119 515 88 q 626 210 603 151 q 649 349 649 269 q 599 537 649 467 q 458 607 549 607 q 358 578 400 607 q 293 494 315 549 q 271 364 271 439 l 271 328 z "},"c":{"ha":861,"x_min":111,"x_max":717,"o":"m 431 -17 q 256 31 328 -17 q 148 163 185 79 q 111 351 111 246 q 147 538 111 457 q 256 665 183 619 q 435 711 329 711 q 628 646 553 711 q 717 463 704 581 l 596 449 q 543 567 586 526 q 426 608 500 608 q 321 576 364 608 q 256 488 278 544 q 233 353 233 431 q 284 159 233 231 q 431 88 335 88 q 548 131 506 88 q 603 254 590 174 l 715 236 q 669 106 704 163 q 574 16 633 49 q 431 -17 514 -17 z "},"d":{"ha":861,"x_min":81,"x_max":699,"o":"m 367 -17 q 216 28 281 -17 q 116 156 151 74 q 81 349 81 239 q 118 539 81 457 q 225 666 156 621 q 385 711 294 711 q 503 678 453 711 q 581 592 553 646 l 581 1007 l 699 1007 l 699 0 l 588 0 l 588 129 q 501 21 554 58 q 367 -17 449 -17 m 392 88 q 493 117 450 88 q 560 202 536 147 q 583 332 583 257 l 583 364 q 560 492 583 438 q 495 577 538 547 q 396 607 453 607 q 294 576 336 607 q 228 488 251 546 q 206 349 206 429 q 256 158 206 228 q 392 88 306 88 z "},"e":{"ha":861,"x_min":111,"x_max":722,"o":"m 436 -17 q 194 85 276 -17 q 111 361 111 186 q 150 546 111 467 q 260 668 189 625 q 428 711 332 711 q 651 617 579 711 q 722 369 722 522 q 719 317 722 353 l 189 317 l 189 414 l 600 414 q 600 414 600 414 q 600 414 600 414 q 557 561 603 503 q 422 619 511 619 q 319 590 363 619 q 254 514 276 561 q 232 414 232 467 l 232 317 q 287 152 232 217 q 436 88 342 88 q 545 122 500 88 q 619 211 590 156 l 719 158 q 604 27 675 71 q 436 -17 533 -17 z "},"f":{"ha":861,"x_min":126,"x_max":721,"o":"m 721 599 l 457 599 l 457 0 l 339 0 l 339 599 l 126 599 l 126 694 l 339 694 l 339 771 q 405 951 339 890 q 600 1011 471 1011 q 657 1008 629 1011 q 721 997 685 1004 l 721 893 q 706 896 717 893 q 656 901 683 899 q 600 904 628 904 q 489 873 521 904 q 457 763 457 842 l 457 694 l 721 694 l 721 599 z "},"g":{"ha":861,"x_min":110,"x_max":778,"o":"m 425 -287 q 194 -240 278 -287 q 110 -111 110 -193 q 160 5 110 -40 q 296 60 211 50 l 343 42 q 258 -1 290 31 q 226 -78 226 -33 q 278 -162 226 -133 q 438 -190 331 -190 q 599 -160 547 -190 q 650 -72 650 -131 q 616 0 650 -25 q 515 25 582 25 l 358 25 q 199 62 254 25 q 143 168 143 99 q 160 238 143 207 q 210 288 178 268 q 288 315 243 308 l 354 282 q 278 258 308 279 q 247 199 247 236 q 276 147 247 165 q 363 129 304 129 l 542 129 q 709 79 650 129 q 768 -60 768 29 q 678 -228 768 -168 q 425 -287 588 -287 m 425 240 q 243 303 313 240 q 174 471 174 367 q 206 596 174 542 q 297 681 239 650 q 432 711 356 711 q 616 647 546 711 q 686 478 686 582 q 653 354 686 408 q 561 270 621 300 q 425 240 501 240 m 426 331 q 533 372 490 331 q 575 478 575 414 q 535 581 575 540 q 431 621 494 621 q 326 580 367 621 q 285 474 285 539 q 324 370 285 410 q 426 331 364 331 m 565 679 q 626 775 583 742 q 733 808 669 808 q 778 803 761 808 l 778 700 q 726 706 747 706 q 663 689 688 706 q 622 636 638 672 l 565 679 z "},"h":{"ha":861,"x_min":143,"x_max":718,"o":"m 261 568 q 345 672 285 632 q 479 711 406 711 q 571 697 525 711 q 650 650 617 682 q 701 564 685 617 q 718 429 718 511 l 718 0 l 600 0 l 600 422 q 558 567 600 526 q 450 607 515 607 q 338 569 379 607 q 278 475 296 531 q 261 363 261 419 l 261 0 l 143 0 l 143 1007 l 261 1007 l 261 568 z "},"i":{"ha":861,"x_min":174,"x_max":749,"o":"m 174 97 l 396 97 l 396 597 l 194 597 l 194 694 l 514 694 l 514 97 l 749 97 l 749 0 l 174 0 l 174 97 m 360 1000 l 526 1000 l 526 833 l 360 833 l 360 1000 z "},"j":{"ha":861,"x_min":153,"x_max":599,"o":"m 328 -281 q 235 -274 278 -281 q 153 -256 193 -268 l 153 -153 q 237 -168 203 -164 q 313 -172 271 -172 q 433 -134 397 -172 q 469 4 469 -96 l 469 597 l 206 597 l 206 694 l 588 694 l 588 -3 q 528 -206 588 -132 q 328 -281 468 -281 m 432 1000 l 599 1000 l 599 833 l 432 833 l 432 1000 z "},"k":{"ha":861,"x_min":165,"x_max":765,"o":"m 765 0 l 619 0 l 360 422 l 446 503 l 765 0 m 443 374 l 196 125 l 199 260 l 594 694 l 749 694 l 443 374 l 443 374 m 165 0 l 165 1007 l 283 1007 l 283 0 l 165 0 z "},"l":{"ha":861,"x_min":174,"x_max":749,"o":"m 174 97 l 396 97 l 396 910 l 188 910 l 188 1007 l 514 1007 l 514 97 l 749 97 l 749 0 l 174 0 l 174 97 z "},"m":{"ha":861,"x_min":63,"x_max":797,"o":"m 174 588 q 234 678 194 644 q 325 711 274 711 q 414 678 376 711 q 469 585 451 644 q 538 678 494 644 q 633 711 582 711 q 751 660 704 711 q 797 504 797 608 q 797 504 797 504 q 797 504 797 504 l 797 0 l 679 0 l 679 494 q 679 494 679 494 q 679 494 679 494 q 656 581 679 556 q 597 607 632 607 q 533 589 557 607 q 497 538 508 571 q 486 460 486 506 l 486 0 l 371 0 l 371 494 q 371 494 371 494 q 371 494 371 494 q 348 581 371 554 q 289 607 325 607 q 226 588 250 607 q 191 537 201 569 q 181 460 181 504 l 181 0 l 63 0 l 63 694 l 174 694 l 174 588 z "},"n":{"ha":861,"x_min":143,"x_max":718,"o":"m 143 694 l 254 694 l 254 557 q 342 669 283 626 q 483 711 400 711 q 574 697 531 711 q 651 651 618 683 q 702 566 686 619 q 718 429 718 513 q 718 429 718 429 q 718 429 718 429 l 718 0 l 600 0 l 600 422 q 600 422 600 422 q 600 422 600 422 q 559 566 600 525 q 456 607 518 607 q 340 569 383 607 q 278 476 296 531 q 261 363 261 421 l 261 0 l 143 0 l 143 694 z "},"o":{"ha":861,"x_min":107,"x_max":754,"o":"m 431 -17 q 261 28 335 -17 q 147 156 188 74 q 107 347 107 239 q 147 539 107 457 q 261 666 188 621 q 431 711 335 711 q 600 666 526 711 q 714 539 674 621 q 754 347 754 457 q 714 156 754 238 q 600 28 674 74 q 431 -17 526 -17 m 431 86 q 538 117 493 86 q 606 207 582 149 q 629 347 629 265 q 606 487 629 428 q 538 577 582 546 q 431 608 493 608 q 324 577 368 608 q 256 488 279 546 q 232 347 232 429 q 256 207 232 265 q 324 117 279 149 q 431 86 368 86 z "},"p":{"ha":861,"x_min":156,"x_max":774,"o":"m 156 694 l 267 694 l 267 565 q 355 669 296 626 q 485 711 414 711 q 639 665 574 711 q 739 537 704 619 q 774 349 774 454 q 738 158 774 240 q 635 29 703 75 q 478 -17 568 -17 q 355 19 413 -17 q 274 110 297 54 l 274 -271 l 156 -271 l 156 694 m 458 88 q 561 119 518 88 q 626 210 604 151 q 649 349 649 269 q 601 537 649 467 q 463 607 553 607 q 361 578 404 607 q 294 494 318 549 q 271 365 271 439 l 271 332 q 271 332 271 332 q 271 332 271 332 q 294 203 271 258 q 359 118 317 149 q 458 88 401 88 z "},"q":{"ha":861,"x_min":88,"x_max":706,"o":"m 371 -17 q 221 29 285 -17 q 122 158 157 75 q 88 349 88 240 q 124 536 88 454 q 229 665 161 618 q 388 711 297 711 q 507 676 451 711 q 589 592 563 642 l 613 694 l 706 694 l 706 -271 l 588 -271 l 588 119 q 501 21 558 58 q 371 -17 443 -17 m 392 88 q 498 117 453 88 q 567 201 543 147 q 590 328 590 256 l 590 367 q 590 367 590 367 q 590 367 590 367 q 566 494 590 439 q 498 578 542 549 q 396 607 454 607 q 297 575 339 607 q 234 485 256 543 q 213 349 213 426 q 262 159 213 231 q 392 88 311 88 z "},"r":{"ha":861,"x_min":194,"x_max":742,"o":"m 311 514 q 380 615 335 569 q 486 685 425 660 q 617 711 547 711 q 686 708 653 711 q 742 697 719 704 l 742 588 q 683 597 719 593 q 613 601 647 601 q 460 562 528 601 q 352 445 392 522 q 313 258 313 368 l 313 0 l 194 0 l 194 694 l 311 694 l 311 514 z "},"s":{"ha":861,"x_min":147,"x_max":713,"o":"m 446 -17 q 244 39 322 -17 q 147 197 165 94 l 267 218 q 326 117 279 153 q 450 81 374 81 q 556 110 518 81 q 594 186 594 140 q 569 253 594 231 q 494 283 544 275 l 358 308 q 222 374 269 325 q 174 503 174 424 q 206 610 174 563 q 297 684 238 657 q 438 711 357 711 q 628 661 554 711 q 713 524 703 611 l 596 497 q 542 583 583 551 q 432 615 500 615 q 327 588 365 615 q 289 508 289 560 q 316 443 289 467 q 396 410 343 419 l 531 385 q 667 320 624 367 q 711 196 711 274 q 680 85 711 133 q 589 10 649 38 q 446 -17 529 -17 z "},"t":{"ha":861,"x_min":122,"x_max":710,"o":"m 122 694 l 321 694 l 321 876 l 439 926 l 439 694 l 710 694 l 710 597 l 439 597 l 439 253 q 472 140 439 178 q 572 101 506 101 q 710 114 646 101 l 710 6 q 647 -8 678 -3 q 574 -12 615 -12 q 383 47 446 -12 q 321 222 321 107 l 321 597 l 122 597 l 122 694 z "},"u":{"ha":861,"x_min":140,"x_max":704,"o":"m 382 -17 q 285 -2 331 -17 q 204 44 239 13 q 156 129 171 76 q 140 265 140 182 l 140 694 l 261 694 l 261 269 q 301 125 261 165 q 406 85 342 85 q 514 123 474 85 q 570 217 554 161 q 586 332 586 272 l 586 694 l 704 694 l 704 0 l 593 0 l 593 132 q 513 29 571 75 q 382 -17 454 -17 z "},"v":{"ha":861,"x_min":88,"x_max":772,"o":"m 88 694 l 211 694 l 393 219 q 428 121 417 163 l 433 121 q 464 219 446 176 l 651 694 l 772 694 l 493 0 l 365 0 l 88 694 z "},"w":{"ha":861,"x_min":39,"x_max":821,"o":"m 39 694 l 163 694 l 233 218 q 247 119 240 169 l 257 119 q 279 236 268 178 l 369 694 l 490 694 l 581 236 q 603 119 592 178 l 613 119 q 626 218 619 169 l 697 694 l 821 694 l 686 0 l 538 0 l 447 449 q 435 563 438 494 l 425 563 q 420 503 424 538 q 413 449 417 468 l 322 0 l 174 0 l 39 694 z "},"x":{"ha":861,"x_min":107,"x_max":753,"o":"m 247 0 l 107 0 l 358 358 l 125 694 l 264 694 l 432 435 l 590 694 l 735 694 l 506 350 l 753 0 l 613 0 l 429 276 l 247 0 z "},"y":{"ha":861,"x_min":113,"x_max":761,"o":"m 442 138 l 635 694 l 761 694 l 483 -44 q 413 -183 451 -132 q 327 -258 375 -235 q 219 -281 279 -281 q 156 -275 185 -281 l 156 -171 q 206 -174 192 -174 q 277 -160 247 -174 q 328 -119 307 -147 q 365 -43 349 -90 l 383 8 l 113 694 l 246 694 l 442 138 z "},"z":{"ha":861,"x_min":142,"x_max":711,"o":"m 549 594 l 156 594 l 156 694 l 690 694 l 690 607 l 288 101 l 711 101 l 711 0 l 142 0 l 142 90 l 549 594 z "},"á":{"ha":861,"x_min":114,"x_max":717,"o":"m 347 -17 q 179 40 244 -17 q 114 188 114 97 q 138 283 114 242 q 211 351 163 324 q 447 408 278 388 l 574 424 l 574 424 q 574 436 574 431 q 538 572 574 529 q 425 614 503 614 q 309 578 351 614 q 263 476 267 542 l 136 476 q 179 603 142 550 q 281 683 217 656 q 433 711 346 711 q 633 639 574 711 q 693 422 693 567 q 693 422 693 422 q 693 422 693 422 l 693 235 q 699 95 693 151 q 717 0 704 39 l 593 0 q 588 47 590 17 q 582 126 585 74 q 490 18 547 53 q 347 -17 432 -17 m 369 81 q 478 108 432 81 q 550 185 525 135 q 575 303 575 235 l 575 338 l 410 315 q 279 274 319 303 q 239 194 239 246 q 274 111 239 142 q 369 81 308 81 m 497 1000 l 644 1000 l 482 801 l 378 801 l 497 1000 z "},"ă":{"ha":861,"x_min":114,"x_max":717,"o":"m 347 -17 q 179 40 244 -17 q 114 188 114 97 q 138 283 114 242 q 211 351 163 324 q 447 408 278 388 l 574 424 l 574 424 q 574 436 574 431 q 538 572 574 529 q 425 614 503 614 q 309 578 351 614 q 263 476 267 542 l 136 476 q 179 603 142 550 q 281 683 217 656 q 433 711 346 711 q 633 639 574 711 q 693 422 693 567 q 693 422 693 422 q 693 422 693 422 l 693 235 q 699 95 693 151 q 717 0 704 39 l 593 0 q 588 47 590 17 q 582 126 585 74 q 490 18 547 53 q 347 -17 432 -17 m 369 81 q 478 108 432 81 q 550 185 525 135 q 575 303 575 235 l 575 338 l 410 315 q 279 274 319 303 q 239 194 239 246 q 274 111 239 142 q 369 81 308 81 m 431 794 q 285 846 344 794 q 219 1000 225 897 l 319 1000 q 353 913 322 947 q 431 879 385 879 q 508 913 476 879 q 542 1000 539 947 l 642 1000 q 576 846 636 897 q 431 794 517 794 z "},"â":{"ha":861,"x_min":114,"x_max":717,"o":"m 347 -17 q 179 40 244 -17 q 114 188 114 97 q 138 283 114 242 q 211 351 163 324 q 447 408 278 388 l 574 424 l 574 424 q 574 436 574 431 q 538 572 574 529 q 425 614 503 614 q 309 578 351 614 q 263 476 267 542 l 136 476 q 179 603 142 550 q 281 683 217 656 q 433 711 346 711 q 633 639 574 711 q 693 422 693 567 q 693 422 693 422 q 693 422 693 422 l 693 235 q 699 95 693 151 q 717 0 704 39 l 593 0 q 588 47 590 17 q 582 126 585 74 q 490 18 547 53 q 347 -17 432 -17 m 369 81 q 478 108 432 81 q 550 185 525 135 q 575 303 575 235 l 575 338 l 410 315 q 279 274 319 303 q 239 194 239 246 q 274 111 239 142 q 369 81 308 81 m 365 1000 l 496 1000 l 639 801 l 522 801 l 431 931 l 339 801 l 222 801 l 365 1000 z "},"ä":{"ha":861,"x_min":114,"x_max":717,"o":"m 347 -17 q 179 40 244 -17 q 114 188 114 97 q 138 283 114 242 q 211 351 163 324 q 447 408 278 388 l 574 424 l 574 424 q 574 436 574 431 q 538 572 574 529 q 425 614 503 614 q 309 578 351 614 q 263 476 267 542 l 136 476 q 179 603 142 550 q 281 683 217 656 q 433 711 346 711 q 633 639 574 711 q 693 422 693 567 q 693 422 693 422 q 693 422 693 422 l 693 235 q 699 95 693 151 q 717 0 704 39 l 593 0 q 588 47 590 17 q 582 126 585 74 q 490 18 547 53 q 347 -17 432 -17 m 369 81 q 478 108 432 81 q 550 185 525 135 q 575 303 575 235 l 575 338 l 410 315 q 279 274 319 303 q 239 194 239 246 q 274 111 239 142 q 369 81 308 81 m 488 1000 l 653 1000 l 653 833 l 488 833 l 488 1000 m 208 1000 l 374 1000 l 374 833 l 208 833 l 208 1000 z "},"æ":{"ha":861,"x_min":35,"x_max":826,"o":"m 231 -15 q 90 36 144 -15 q 35 178 35 88 q 83 320 35 271 q 240 389 131 369 l 372 413 l 372 413 q 372 492 372 453 q 347 588 372 556 q 268 621 322 621 q 191 588 219 621 q 163 493 163 556 l 163 464 l 46 464 l 46 468 q 76 605 46 550 q 156 685 106 660 q 268 711 206 711 q 431 651 379 711 q 482 472 482 592 q 482 472 482 472 q 482 472 482 472 l 482 196 l 439 156 q 406 72 435 111 q 331 9 378 33 q 231 -15 285 -15 m 254 74 q 338 111 301 74 q 374 208 374 149 l 374 336 l 282 318 q 185 278 217 306 q 153 192 153 251 q 181 103 153 133 q 254 74 208 74 m 597 -17 q 481 13 532 -17 q 402 97 431 43 q 374 219 374 150 q 374 219 374 219 q 374 219 374 219 l 374 447 q 431 640 374 568 q 599 711 489 711 q 763 642 703 711 q 824 447 824 574 q 824 447 824 447 q 824 447 824 447 l 824 332 l 446 332 l 446 411 l 706 411 l 706 460 q 706 460 706 460 q 706 460 706 460 q 676 578 706 542 q 597 614 647 614 q 516 576 544 614 q 488 458 488 538 l 488 231 q 488 231 488 231 q 488 231 488 231 q 517 121 488 158 q 599 83 547 83 q 681 122 650 83 q 713 226 713 161 l 713 249 l 826 226 l 826 222 q 765 49 826 115 q 597 -17 703 -17 z "},"ǽ":{"ha":861,"x_min":35,"x_max":826,"o":"m 231 -15 q 90 36 144 -15 q 35 178 35 88 q 83 320 35 271 q 240 389 131 369 l 372 413 l 372 413 q 372 492 372 453 q 347 588 372 556 q 268 621 322 621 q 191 588 219 621 q 163 493 163 556 l 163 464 l 46 464 l 46 468 q 76 605 46 550 q 156 685 106 660 q 268 711 206 711 q 431 651 379 711 q 482 472 482 592 q 482 472 482 472 q 482 472 482 472 l 482 196 l 439 156 q 406 72 435 111 q 331 9 378 33 q 231 -15 285 -15 m 254 74 q 338 111 301 74 q 374 208 374 149 l 374 336 l 282 318 q 185 278 217 306 q 153 192 153 251 q 181 103 153 133 q 254 74 208 74 m 597 -17 q 481 13 532 -17 q 402 97 431 43 q 374 219 374 150 q 374 219 374 219 q 374 219 374 219 l 374 447 q 431 640 374 568 q 599 711 489 711 q 763 642 703 711 q 824 447 824 574 q 824 447 824 447 q 824 447 824 447 l 824 332 l 446 332 l 446 411 l 706 411 l 706 460 q 706 460 706 460 q 706 460 706 460 q 676 578 706 542 q 597 614 647 614 q 516 576 544 614 q 488 458 488 538 l 488 231 q 488 231 488 231 q 488 231 488 231 q 517 121 488 158 q 599 83 547 83 q 681 122 650 83 q 713 226 713 161 l 713 249 l 826 226 l 826 222 q 765 49 826 115 q 597 -17 703 -17 m 497 1000 l 644 1000 l 482 801 l 378 801 l 497 1000 z "},"à":{"ha":861,"x_min":114,"x_max":717,"o":"m 347 -17 q 179 40 244 -17 q 114 188 114 97 q 138 283 114 242 q 211 351 163 324 q 447 408 278 388 l 574 424 l 574 424 q 574 436 574 431 q 538 572 574 529 q 425 614 503 614 q 309 578 351 614 q 263 476 267 542 l 136 476 q 179 603 142 550 q 281 683 217 656 q 433 711 346 711 q 633 639 574 711 q 693 422 693 567 q 693 422 693 422 q 693 422 693 422 l 693 235 q 699 95 693 151 q 717 0 704 39 l 593 0 q 588 47 590 17 q 582 126 585 74 q 490 18 547 53 q 347 -17 432 -17 m 369 81 q 478 108 432 81 q 550 185 525 135 q 575 303 575 235 l 575 338 l 410 315 q 279 274 319 303 q 239 194 239 246 q 274 111 239 142 q 369 81 308 81 m 215 1000 l 363 1000 l 482 801 l 378 801 l 215 1000 z "},"ā":{"ha":861,"x_min":114,"x_max":717,"o":"m 347 -17 q 179 40 244 -17 q 114 188 114 97 q 138 283 114 242 q 211 351 163 324 q 447 408 278 388 l 574 424 l 574 424 q 574 436 574 431 q 538 572 574 529 q 425 614 503 614 q 309 578 351 614 q 263 476 267 542 l 136 476 q 179 603 142 550 q 281 683 217 656 q 433 711 346 711 q 633 639 574 711 q 693 422 693 567 q 693 422 693 422 q 693 422 693 422 l 693 235 q 699 95 693 151 q 717 0 704 39 l 593 0 q 588 47 590 17 q 582 126 585 74 q 490 18 547 53 q 347 -17 432 -17 m 369 81 q 478 108 432 81 q 550 185 525 135 q 575 303 575 235 l 575 338 l 410 315 q 279 274 319 303 q 239 194 239 246 q 274 111 239 142 q 369 81 308 81 m 231 928 l 631 928 l 631 833 l 231 833 l 231 928 z "},"ą":{"ha":861,"x_min":114,"x_max":757,"o":"m 347 -17 q 179 40 244 -17 q 114 188 114 97 q 138 283 114 242 q 211 351 163 324 q 447 408 278 388 l 574 424 l 574 424 q 574 436 574 431 q 538 572 574 529 q 425 614 503 614 q 309 578 351 614 q 263 476 267 542 l 136 476 q 179 603 142 550 q 281 683 217 656 q 433 711 346 711 q 633 639 574 711 q 693 422 693 567 q 693 422 693 422 q 693 422 693 422 l 693 235 q 699 95 693 151 q 717 0 704 39 l 593 0 q 588 47 590 17 q 582 126 585 74 q 490 18 547 53 q 347 -17 432 -17 m 369 81 q 478 108 432 81 q 550 185 525 135 q 575 303 575 235 l 575 338 l 410 315 q 279 274 319 303 q 239 194 239 246 q 274 111 239 142 q 369 81 308 81 m 757 -176 q 703 -255 744 -228 q 610 -282 663 -282 q 510 -249 550 -282 q 469 -158 469 -217 q 500 -69 469 -112 q 597 6 531 -25 l 707 0 q 621 -34 654 -8 q 573 -90 588 -60 q 558 -146 558 -121 q 573 -194 558 -175 q 614 -212 588 -212 q 656 -194 639 -212 q 682 -149 672 -176 l 757 -176 z "},"å":{"ha":861,"x_min":114,"x_max":717,"o":"m 347 -17 q 179 40 244 -17 q 114 188 114 97 q 138 283 114 242 q 211 351 163 324 q 447 408 278 388 l 574 424 l 574 424 q 574 436 574 431 q 538 572 574 529 q 425 614 503 614 q 309 578 351 614 q 263 476 267 542 l 136 476 q 179 603 142 550 q 281 683 217 656 q 433 711 346 711 q 633 639 574 711 q 693 422 693 567 q 693 422 693 422 q 693 422 693 422 l 693 235 q 699 95 693 151 q 717 0 704 39 l 593 0 q 588 47 590 17 q 582 126 585 74 q 490 18 547 53 q 347 -17 432 -17 m 369 81 q 478 108 432 81 q 550 185 525 135 q 575 303 575 235 l 575 338 l 410 315 q 279 274 319 303 q 239 194 239 246 q 274 111 239 142 q 369 81 308 81 m 431 765 q 323 806 364 765 q 282 907 282 846 q 323 1008 282 968 q 431 1049 364 1049 q 538 1008 497 1049 q 579 907 579 968 q 538 806 579 846 q 431 765 497 765 m 431 832 q 481 853 463 832 q 500 907 500 875 q 481 960 500 939 q 431 982 463 982 q 380 960 399 982 q 361 907 361 939 q 380 853 361 875 q 431 832 399 832 z "},"ã":{"ha":861,"x_min":114,"x_max":717,"o":"m 347 -17 q 179 40 244 -17 q 114 188 114 97 q 138 283 114 242 q 211 351 163 324 q 447 408 278 388 l 574 424 l 574 424 q 574 436 574 431 q 538 572 574 529 q 425 614 503 614 q 309 578 351 614 q 263 476 267 542 l 136 476 q 179 603 142 550 q 281 683 217 656 q 433 711 346 711 q 633 639 574 711 q 693 422 693 567 q 693 422 693 422 q 693 422 693 422 l 693 235 q 699 95 693 151 q 717 0 704 39 l 593 0 q 588 47 590 17 q 582 126 585 74 q 490 18 547 53 q 347 -17 432 -17 m 369 81 q 478 108 432 81 q 550 185 525 135 q 575 303 575 235 l 575 338 l 410 315 q 279 274 319 303 q 239 194 239 246 q 274 111 239 142 q 369 81 308 81 m 525 821 q 467 833 490 821 q 414 869 443 846 q 372 899 390 889 q 329 910 353 910 q 283 889 301 910 q 257 835 264 868 l 174 850 q 234 969 189 931 q 332 1007 279 1007 q 397 994 371 1007 q 457 956 422 982 q 499 927 482 936 q 535 918 515 918 q 576 938 557 918 q 603 996 594 957 l 685 982 q 622 859 664 897 q 525 821 579 821 z "},"ć":{"ha":861,"x_min":111,"x_max":717,"o":"m 431 -17 q 256 31 328 -17 q 148 163 185 79 q 111 351 111 246 q 147 538 111 457 q 256 665 183 619 q 435 711 329 711 q 628 646 553 711 q 717 463 704 581 l 596 449 q 543 567 586 526 q 426 608 500 608 q 321 576 364 608 q 256 488 278 544 q 233 353 233 431 q 284 159 233 231 q 431 88 335 88 q 548 131 506 88 q 603 254 590 174 l 715 236 q 669 106 704 163 q 574 16 633 49 q 431 -17 514 -17 m 497 1000 l 644 1000 l 482 801 l 378 801 l 497 1000 z "},"č":{"ha":861,"x_min":111,"x_max":717,"o":"m 431 -17 q 256 31 328 -17 q 148 163 185 79 q 111 351 111 246 q 147 538 111 457 q 256 665 183 619 q 435 711 329 711 q 628 646 553 711 q 717 463 704 581 l 596 449 q 543 567 586 526 q 426 608 500 608 q 321 576 364 608 q 256 488 278 544 q 233 353 233 431 q 284 159 233 231 q 431 88 335 88 q 548 131 506 88 q 603 254 590 174 l 715 236 q 669 106 704 163 q 574 16 633 49 q 431 -17 514 -17 z "},"ç":{"ha":861,"x_min":111,"x_max":717,"o":"m 431 -17 q 256 31 328 -17 q 148 163 185 79 q 111 351 111 246 q 147 538 111 457 q 256 665 183 619 q 435 711 329 711 q 628 646 553 711 q 717 463 704 581 l 596 449 q 543 567 586 526 q 426 608 500 608 q 321 576 364 608 q 256 488 278 544 q 233 353 233 431 q 284 159 233 231 q 431 88 335 88 q 548 131 506 88 q 603 254 590 174 l 715 236 q 669 106 704 163 q 574 16 633 49 q 431 -17 514 -17 m 472 10 l 424 -68 q 449 -56 432 -60 q 483 -51 467 -51 q 558 -78 529 -51 q 586 -150 586 -106 q 542 -241 586 -206 q 436 -276 497 -276 q 359 -260 396 -276 q 300 -201 322 -244 l 379 -175 q 403 -204 389 -194 q 438 -214 418 -214 q 480 -199 463 -214 q 497 -157 497 -183 q 481 -115 497 -129 q 442 -100 464 -100 q 414 -105 425 -100 q 393 -121 403 -110 l 339 -104 l 399 10 l 472 10 z "},"ĉ":{"ha":861,"x_min":111,"x_max":717,"o":"m 431 -17 q 256 31 328 -17 q 148 163 185 79 q 111 351 111 246 q 147 538 111 457 q 256 665 183 619 q 435 711 329 711 q 628 646 553 711 q 717 463 704 581 l 596 449 q 543 567 586 526 q 426 608 500 608 q 321 576 364 608 q 256 488 278 544 q 233 353 233 431 q 284 159 233 231 q 431 88 335 88 q 548 131 506 88 q 603 254 590 174 l 715 236 q 669 106 704 163 q 574 16 633 49 q 431 -17 514 -17 m 365 1000 l 496 1000 l 639 801 l 522 801 l 431 931 l 339 801 l 222 801 l 365 1000 z "},"ċ":{"ha":861,"x_min":111,"x_max":717,"o":"m 431 -17 q 256 31 328 -17 q 148 163 185 79 q 111 351 111 246 q 147 538 111 457 q 256 665 183 619 q 435 711 329 711 q 628 646 553 711 q 717 463 704 581 l 596 449 q 543 567 586 526 q 426 608 500 608 q 321 576 364 608 q 256 488 278 544 q 233 353 233 431 q 284 159 233 231 q 431 88 335 88 q 548 131 506 88 q 603 254 590 174 l 715 236 q 669 106 704 163 q 574 16 633 49 q 431 -17 514 -17 m 347 1000 l 514 1000 l 514 833 l 347 833 l 347 1000 z "},"ď":{"ha":861,"x_min":40,"x_max":865,"o":"m 306 -14 q 166 31 226 -14 q 73 159 106 76 q 40 351 40 242 q 76 542 40 460 q 175 669 111 624 q 324 714 239 714 q 438 681 389 714 q 513 594 486 649 l 513 1010 l 631 1010 l 631 3 l 519 3 l 519 132 q 436 24 488 61 q 306 -14 385 -14 m 331 90 q 429 120 388 90 q 493 205 471 150 q 515 335 515 260 l 515 367 q 493 495 515 440 q 431 580 471 550 q 335 610 390 610 q 244 579 282 610 q 185 490 206 549 q 165 351 165 432 q 210 160 165 231 q 331 90 254 90 m 750 1010 l 865 1010 l 771 778 l 700 778 l 750 1010 z "},"đ":{"ha":861,"x_min":81,"x_max":875,"o":"m 367 -17 q 216 28 281 -17 q 116 156 151 74 q 81 349 81 239 q 118 539 81 457 q 225 666 156 621 q 385 711 294 711 q 503 678 453 711 q 581 592 553 646 l 581 1007 l 699 1007 l 699 0 l 588 0 l 588 129 q 501 21 554 58 q 367 -17 449 -17 m 392 88 q 493 117 450 88 q 560 202 536 147 q 583 332 583 257 l 583 364 q 560 492 583 438 q 495 577 538 547 q 396 607 453 607 q 294 576 336 607 q 228 488 251 546 q 206 349 206 429 q 256 158 206 228 q 392 88 306 88 m 290 875 l 875 875 l 875 804 l 290 804 l 290 875 z "},"é":{"ha":861,"x_min":111,"x_max":722,"o":"m 436 -17 q 194 85 276 -17 q 111 361 111 186 q 150 546 111 467 q 260 668 189 625 q 428 711 332 711 q 651 617 579 711 q 722 369 722 522 q 719 317 722 353 l 189 317 l 189 414 l 600 414 q 600 414 600 414 q 600 414 600 414 q 557 561 603 503 q 422 619 511 619 q 319 590 363 619 q 254 514 276 561 q 232 414 232 467 l 232 317 q 287 152 232 217 q 436 88 342 88 q 545 122 500 88 q 619 211 590 156 l 719 158 q 604 27 675 71 q 436 -17 533 -17 m 497 1000 l 644 1000 l 482 801 l 378 801 l 497 1000 z "},"ĕ":{"ha":861,"x_min":111,"x_max":722,"o":"m 436 -17 q 194 85 276 -17 q 111 361 111 186 q 150 546 111 467 q 260 668 189 625 q 428 711 332 711 q 651 617 579 711 q 722 369 722 522 q 719 317 722 353 l 189 317 l 189 414 l 600 414 q 600 414 600 414 q 600 414 600 414 q 557 561 603 503 q 422 619 511 619 q 319 590 363 619 q 254 514 276 561 q 232 414 232 467 l 232 317 q 287 152 232 217 q 436 88 342 88 q 545 122 500 88 q 619 211 590 156 l 719 158 q 604 27 675 71 q 436 -17 533 -17 m 431 794 q 285 846 344 794 q 219 1000 225 897 l 319 1000 q 353 913 322 947 q 431 879 385 879 q 508 913 476 879 q 542 1000 539 947 l 642 1000 q 576 846 636 897 q 431 794 517 794 z "},"ě":{"ha":861,"x_min":111,"x_max":722,"o":"m 436 -17 q 194 85 276 -17 q 111 361 111 186 q 150 546 111 467 q 260 668 189 625 q 428 711 332 711 q 651 617 579 711 q 722 369 722 522 q 719 317 722 353 l 189 317 l 189 414 l 600 414 q 600 414 600 414 q 600 414 600 414 q 557 561 603 503 q 422 619 511 619 q 319 590 363 619 q 254 514 276 561 q 232 414 232 467 l 232 317 q 287 152 232 217 q 436 88 342 88 q 545 122 500 88 q 619 211 590 156 l 719 158 q 604 27 675 71 q 436 -17 533 -17 z "},"ê":{"ha":861,"x_min":111,"x_max":722,"o":"m 436 -17 q 194 85 276 -17 q 111 361 111 186 q 150 546 111 467 q 260 668 189 625 q 428 711 332 711 q 651 617 579 711 q 722 369 722 522 q 719 317 722 353 l 189 317 l 189 414 l 600 414 q 600 414 600 414 q 600 414 600 414 q 557 561 603 503 q 422 619 511 619 q 319 590 363 619 q 254 514 276 561 q 232 414 232 467 l 232 317 q 287 152 232 217 q 436 88 342 88 q 545 122 500 88 q 619 211 590 156 l 719 158 q 604 27 675 71 q 436 -17 533 -17 m 365 1000 l 496 1000 l 639 801 l 522 801 l 431 931 l 339 801 l 222 801 l 365 1000 z "},"ë":{"ha":861,"x_min":111,"x_max":722,"o":"m 436 -17 q 194 85 276 -17 q 111 361 111 186 q 150 546 111 467 q 260 668 189 625 q 428 711 332 711 q 651 617 579 711 q 722 369 722 522 q 719 317 722 353 l 189 317 l 189 414 l 600 414 q 600 414 600 414 q 600 414 600 414 q 557 561 603 503 q 422 619 511 619 q 319 590 363 619 q 254 514 276 561 q 232 414 232 467 l 232 317 q 287 152 232 217 q 436 88 342 88 q 545 122 500 88 q 619 211 590 156 l 719 158 q 604 27 675 71 q 436 -17 533 -17 m 488 1000 l 653 1000 l 653 833 l 488 833 l 488 1000 m 208 1000 l 374 1000 l 374 833 l 208 833 l 208 1000 z "},"ė":{"ha":861,"x_min":111,"x_max":722,"o":"m 436 -17 q 194 85 276 -17 q 111 361 111 186 q 150 546 111 467 q 260 668 189 625 q 428 711 332 711 q 651 617 579 711 q 722 369 722 522 q 719 317 722 353 l 189 317 l 189 414 l 600 414 q 600 414 600 414 q 600 414 600 414 q 557 561 603 503 q 422 619 511 619 q 319 590 363 619 q 254 514 276 561 q 232 414 232 467 l 232 317 q 287 152 232 217 q 436 88 342 88 q 545 122 500 88 q 619 211 590 156 l 719 158 q 604 27 675 71 q 436 -17 533 -17 m 347 1000 l 514 1000 l 514 833 l 347 833 l 347 1000 z "},"è":{"ha":861,"x_min":111,"x_max":722,"o":"m 436 -17 q 194 85 276 -17 q 111 361 111 186 q 150 546 111 467 q 260 668 189 625 q 428 711 332 711 q 651 617 579 711 q 722 369 722 522 q 719 317 722 353 l 189 317 l 189 414 l 600 414 q 600 414 600 414 q 600 414 600 414 q 557 561 603 503 q 422 619 511 619 q 319 590 363 619 q 254 514 276 561 q 232 414 232 467 l 232 317 q 287 152 232 217 q 436 88 342 88 q 545 122 500 88 q 619 211 590 156 l 719 158 q 604 27 675 71 q 436 -17 533 -17 m 215 1000 l 363 1000 l 482 801 l 378 801 l 215 1000 z "},"ē":{"ha":861,"x_min":111,"x_max":722,"o":"m 436 -17 q 194 85 276 -17 q 111 361 111 186 q 150 546 111 467 q 260 668 189 625 q 428 711 332 711 q 651 617 579 711 q 722 369 722 522 q 719 317 722 353 l 189 317 l 189 414 l 600 414 q 600 414 600 414 q 600 414 600 414 q 557 561 603 503 q 422 619 511 619 q 319 590 363 619 q 254 514 276 561 q 232 414 232 467 l 232 317 q 287 152 232 217 q 436 88 342 88 q 545 122 500 88 q 619 211 590 156 l 719 158 q 604 27 675 71 q 436 -17 533 -17 m 231 928 l 631 928 l 631 833 l 231 833 l 231 928 z "},"ę":{"ha":861,"x_min":111,"x_max":722,"o":"m 524 -144 q 539 -194 524 -175 q 579 -212 554 -212 q 621 -194 604 -212 q 647 -149 638 -176 l 722 -176 q 667 -255 708 -228 q 567 -282 626 -282 q 474 -249 513 -282 q 435 -156 435 -217 q 470 -54 435 -106 q 596 58 506 -3 l 646 58 q 552 -53 581 -1 q 524 -144 524 -104 m 436 -17 q 194 85 276 -17 q 111 361 111 186 q 150 546 111 467 q 260 668 189 625 q 428 711 332 711 q 651 617 579 711 q 722 369 722 522 q 719 317 722 353 l 189 317 l 189 414 l 600 414 q 600 414 600 414 q 600 414 600 414 q 557 561 603 503 q 422 619 511 619 q 319 590 363 619 q 254 514 276 561 q 232 414 232 467 l 232 317 q 287 152 232 217 q 436 88 342 88 q 545 122 500 88 q 619 211 590 156 l 719 158 q 604 27 675 71 q 436 -17 533 -17 z "},"ğ":{"ha":861,"x_min":110,"x_max":778,"o":"m 425 -287 q 194 -240 278 -287 q 110 -111 110 -193 q 160 5 110 -40 q 296 60 211 50 l 343 42 q 258 -1 290 31 q 226 -78 226 -33 q 278 -162 226 -133 q 438 -190 331 -190 q 599 -160 547 -190 q 650 -72 650 -131 q 616 0 650 -25 q 515 25 582 25 l 358 25 q 199 62 254 25 q 143 168 143 99 q 160 238 143 207 q 210 288 178 268 q 288 315 243 308 l 354 282 q 278 258 308 279 q 247 199 247 236 q 276 147 247 165 q 363 129 304 129 l 542 129 q 709 79 650 129 q 768 -60 768 29 q 678 -228 768 -168 q 425 -287 588 -287 m 425 240 q 243 303 313 240 q 174 471 174 367 q 206 596 174 542 q 297 681 239 650 q 432 711 356 711 q 616 647 546 711 q 686 478 686 582 q 653 354 686 408 q 561 270 621 300 q 425 240 501 240 m 426 331 q 533 372 490 331 q 575 478 575 414 q 535 581 575 540 q 431 621 494 621 q 326 580 367 621 q 285 474 285 539 q 324 370 285 410 q 426 331 364 331 m 565 679 q 626 775 583 742 q 733 808 669 808 q 778 803 761 808 l 778 700 q 726 706 747 706 q 663 689 688 706 q 622 636 638 672 l 565 679 m 431 794 q 285 846 344 794 q 219 1000 225 897 l 319 1000 q 353 913 322 947 q 431 879 385 879 q 508 913 476 879 q 542 1000 539 947 l 642 1000 q 576 846 636 897 q 431 794 517 794 z "},"ĝ":{"ha":861,"x_min":110,"x_max":778,"o":"m 518 829 l 431 938 l 343 829 l 222 829 l 365 1000 l 496 1000 l 639 829 l 518 829 m 425 -287 q 194 -240 278 -287 q 110 -111 110 -193 q 160 5 110 -40 q 296 60 211 50 l 343 42 q 258 -1 290 31 q 226 -78 226 -33 q 278 -162 226 -133 q 438 -190 331 -190 q 599 -160 547 -190 q 650 -72 650 -131 q 616 0 650 -25 q 515 25 582 25 l 358 25 q 199 62 254 25 q 143 168 143 99 q 160 238 143 207 q 210 288 178 268 q 288 315 243 308 l 354 282 q 278 258 308 279 q 247 199 247 236 q 276 147 247 165 q 363 129 304 129 l 542 129 q 709 79 650 129 q 768 -60 768 29 q 678 -228 768 -168 q 425 -287 588 -287 m 425 240 q 243 303 313 240 q 174 471 174 367 q 206 596 174 542 q 297 681 239 650 q 432 711 356 711 q 616 647 546 711 q 686 478 686 582 q 653 354 686 408 q 561 270 621 300 q 425 240 501 240 m 426 331 q 533 372 490 331 q 575 478 575 414 q 535 581 575 540 q 431 621 494 621 q 326 580 367 621 q 285 474 285 539 q 324 370 285 410 q 426 331 364 331 m 565 679 q 626 775 583 742 q 733 808 669 808 q 778 803 761 808 l 778 700 q 726 706 747 706 q 663 689 688 706 q 622 636 638 672 l 565 679 z "},"ģ":{"ha":861,"x_min":110,"x_max":778,"o":"m 425 -287 q 194 -240 278 -287 q 110 -111 110 -193 q 160 5 110 -40 q 296 60 211 50 l 343 42 q 258 -1 290 31 q 226 -78 226 -33 q 278 -162 226 -133 q 438 -190 331 -190 q 599 -160 547 -190 q 650 -72 650 -131 q 616 0 650 -25 q 515 25 582 25 l 358 25 q 199 62 254 25 q 143 168 143 99 q 160 238 143 207 q 210 288 178 268 q 288 315 243 308 l 354 282 q 278 258 308 279 q 247 199 247 236 q 276 147 247 165 q 363 129 304 129 l 542 129 q 709 79 650 129 q 768 -60 768 29 q 678 -228 768 -168 q 425 -287 588 -287 m 425 240 q 243 303 313 240 q 174 471 174 367 q 206 596 174 542 q 297 681 239 650 q 432 711 356 711 q 616 647 546 711 q 686 478 686 582 q 653 354 686 408 q 561 270 621 300 q 425 240 501 240 m 426 331 q 533 372 490 331 q 575 478 575 414 q 535 581 575 540 q 431 621 494 621 q 326 580 367 621 q 285 474 285 539 q 324 370 285 410 q 426 331 364 331 m 565 679 q 626 775 583 742 q 733 808 669 808 q 778 803 761 808 l 778 700 q 726 706 747 706 q 663 689 688 706 q 622 636 638 672 l 565 679 z "},"ġ":{"ha":861,"x_min":110,"x_max":778,"o":"m 425 -287 q 194 -240 278 -287 q 110 -111 110 -193 q 160 5 110 -40 q 296 60 211 50 l 343 42 q 258 -1 290 31 q 226 -78 226 -33 q 278 -162 226 -133 q 438 -190 331 -190 q 599 -160 547 -190 q 650 -72 650 -131 q 616 0 650 -25 q 515 25 582 25 l 358 25 q 199 62 254 25 q 143 168 143 99 q 160 238 143 207 q 210 288 178 268 q 288 315 243 308 l 354 282 q 278 258 308 279 q 247 199 247 236 q 276 147 247 165 q 363 129 304 129 l 542 129 q 709 79 650 129 q 768 -60 768 29 q 678 -228 768 -168 q 425 -287 588 -287 m 425 240 q 243 303 313 240 q 174 471 174 367 q 206 596 174 542 q 297 681 239 650 q 432 711 356 711 q 616 647 546 711 q 686 478 686 582 q 653 354 686 408 q 561 270 621 300 q 425 240 501 240 m 426 331 q 533 372 490 331 q 575 478 575 414 q 535 581 575 540 q 431 621 494 621 q 326 580 367 621 q 285 474 285 539 q 324 370 285 410 q 426 331 364 331 m 565 679 q 626 775 583 742 q 733 808 669 808 q 778 803 761 808 l 778 700 q 726 706 747 706 q 663 689 688 706 q 622 636 638 672 l 565 679 m 347 1000 l 514 1000 l 514 833 l 347 833 l 347 1000 z "},"ħ":{"ha":861,"x_min":-49,"x_max":718,"o":"m 261 568 q 345 672 285 632 q 479 711 406 711 q 571 697 525 711 q 650 650 617 682 q 701 564 685 617 q 718 429 718 511 l 718 0 l 600 0 l 600 422 q 558 567 600 526 q 450 607 515 607 q 338 569 379 607 q 278 475 296 531 q 261 363 261 419 l 261 0 l 143 0 l 143 1007 l 261 1007 l 261 568 m -49 875 l 536 875 l 536 804 l -49 804 l -49 875 z "},"ĥ":{"ha":861,"x_min":-6,"x_max":718,"o":"m 261 568 q 345 672 285 632 q 479 711 406 711 q 571 697 525 711 q 650 650 617 682 q 701 564 685 617 q 718 429 718 511 l 718 0 l 600 0 l 600 422 q 558 567 600 526 q 450 607 515 607 q 338 569 379 607 q 278 475 296 531 q 261 363 261 419 l 261 0 l 143 0 l 143 1007 l 261 1007 l 261 568 z "},"í":{"ha":861,"x_min":174,"x_max":749,"o":"m 174 97 l 396 97 l 396 597 l 194 597 l 194 694 l 514 694 l 514 97 l 749 97 l 749 0 l 174 0 l 174 97 m 510 1000 l 657 1000 l 494 801 l 390 801 l 510 1000 z "},"ĭ":{"ha":861,"x_min":174,"x_max":749,"o":"m 174 97 l 396 97 l 396 597 l 194 597 l 194 694 l 514 694 l 514 97 l 749 97 l 749 0 l 174 0 l 174 97 m 443 794 q 297 846 357 794 q 232 1000 238 897 l 332 1000 q 366 913 335 947 q 443 879 397 879 q 520 913 489 879 q 554 1000 551 947 l 654 1000 q 589 846 649 897 q 443 794 529 794 z "},"î":{"ha":861,"x_min":174,"x_max":749,"o":"m 174 97 l 396 97 l 396 597 l 194 597 l 194 694 l 514 694 l 514 97 l 749 97 l 749 0 l 174 0 l 174 97 m 378 1000 l 508 1000 l 651 801 l 535 801 l 443 931 l 351 801 l 235 801 l 378 1000 z "},"ï":{"ha":861,"x_min":174,"x_max":749,"o":"m 174 97 l 396 97 l 396 597 l 194 597 l 194 694 l 514 694 l 514 97 l 749 97 l 749 0 l 174 0 l 174 97 m 500 1000 l 665 1000 l 665 833 l 500 833 l 500 1000 m 221 1000 l 386 1000 l 386 833 l 221 833 l 221 1000 z "},"ı":{"ha":861,"x_min":174,"x_max":749,"o":"m 174 97 l 396 97 l 396 597 l 194 597 l 194 694 l 514 694 l 514 97 l 749 97 l 749 0 l 174 0 l 174 97 z "},"ì":{"ha":861,"x_min":174,"x_max":749,"o":"m 174 97 l 396 97 l 396 597 l 194 597 l 194 694 l 514 694 l 514 97 l 749 97 l 749 0 l 174 0 l 174 97 m 228 1000 l 375 1000 l 494 801 l 390 801 l 228 1000 z "},"ĳ":{"ha":861,"x_min":154,"x_max":708,"o":"m 457 -281 q 390 -278 418 -281 q 331 -269 363 -276 l 331 -167 q 356 -168 343 -168 q 409 -172 390 -171 q 442 -172 428 -172 q 513 -159 485 -172 q 556 -110 540 -146 q 571 -10 571 -75 l 571 694 l 689 694 l 689 -17 q 665 -155 689 -96 q 590 -247 642 -214 q 457 -281 539 -281 m 179 694 l 297 694 l 297 0 l 179 0 l 179 694 m 154 1007 l 319 1007 l 319 840 l 154 840 l 154 1007 m 543 1007 l 708 1007 l 708 840 l 543 840 l 543 1007 z "},"ī":{"ha":861,"x_min":174,"x_max":749,"o":"m 174 97 l 396 97 l 396 597 l 194 597 l 194 694 l 514 694 l 514 97 l 749 97 l 749 0 l 174 0 l 174 97 m 243 928 l 643 928 l 643 833 l 243 833 l 243 928 z "},"į":{"ha":861,"x_min":174,"x_max":749,"o":"m 174 97 l 396 97 l 396 597 l 194 597 l 194 694 l 514 694 l 514 97 l 749 97 l 749 0 l 174 0 l 174 97 m 360 1000 l 526 1000 l 526 833 l 360 833 l 360 1000 m 729 -176 q 676 -255 717 -228 q 582 -282 635 -282 q 482 -249 522 -282 q 442 -158 442 -217 q 472 -69 442 -112 q 569 6 503 -25 l 679 0 q 593 -34 626 -8 q 545 -90 560 -60 q 531 -146 531 -121 q 545 -194 531 -175 q 586 -212 560 -212 q 628 -194 611 -212 q 654 -149 644 -176 l 729 -176 z "},"ĩ":{"ha":861,"x_min":174,"x_max":749,"o":"m 174 97 l 396 97 l 396 597 l 194 597 l 194 694 l 514 694 l 514 97 l 749 97 l 749 0 l 174 0 l 174 97 m 538 821 q 479 833 503 821 q 426 869 456 846 q 384 899 403 889 q 342 910 365 910 q 295 889 314 910 q 269 835 276 868 l 186 850 q 247 969 201 931 q 344 1007 292 1007 q 409 994 383 1007 q 469 956 435 982 q 511 927 494 936 q 547 918 528 918 q 588 938 569 918 q 615 996 607 957 l 697 982 q 634 859 676 897 q 538 821 592 821 z "},"ĵ":{"ha":861,"x_min":153,"x_max":739,"o":"m 465 999 l 596 999 l 739 800 l 622 800 l 531 929 l 439 800 l 322 800 l 465 999 m 328 -281 q 235 -274 278 -281 q 153 -256 193 -268 l 153 -153 q 237 -168 203 -164 q 313 -172 271 -172 q 433 -134 397 -172 q 469 4 469 -96 l 469 597 l 206 597 l 206 694 l 588 694 l 588 -3 q 528 -206 588 -132 q 328 -281 468 -281 z "},"ȷ":{"ha":861,"x_min":153,"x_max":588,"o":"m 328 -281 q 235 -274 278 -281 q 153 -256 193 -268 l 153 -153 q 237 -168 203 -164 q 313 -172 271 -172 q 433 -134 397 -172 q 469 4 469 -96 l 469 597 l 206 597 l 206 694 l 588 694 l 588 -3 q 528 -206 588 -132 q 328 -281 468 -281 z "},"ķ":{"ha":861,"x_min":165,"x_max":765,"o":"m 765 0 l 619 0 l 360 422 l 446 503 l 765 0 m 443 374 l 196 125 l 199 260 l 594 694 l 749 694 l 443 374 l 443 374 m 165 0 l 165 1007 l 283 1007 l 283 0 l 165 0 m 372 -276 q 426 -244 414 -262 q 438 -189 438 -226 l 367 -189 l 367 -64 l 500 -64 l 500 -175 q 478 -272 500 -235 q 400 -329 457 -308 l 372 -276 z "},"ĸ":{"ha":861,"x_min":163,"x_max":763,"o":"m 163 694 l 281 694 l 281 0 l 163 0 l 163 694 m 746 694 l 443 401 l 443 401 l 193 158 l 193 296 l 589 694 l 746 694 m 357 422 l 443 503 l 763 0 l 617 0 l 357 422 z "},"ĺ":{"ha":861,"x_min":174,"x_max":749,"o":"m 174 97 l 396 97 l 396 910 l 188 910 l 188 1007 l 514 1007 l 514 97 l 749 97 l 749 0 l 174 0 l 174 97 m 497 1228 l 656 1228 l 511 1079 l 400 1079 l 497 1228 z "},"ľ":{"ha":861,"x_min":174,"x_max":783,"o":"m 174 97 l 396 97 l 396 910 l 188 910 l 188 1007 l 514 1007 l 514 97 l 749 97 l 749 0 l 174 0 l 174 97 m 668 1010 l 783 1010 l 689 778 l 618 778 l 668 1010 z "},"ļ":{"ha":861,"x_min":174,"x_max":749,"o":"m 174 97 l 396 97 l 396 910 l 188 910 l 188 1007 l 514 1007 l 514 97 l 749 97 l 749 0 l 174 0 l 174 97 m 397 -276 q 451 -244 439 -262 q 463 -189 463 -226 l 392 -189 l 392 -64 l 525 -64 l 525 -175 q 503 -272 525 -235 q 425 -329 482 -308 l 397 -276 z "},"ŀ":{"ha":861,"x_min":174,"x_max":953,"o":"m 174 97 l 396 97 l 396 910 l 188 910 l 188 1007 l 514 1007 l 514 97 l 749 97 l 749 0 l 174 0 l 174 97 z "},"ł":{"ha":861,"x_min":174,"x_max":749,"o":"m 174 97 l 396 97 l 396 910 l 188 910 l 188 1007 l 514 1007 l 514 97 l 749 97 l 749 0 l 174 0 l 174 97 m 681 757 l 681 657 l 229 360 l 229 460 l 681 757 z "},"ń":{"ha":861,"x_min":143,"x_max":718,"o":"m 143 694 l 254 694 l 254 557 q 342 669 283 626 q 483 711 400 711 q 574 697 531 711 q 651 651 618 683 q 702 566 686 619 q 718 429 718 513 q 718 429 718 429 q 718 429 718 429 l 718 0 l 600 0 l 600 422 q 600 422 600 422 q 600 422 600 422 q 559 566 600 525 q 456 607 518 607 q 340 569 383 607 q 278 476 296 531 q 261 363 261 421 l 261 0 l 143 0 l 143 694 m 497 1000 l 644 1000 l 482 801 l 378 801 l 497 1000 z "},"ŉ":{"ha":1722,"x_min":338,"x_max":1579,"o":"m 1004 694 l 1115 694 l 1115 557 q 1203 669 1144 626 q 1344 711 1261 711 q 1435 697 1392 711 q 1513 651 1479 683 q 1563 566 1547 619 q 1579 429 1579 513 q 1579 429 1579 429 q 1579 429 1579 429 l 1579 0 l 1461 0 l 1461 422 q 1461 422 1461 422 q 1461 422 1461 422 q 1420 566 1461 525 q 1317 607 1379 607 q 1201 569 1244 607 q 1140 476 1157 531 q 1122 363 1122 421 l 1122 0 l 1004 0 l 1004 694 z "},"ň":{"ha":861,"x_min":143,"x_max":718,"o":"m 143 694 l 254 694 l 254 557 q 342 669 283 626 q 483 711 400 711 q 574 697 531 711 q 651 651 618 683 q 702 566 686 619 q 718 429 718 513 q 718 429 718 429 q 718 429 718 429 l 718 0 l 600 0 l 600 422 q 600 422 600 422 q 600 422 600 422 q 559 566 600 525 q 456 607 518 607 q 340 569 383 607 q 278 476 296 531 q 261 363 261 421 l 261 0 l 143 0 l 143 694 z "},"ņ":{"ha":861,"x_min":143,"x_max":718,"o":"m 143 694 l 254 694 l 254 557 q 342 669 283 626 q 483 711 400 711 q 574 697 531 711 q 651 651 618 683 q 702 566 686 619 q 718 429 718 513 q 718 429 718 429 q 718 429 718 429 l 718 0 l 600 0 l 600 422 q 600 422 600 422 q 600 422 600 422 q 559 566 600 525 q 456 607 518 607 q 340 569 383 607 q 278 476 296 531 q 261 363 261 421 l 261 0 l 143 0 l 143 694 m 369 -276 q 423 -244 411 -262 q 435 -189 435 -226 l 364 -189 l 364 -64 l 497 -64 l 497 -175 q 476 -272 497 -235 q 397 -329 454 -308 l 369 -276 z "},"ñ":{"ha":861,"x_min":143,"x_max":718,"o":"m 143 694 l 254 694 l 254 557 q 342 669 283 626 q 483 711 400 711 q 574 697 531 711 q 651 651 618 683 q 702 566 686 619 q 718 429 718 513 q 718 429 718 429 q 718 429 718 429 l 718 0 l 600 0 l 600 422 q 600 422 600 422 q 600 422 600 422 q 559 566 600 525 q 456 607 518 607 q 340 569 383 607 q 278 476 296 531 q 261 363 261 421 l 261 0 l 143 0 l 143 694 m 525 821 q 467 833 490 821 q 414 869 443 846 q 372 899 390 889 q 329 910 353 910 q 283 889 301 910 q 257 835 264 868 l 174 850 q 234 969 189 931 q 332 1007 279 1007 q 397 994 371 1007 q 457 956 422 982 q 499 927 482 936 q 535 918 515 918 q 576 938 557 918 q 603 996 594 957 l 685 982 q 622 859 664 897 q 525 821 579 821 z "},"ŋ":{"ha":861,"x_min":143,"x_max":718,"o":"m 543 -281 q 499 -278 522 -281 q 458 -272 476 -276 l 458 -171 q 517 -174 489 -174 q 583 -146 565 -174 q 600 -51 600 -118 l 600 422 q 600 422 600 422 q 600 422 600 422 q 559 566 600 525 q 456 607 518 607 q 340 569 383 607 q 278 476 296 531 q 261 363 261 421 l 261 0 l 143 0 l 143 694 l 254 694 l 254 557 q 342 669 283 626 q 483 711 400 711 q 574 697 531 711 q 651 651 618 683 q 702 566 686 619 q 718 429 718 513 q 718 429 718 429 q 718 429 718 429 l 718 -33 q 702 -165 718 -111 q 648 -250 686 -219 q 543 -281 610 -281 z "},"ó":{"ha":861,"x_min":107,"x_max":754,"o":"m 431 -17 q 261 28 335 -17 q 147 156 188 74 q 107 347 107 239 q 147 539 107 457 q 261 666 188 621 q 431 711 335 711 q 600 666 526 711 q 714 539 674 621 q 754 347 754 457 q 714 156 754 238 q 600 28 674 74 q 431 -17 526 -17 m 431 86 q 538 117 493 86 q 606 207 582 149 q 629 347 629 265 q 606 487 629 428 q 538 577 582 546 q 431 608 493 608 q 324 577 368 608 q 256 488 279 546 q 232 347 232 429 q 256 207 232 265 q 324 117 279 149 q 431 86 368 86 m 497 1000 l 644 1000 l 482 801 l 378 801 l 497 1000 z "},"ŏ":{"ha":861,"x_min":107,"x_max":754,"o":"m 431 -17 q 261 28 335 -17 q 147 156 188 74 q 107 347 107 239 q 147 539 107 457 q 261 666 188 621 q 431 711 335 711 q 600 666 526 711 q 714 539 674 621 q 754 347 754 457 q 714 156 754 238 q 600 28 674 74 q 431 -17 526 -17 m 431 86 q 538 117 493 86 q 606 207 582 149 q 629 347 629 265 q 606 487 629 428 q 538 577 582 546 q 431 608 493 608 q 324 577 368 608 q 256 488 279 546 q 232 347 232 429 q 256 207 232 265 q 324 117 279 149 q 431 86 368 86 m 431 794 q 285 846 344 794 q 219 1000 225 897 l 319 1000 q 353 913 322 947 q 431 879 385 879 q 508 913 476 879 q 542 1000 539 947 l 642 1000 q 576 846 636 897 q 431 794 517 794 z "},"ô":{"ha":861,"x_min":107,"x_max":754,"o":"m 431 -17 q 261 28 335 -17 q 147 156 188 74 q 107 347 107 239 q 147 539 107 457 q 261 666 188 621 q 431 711 335 711 q 600 666 526 711 q 714 539 674 621 q 754 347 754 457 q 714 156 754 238 q 600 28 674 74 q 431 -17 526 -17 m 431 86 q 538 117 493 86 q 606 207 582 149 q 629 347 629 265 q 606 487 629 428 q 538 577 582 546 q 431 608 493 608 q 324 577 368 608 q 256 488 279 546 q 232 347 232 429 q 256 207 232 265 q 324 117 279 149 q 431 86 368 86 m 365 1000 l 496 1000 l 639 801 l 522 801 l 431 931 l 339 801 l 222 801 l 365 1000 z "},"ö":{"ha":861,"x_min":107,"x_max":754,"o":"m 431 -17 q 261 28 335 -17 q 147 156 188 74 q 107 347 107 239 q 147 539 107 457 q 261 666 188 621 q 431 711 335 711 q 600 666 526 711 q 714 539 674 621 q 754 347 754 457 q 714 156 754 238 q 600 28 674 74 q 431 -17 526 -17 m 431 86 q 538 117 493 86 q 606 207 582 149 q 629 347 629 265 q 606 487 629 428 q 538 577 582 546 q 431 608 493 608 q 324 577 368 608 q 256 488 279 546 q 232 347 232 429 q 256 207 232 265 q 324 117 279 149 q 431 86 368 86 m 488 1000 l 653 1000 l 653 833 l 488 833 l 488 1000 m 208 1000 l 374 1000 l 374 833 l 208 833 l 208 1000 z "},"œ":{"ha":861,"x_min":42,"x_max":819,"o":"m 590 -17 q 474 13 525 -17 q 395 97 424 43 q 367 219 367 150 q 367 219 367 219 q 367 219 367 219 l 367 447 q 392 586 367 526 q 467 678 417 646 q 592 711 518 711 q 756 642 696 711 q 817 447 817 574 q 817 447 817 447 q 817 447 817 447 l 817 332 l 439 332 l 439 411 l 699 411 l 699 460 q 699 460 699 460 q 699 460 699 460 q 669 578 699 542 q 590 614 640 614 q 509 576 538 614 q 481 458 481 538 l 481 231 q 481 231 481 231 q 481 231 481 231 q 510 121 481 158 q 592 83 540 83 q 674 122 643 83 q 706 226 706 161 l 706 249 l 819 226 l 819 208 q 755 44 819 106 q 590 -17 690 -17 m 264 -17 q 102 48 163 -17 q 42 233 42 113 q 42 233 42 233 q 42 233 42 233 l 42 442 q 97 643 42 575 q 264 711 153 711 q 425 643 371 711 q 479 444 479 575 q 479 444 479 444 q 479 444 479 444 l 479 228 q 420 47 479 111 q 264 -17 361 -17 m 264 85 q 341 119 315 85 q 367 236 367 154 l 367 461 q 367 461 367 461 q 367 461 367 461 q 341 575 367 540 q 264 610 315 610 q 187 574 214 610 q 160 457 160 539 l 160 238 q 160 238 160 238 q 160 238 160 238 q 187 120 160 156 q 264 85 214 85 z "},"ò":{"ha":861,"x_min":107,"x_max":754,"o":"m 431 -17 q 261 28 335 -17 q 147 156 188 74 q 107 347 107 239 q 147 539 107 457 q 261 666 188 621 q 431 711 335 711 q 600 666 526 711 q 714 539 674 621 q 754 347 754 457 q 714 156 754 238 q 600 28 674 74 q 431 -17 526 -17 m 431 86 q 538 117 493 86 q 606 207 582 149 q 629 347 629 265 q 606 487 629 428 q 538 577 582 546 q 431 608 493 608 q 324 577 368 608 q 256 488 279 546 q 232 347 232 429 q 256 207 232 265 q 324 117 279 149 q 431 86 368 86 m 215 1000 l 363 1000 l 482 801 l 378 801 l 215 1000 z "},"ő":{"ha":861,"x_min":107,"x_max":754,"o":"m 431 -17 q 261 28 335 -17 q 147 156 188 74 q 107 347 107 239 q 147 539 107 457 q 261 666 188 621 q 431 711 335 711 q 600 666 526 711 q 714 539 674 621 q 754 347 754 457 q 714 156 754 238 q 600 28 674 74 q 431 -17 526 -17 m 431 86 q 538 117 493 86 q 606 207 582 149 q 629 347 629 265 q 606 487 629 428 q 538 577 582 546 q 431 608 493 608 q 324 577 368 608 q 256 488 279 546 q 232 347 232 429 q 256 207 232 265 q 324 117 279 149 q 431 86 368 86 m 604 1000 l 731 1000 l 601 801 l 485 801 l 604 1000 m 379 1000 l 506 1000 l 376 801 l 260 801 l 379 1000 z "},"ō":{"ha":861,"x_min":107,"x_max":754,"o":"m 431 -17 q 261 28 335 -17 q 147 156 188 74 q 107 347 107 239 q 147 539 107 457 q 261 666 188 621 q 431 711 335 711 q 600 666 526 711 q 714 539 674 621 q 754 347 754 457 q 714 156 754 238 q 600 28 674 74 q 431 -17 526 -17 m 431 86 q 538 117 493 86 q 606 207 582 149 q 629 347 629 265 q 606 487 629 428 q 538 577 582 546 q 431 608 493 608 q 324 577 368 608 q 256 488 279 546 q 232 347 232 429 q 256 207 232 265 q 324 117 279 149 q 431 86 368 86 m 231 928 l 631 928 l 631 833 l 231 833 l 231 928 z "},"ª":{"ha":861,"x_min":197,"x_max":664,"o":"m 368 418 q 244 459 292 418 q 197 565 197 500 q 254 674 197 639 q 417 722 311 710 l 542 738 l 542 738 q 517 842 540 811 q 438 874 494 874 q 356 849 385 874 q 325 776 328 824 l 213 776 q 280 904 219 858 q 443 950 340 950 q 599 899 549 950 q 649 742 649 849 q 649 742 649 742 q 649 742 649 742 l 649 593 q 652 497 649 538 q 664 431 656 457 l 557 431 q 553 468 556 450 q 551 492 551 481 q 549 517 550 504 q 478 444 524 469 q 368 418 433 418 m 404 493 q 505 533 467 493 q 543 638 543 574 l 543 676 l 432 663 q 338 633 367 654 q 308 575 308 613 q 334 515 308 538 q 404 493 360 493 z "},"º":{"ha":861,"x_min":181,"x_max":681,"o":"m 431 500 q 505 522 474 500 q 553 585 536 543 q 569 685 569 626 q 533 820 569 772 q 431 868 496 868 q 356 847 388 868 q 308 784 325 825 q 290 685 290 743 q 328 549 290 597 q 431 500 365 500 m 431 418 q 250 490 319 418 q 181 685 181 561 q 213 826 181 767 q 301 918 244 886 q 431 950 357 950 q 611 878 542 950 q 681 685 681 807 q 649 542 681 603 q 560 450 617 482 q 431 418 504 418 z "},"ø":{"ha":861,"x_min":107,"x_max":754,"o":"m 126 24 l 675 714 l 736 671 l 186 -19 l 126 24 m 431 -17 q 261 28 335 -17 q 147 156 188 74 q 107 347 107 239 q 147 539 107 457 q 261 666 188 621 q 431 711 335 711 q 600 666 526 711 q 714 539 674 621 q 754 347 754 457 q 714 156 754 238 q 600 28 674 74 q 431 -17 526 -17 m 431 86 q 538 117 493 86 q 606 207 582 149 q 629 347 629 265 q 606 487 629 428 q 538 577 582 546 q 431 608 493 608 q 324 577 368 608 q 256 488 279 546 q 232 347 232 429 q 256 207 232 265 q 324 117 279 149 q 431 86 368 86 z "},"ǿ":{"ha":861,"x_min":107,"x_max":754,"o":"m 126 24 l 675 714 l 736 671 l 186 -19 l 126 24 m 431 -17 q 261 28 335 -17 q 147 156 188 74 q 107 347 107 239 q 147 539 107 457 q 261 666 188 621 q 431 711 335 711 q 600 666 526 711 q 714 539 674 621 q 754 347 754 457 q 714 156 754 238 q 600 28 674 74 q 431 -17 526 -17 m 431 86 q 538 117 493 86 q 606 207 582 149 q 629 347 629 265 q 606 487 629 428 q 538 577 582 546 q 431 608 493 608 q 324 577 368 608 q 256 488 279 546 q 232 347 232 429 q 256 207 232 265 q 324 117 279 149 q 431 86 368 86 m 497 1000 l 644 1000 l 482 801 l 378 801 l 497 1000 z "},"õ":{"ha":861,"x_min":107,"x_max":754,"o":"m 431 -17 q 261 28 335 -17 q 147 156 188 74 q 107 347 107 239 q 147 539 107 457 q 261 666 188 621 q 431 711 335 711 q 600 666 526 711 q 714 539 674 621 q 754 347 754 457 q 714 156 754 238 q 600 28 674 74 q 431 -17 526 -17 m 431 86 q 538 117 493 86 q 606 207 582 149 q 629 347 629 265 q 606 487 629 428 q 538 577 582 546 q 431 608 493 608 q 324 577 368 608 q 256 488 279 546 q 232 347 232 429 q 256 207 232 265 q 324 117 279 149 q 431 86 368 86 m 525 821 q 467 833 490 821 q 414 869 443 846 q 372 899 390 889 q 329 910 353 910 q 283 889 301 910 q 257 835 264 868 l 174 850 q 234 969 189 931 q 332 1007 279 1007 q 397 994 371 1007 q 457 956 422 982 q 499 927 482 936 q 535 918 515 918 q 576 938 557 918 q 603 996 594 957 l 685 982 q 622 859 664 897 q 525 821 579 821 z "},"ŕ":{"ha":861,"x_min":194,"x_max":742,"o":"m 311 514 q 380 615 335 569 q 486 685 425 660 q 617 711 547 711 q 686 708 653 711 q 742 697 719 704 l 742 588 q 683 597 719 593 q 613 601 647 601 q 460 562 528 601 q 352 445 392 522 q 313 258 313 368 l 313 0 l 194 0 l 194 694 l 311 694 l 311 514 m 497 1000 l 644 1000 l 482 801 l 378 801 l 497 1000 z "},"ř":{"ha":861,"x_min":194,"x_max":742,"o":"m 311 514 q 380 615 335 569 q 486 685 425 660 q 617 711 547 711 q 686 708 653 711 q 742 697 719 704 l 742 588 q 683 597 719 593 q 613 601 647 601 q 460 562 528 601 q 352 445 392 522 q 313 258 313 368 l 313 0 l 194 0 l 194 694 l 311 694 l 311 514 z "},"ŗ":{"ha":861,"x_min":188,"x_max":742,"o":"m 311 514 q 380 615 335 569 q 486 685 425 660 q 617 711 547 711 q 686 708 653 711 q 742 697 719 704 l 742 588 q 683 597 719 593 q 613 601 647 601 q 460 562 528 601 q 352 445 392 522 q 313 258 313 368 l 313 0 l 194 0 l 194 694 l 311 694 l 311 514 m 193 -276 q 247 -244 235 -262 q 258 -189 258 -226 l 188 -189 l 188 -64 l 321 -64 l 321 -175 q 299 -272 321 -235 q 221 -329 278 -308 l 193 -276 z "},"ś":{"ha":861,"x_min":147,"x_max":713,"o":"m 446 -17 q 244 39 322 -17 q 147 197 165 94 l 267 218 q 326 117 279 153 q 450 81 374 81 q 556 110 518 81 q 594 186 594 140 q 569 253 594 231 q 494 283 544 275 l 358 308 q 222 374 269 325 q 174 503 174 424 q 206 610 174 563 q 297 684 238 657 q 438 711 357 711 q 628 661 554 711 q 713 524 703 611 l 596 497 q 542 583 583 551 q 432 615 500 615 q 327 588 365 615 q 289 508 289 560 q 316 443 289 467 q 396 410 343 419 l 531 385 q 667 320 624 367 q 711 196 711 274 q 680 85 711 133 q 589 10 649 38 q 446 -17 529 -17 m 500 1000 l 647 1000 l 485 801 l 381 801 l 500 1000 z "},"š":{"ha":861,"x_min":147,"x_max":713,"o":"m 446 -17 q 244 39 322 -17 q 147 197 165 94 l 267 218 q 326 117 279 153 q 450 81 374 81 q 556 110 518 81 q 594 186 594 140 q 569 253 594 231 q 494 283 544 275 l 358 308 q 222 374 269 325 q 174 503 174 424 q 206 610 174 563 q 297 684 238 657 q 438 711 357 711 q 628 661 554 711 q 713 524 703 611 l 596 497 q 542 583 583 551 q 432 615 500 615 q 327 588 365 615 q 289 508 289 560 q 316 443 289 467 q 396 410 343 419 l 531 385 q 667 320 624 367 q 711 196 711 274 q 680 85 711 133 q 589 10 649 38 q 446 -17 529 -17 z "},"ş":{"ha":861,"x_min":147,"x_max":713,"o":"m 446 -17 q 244 39 322 -17 q 147 197 165 94 l 267 218 q 326 117 279 153 q 450 81 374 81 q 556 110 518 81 q 594 186 594 140 q 569 253 594 231 q 494 283 544 275 l 358 308 q 222 374 269 325 q 174 503 174 424 q 206 610 174 563 q 297 684 238 657 q 438 711 357 711 q 628 661 554 711 q 713 524 703 611 l 596 497 q 542 583 583 551 q 432 615 500 615 q 327 588 365 615 q 289 508 289 560 q 316 443 289 467 q 396 410 343 419 l 531 385 q 667 320 624 367 q 711 196 711 274 q 680 85 711 133 q 589 10 649 38 q 446 -17 529 -17 m 506 10 l 457 -68 q 483 -56 465 -60 q 517 -51 500 -51 q 591 -78 563 -51 q 619 -150 619 -106 q 575 -241 619 -206 q 469 -276 531 -276 q 392 -260 429 -276 q 333 -201 356 -244 l 413 -175 q 437 -204 422 -194 q 471 -214 451 -214 q 513 -199 496 -214 q 531 -157 531 -183 q 514 -115 531 -129 q 475 -100 497 -100 q 447 -105 458 -100 q 426 -121 436 -110 l 372 -104 l 432 10 l 506 10 z "},"ŝ":{"ha":861,"x_min":147,"x_max":713,"o":"m 446 -17 q 244 39 322 -17 q 147 197 165 94 l 267 218 q 326 117 279 153 q 450 81 374 81 q 556 110 518 81 q 594 186 594 140 q 569 253 594 231 q 494 283 544 275 l 358 308 q 222 374 269 325 q 174 503 174 424 q 206 610 174 563 q 297 684 238 657 q 438 711 357 711 q 628 661 554 711 q 713 524 703 611 l 596 497 q 542 583 583 551 q 432 615 500 615 q 327 588 365 615 q 289 508 289 560 q 316 443 289 467 q 396 410 343 419 l 531 385 q 667 320 624 367 q 711 196 711 274 q 680 85 711 133 q 589 10 649 38 q 446 -17 529 -17 m 368 1000 l 499 1000 l 642 801 l 525 801 l 433 931 l 342 801 l 225 801 l 368 1000 z "},"ș":{"ha":861,"x_min":147,"x_max":713,"o":"m 446 -17 q 244 39 322 -17 q 147 197 165 94 l 267 218 q 326 117 279 153 q 450 81 374 81 q 556 110 518 81 q 594 186 594 140 q 569 253 594 231 q 494 283 544 275 l 358 308 q 222 374 269 325 q 174 503 174 424 q 206 610 174 563 q 297 684 238 657 q 438 711 357 711 q 628 661 554 711 q 713 524 703 611 l 596 497 q 542 583 583 551 q 432 615 500 615 q 327 588 365 615 q 289 508 289 560 q 316 443 289 467 q 396 410 343 419 l 531 385 q 667 320 624 367 q 711 196 711 274 q 680 85 711 133 q 589 10 649 38 q 446 -17 529 -17 m 403 -276 q 456 -244 444 -262 q 468 -189 468 -226 l 397 -189 l 397 -64 l 531 -64 l 531 -175 q 509 -272 531 -235 q 431 -329 488 -308 l 403 -276 z "},"ŧ":{"ha":861,"x_min":122,"x_max":710,"o":"m 710 432 l 710 333 l 124 333 l 124 432 l 710 432 m 122 694 l 321 694 l 321 876 l 439 926 l 439 694 l 710 694 l 710 597 l 439 597 l 439 253 q 472 140 439 178 q 572 101 506 101 q 710 114 646 101 l 710 6 q 647 -8 678 -3 q 574 -12 615 -12 q 383 47 446 -12 q 321 222 321 107 l 321 597 l 122 597 l 122 694 z "},"ť":{"ha":861,"x_min":122,"x_max":747,"o":"m 122 694 l 321 694 l 321 876 l 439 926 l 439 694 l 710 694 l 710 597 l 439 597 l 439 253 q 472 140 439 178 q 572 101 506 101 q 710 114 646 101 l 710 6 q 647 -8 678 -3 q 574 -12 615 -12 q 383 47 446 -12 q 321 222 321 107 l 321 597 l 122 597 l 122 694 m 632 1010 l 747 1010 l 653 778 l 582 778 l 632 1010 z "},"ţ":{"ha":861,"x_min":122,"x_max":711,"o":"m 122 694 l 321 694 l 321 876 l 439 926 l 439 694 l 710 694 l 710 597 l 439 597 l 439 253 q 472 140 439 178 q 572 101 506 101 q 710 114 646 101 l 710 6 q 647 -8 678 -3 q 574 -12 615 -12 q 383 47 446 -12 q 321 222 321 107 l 321 597 l 122 597 l 122 694 m 597 10 l 549 -68 q 574 -56 557 -60 q 608 -51 592 -51 q 683 -78 654 -51 q 711 -150 711 -106 q 667 -241 711 -206 q 561 -276 622 -276 q 484 -260 521 -276 q 425 -201 447 -244 l 504 -175 q 528 -204 514 -194 q 563 -214 543 -214 q 605 -199 588 -214 q 622 -157 622 -183 q 606 -115 622 -129 q 567 -100 589 -100 q 539 -105 550 -100 q 518 -121 528 -110 l 464 -104 l 524 10 l 597 10 z "},"ț":{"ha":861,"x_min":122,"x_max":710,"o":"m 122 694 l 321 694 l 321 876 l 439 926 l 439 694 l 710 694 l 710 597 l 439 597 l 439 253 q 472 140 439 178 q 572 101 506 101 q 710 114 646 101 l 710 6 q 647 -8 678 -3 q 574 -12 615 -12 q 383 47 446 -12 q 321 222 321 107 l 321 597 l 122 597 l 122 694 m 494 -276 q 548 -244 536 -262 q 560 -189 560 -226 l 489 -189 l 489 -64 l 622 -64 l 622 -175 q 601 -272 622 -235 q 522 -329 579 -308 l 494 -276 z "},"þ":{"ha":861,"x_min":156,"x_max":774,"o":"m 156 1007 l 274 1007 l 274 572 q 364 676 308 640 q 493 711 419 711 q 642 663 579 711 q 740 531 706 614 q 774 347 774 449 q 740 163 774 246 q 642 32 706 81 q 493 -17 579 -17 q 403 -3 444 -17 q 330 40 363 11 q 274 108 297 68 l 274 -271 l 156 -271 l 156 1007 m 461 88 q 561 122 518 88 q 626 216 604 157 q 649 347 649 275 q 598 533 649 458 q 461 607 547 607 q 358 578 401 607 q 293 494 315 549 q 271 368 271 440 l 271 329 q 293 200 271 254 q 358 117 315 146 q 461 88 401 88 z "},"ú":{"ha":861,"x_min":140,"x_max":704,"o":"m 382 -17 q 285 -2 331 -17 q 204 44 239 13 q 156 129 171 76 q 140 265 140 182 l 140 694 l 261 694 l 261 269 q 301 125 261 165 q 406 85 342 85 q 514 123 474 85 q 570 217 554 161 q 586 332 586 272 l 586 694 l 704 694 l 704 0 l 593 0 l 593 132 q 513 29 571 75 q 382 -17 454 -17 m 490 1000 l 638 1000 l 475 801 l 371 801 l 490 1000 z "},"ŭ":{"ha":861,"x_min":140,"x_max":704,"o":"m 382 -17 q 285 -2 331 -17 q 204 44 239 13 q 156 129 171 76 q 140 265 140 182 l 140 694 l 261 694 l 261 269 q 301 125 261 165 q 406 85 342 85 q 514 123 474 85 q 570 217 554 161 q 586 332 586 272 l 586 694 l 704 694 l 704 0 l 593 0 l 593 132 q 513 29 571 75 q 382 -17 454 -17 m 424 794 q 278 846 338 794 q 213 1000 218 897 l 313 1000 q 347 913 315 947 q 424 879 378 879 q 501 913 469 879 q 535 1000 532 947 l 635 1000 q 569 846 629 897 q 424 794 510 794 z "},"û":{"ha":861,"x_min":140,"x_max":704,"o":"m 382 -17 q 285 -2 331 -17 q 204 44 239 13 q 156 129 171 76 q 140 265 140 182 l 140 694 l 261 694 l 261 269 q 301 125 261 165 q 406 85 342 85 q 514 123 474 85 q 570 217 554 161 q 586 332 586 272 l 586 694 l 704 694 l 704 0 l 593 0 l 593 132 q 513 29 571 75 q 382 -17 454 -17 m 358 1000 l 489 1000 l 632 801 l 515 801 l 424 931 l 332 801 l 215 801 l 358 1000 z "},"ü":{"ha":861,"x_min":140,"x_max":704,"o":"m 382 -17 q 285 -2 331 -17 q 204 44 239 13 q 156 129 171 76 q 140 265 140 182 l 140 694 l 261 694 l 261 269 q 301 125 261 165 q 406 85 342 85 q 514 123 474 85 q 570 217 554 161 q 586 332 586 272 l 586 694 l 704 694 l 704 0 l 593 0 l 593 132 q 513 29 571 75 q 382 -17 454 -17 m 481 1000 l 646 1000 l 646 833 l 481 833 l 481 1000 m 201 1000 l 367 1000 l 367 833 l 201 833 l 201 1000 z "},"ù":{"ha":861,"x_min":140,"x_max":704,"o":"m 382 -17 q 285 -2 331 -17 q 204 44 239 13 q 156 129 171 76 q 140 265 140 182 l 140 694 l 261 694 l 261 269 q 301 125 261 165 q 406 85 342 85 q 514 123 474 85 q 570 217 554 161 q 586 332 586 272 l 586 694 l 704 694 l 704 0 l 593 0 l 593 132 q 513 29 571 75 q 382 -17 454 -17 m 208 1000 l 356 1000 l 475 801 l 371 801 l 208 1000 z "},"ű":{"ha":861,"x_min":140,"x_max":724,"o":"m 382 -17 q 285 -2 331 -17 q 204 44 239 13 q 156 129 171 76 q 140 265 140 182 l 140 694 l 261 694 l 261 269 q 301 125 261 165 q 406 85 342 85 q 514 123 474 85 q 570 217 554 161 q 586 332 586 272 l 586 694 l 704 694 l 704 0 l 593 0 l 593 132 q 513 29 571 75 q 382 -17 454 -17 m 597 1000 l 724 1000 l 594 801 l 478 801 l 597 1000 m 372 1000 l 499 1000 l 369 801 l 253 801 l 372 1000 z "},"ū":{"ha":861,"x_min":140,"x_max":704,"o":"m 382 -17 q 285 -2 331 -17 q 204 44 239 13 q 156 129 171 76 q 140 265 140 182 l 140 694 l 261 694 l 261 269 q 301 125 261 165 q 406 85 342 85 q 514 123 474 85 q 570 217 554 161 q 586 332 586 272 l 586 694 l 704 694 l 704 0 l 593 0 l 593 132 q 513 29 571 75 q 382 -17 454 -17 m 224 928 l 624 928 l 624 833 l 224 833 l 224 928 z "},"ų":{"ha":861,"x_min":140,"x_max":754,"o":"m 382 -17 q 285 -2 331 -17 q 204 44 239 13 q 156 129 171 76 q 140 265 140 182 l 140 694 l 261 694 l 261 269 q 301 125 261 165 q 406 85 342 85 q 514 123 474 85 q 570 217 554 161 q 586 332 586 272 l 586 694 l 704 694 l 704 0 l 593 0 l 593 132 q 513 29 571 75 q 382 -17 454 -17 m 754 -176 q 701 -255 742 -228 q 607 -282 660 -282 q 507 -249 547 -282 q 467 -158 467 -217 q 497 -69 467 -112 q 594 6 528 -25 l 704 0 q 618 -34 651 -8 q 570 -90 585 -60 q 556 -146 556 -121 q 570 -194 556 -175 q 611 -212 585 -212 q 653 -194 636 -212 q 679 -149 669 -176 l 754 -176 z "},"ů":{"ha":861,"x_min":140,"x_max":704,"o":"m 382 -17 q 285 -2 331 -17 q 204 44 239 13 q 156 129 171 76 q 140 265 140 182 l 140 694 l 261 694 l 261 269 q 301 125 261 165 q 406 85 342 85 q 514 123 474 85 q 570 217 554 161 q 586 332 586 272 l 586 694 l 704 694 l 704 0 l 593 0 l 593 132 q 513 29 571 75 q 382 -17 454 -17 m 424 765 q 316 806 357 765 q 275 907 275 846 q 316 1008 275 968 q 424 1049 357 1049 q 531 1008 490 1049 q 572 907 572 968 q 531 806 572 846 q 424 765 490 765 m 424 832 q 474 853 456 832 q 493 907 493 875 q 474 960 493 939 q 424 982 456 982 q 373 960 392 982 q 354 907 354 939 q 373 853 354 875 q 424 832 392 832 z "},"ũ":{"ha":861,"x_min":140,"x_max":704,"o":"m 382 -17 q 285 -2 331 -17 q 204 44 239 13 q 156 129 171 76 q 140 265 140 182 l 140 694 l 261 694 l 261 269 q 301 125 261 165 q 406 85 342 85 q 514 123 474 85 q 570 217 554 161 q 586 332 586 272 l 586 694 l 704 694 l 704 0 l 593 0 l 593 132 q 513 29 571 75 q 382 -17 454 -17 m 518 821 q 460 833 483 821 q 407 869 436 846 q 365 899 383 889 q 322 910 346 910 q 276 889 294 910 q 250 835 257 868 l 167 850 q 227 969 182 931 q 325 1007 272 1007 q 390 994 364 1007 q 450 956 415 982 q 492 927 475 936 q 528 918 508 918 q 569 938 550 918 q 596 996 588 957 l 678 982 q 615 859 657 897 q 518 821 572 821 z "},"ẃ":{"ha":861,"x_min":39,"x_max":821,"o":"m 39 694 l 163 694 l 233 218 q 247 119 240 169 l 257 119 q 279 236 268 178 l 369 694 l 490 694 l 581 236 q 603 119 592 178 l 613 119 q 626 218 619 169 l 697 694 l 821 694 l 686 0 l 538 0 l 447 449 q 435 563 438 494 l 425 563 q 420 503 424 538 q 413 449 417 468 l 322 0 l 174 0 l 39 694 m 497 1000 l 644 1000 l 482 801 l 378 801 l 497 1000 z "},"ŵ":{"ha":861,"x_min":39,"x_max":821,"o":"m 39 694 l 163 694 l 233 218 q 247 119 240 169 l 257 119 q 279 236 268 178 l 369 694 l 490 694 l 581 236 q 603 119 592 178 l 613 119 q 626 218 619 169 l 697 694 l 821 694 l 686 0 l 538 0 l 447 449 q 435 563 438 494 l 425 563 q 420 503 424 538 q 413 449 417 468 l 322 0 l 174 0 l 39 694 m 365 1000 l 496 1000 l 639 801 l 522 801 l 431 931 l 339 801 l 222 801 l 365 1000 z "},"ẅ":{"ha":861,"x_min":39,"x_max":821,"o":"m 39 694 l 163 694 l 233 218 q 247 119 240 169 l 257 119 q 279 236 268 178 l 369 694 l 490 694 l 581 236 q 603 119 592 178 l 613 119 q 626 218 619 169 l 697 694 l 821 694 l 686 0 l 538 0 l 447 449 q 435 563 438 494 l 425 563 q 420 503 424 538 q 413 449 417 468 l 322 0 l 174 0 l 39 694 m 488 1000 l 653 1000 l 653 833 l 488 833 l 488 1000 m 208 1000 l 374 1000 l 374 833 l 208 833 l 208 1000 z "},"ẁ":{"ha":861,"x_min":39,"x_max":821,"o":"m 39 694 l 163 694 l 233 218 q 247 119 240 169 l 257 119 q 279 236 268 178 l 369 694 l 490 694 l 581 236 q 603 119 592 178 l 613 119 q 626 218 619 169 l 697 694 l 821 694 l 686 0 l 538 0 l 447 449 q 435 563 438 494 l 425 563 q 420 503 424 538 q 413 449 417 468 l 322 0 l 174 0 l 39 694 m 215 1000 l 363 1000 l 482 801 l 378 801 l 215 1000 z "},"ý":{"ha":861,"x_min":113,"x_max":761,"o":"m 442 138 l 635 694 l 761 694 l 483 -44 q 413 -183 451 -132 q 327 -258 375 -235 q 219 -281 279 -281 q 156 -275 185 -281 l 156 -171 q 206 -174 192 -174 q 277 -160 247 -174 q 328 -119 307 -147 q 365 -43 349 -90 l 383 8 l 113 694 l 246 694 l 442 138 m 497 1000 l 644 1000 l 482 801 l 378 801 l 497 1000 z "},"ŷ":{"ha":861,"x_min":113,"x_max":761,"o":"m 442 138 l 635 694 l 761 694 l 483 -44 q 413 -183 451 -132 q 327 -258 375 -235 q 219 -281 279 -281 q 156 -275 185 -281 l 156 -171 q 206 -174 192 -174 q 277 -160 247 -174 q 328 -119 307 -147 q 365 -43 349 -90 l 383 8 l 113 694 l 246 694 l 442 138 m 365 1000 l 496 1000 l 639 801 l 522 801 l 431 931 l 339 801 l 222 801 l 365 1000 z "},"ÿ":{"ha":861,"x_min":113,"x_max":761,"o":"m 442 138 l 635 694 l 761 694 l 483 -44 q 413 -183 451 -132 q 327 -258 375 -235 q 219 -281 279 -281 q 156 -275 185 -281 l 156 -171 q 206 -174 192 -174 q 277 -160 247 -174 q 328 -119 307 -147 q 365 -43 349 -90 l 383 8 l 113 694 l 246 694 l 442 138 m 488 1000 l 653 1000 l 653 833 l 488 833 l 488 1000 m 208 1000 l 374 1000 l 374 833 l 208 833 l 208 1000 z "},"ỳ":{"ha":861,"x_min":113,"x_max":761,"o":"m 442 138 l 635 694 l 761 694 l 483 -44 q 413 -183 451 -132 q 327 -258 375 -235 q 219 -281 279 -281 q 156 -275 185 -281 l 156 -171 q 206 -174 192 -174 q 277 -160 247 -174 q 328 -119 307 -147 q 365 -43 349 -90 l 383 8 l 113 694 l 246 694 l 442 138 m 215 1000 l 363 1000 l 482 801 l 378 801 l 215 1000 z "},"ź":{"ha":861,"x_min":142,"x_max":711,"o":"m 549 594 l 156 594 l 156 694 l 690 694 l 690 607 l 288 101 l 711 101 l 711 0 l 142 0 l 142 90 l 549 594 m 497 1000 l 644 1000 l 482 801 l 378 801 l 497 1000 z "},"ž":{"ha":861,"x_min":142,"x_max":711,"o":"m 549 594 l 156 594 l 156 694 l 690 694 l 690 607 l 288 101 l 711 101 l 711 0 l 142 0 l 142 90 l 549 594 z "},"ż":{"ha":861,"x_min":142,"x_max":711,"o":"m 549 594 l 156 594 l 156 694 l 690 694 l 690 607 l 288 101 l 711 101 l 711 0 l 142 0 l 142 90 l 549 594 m 347 1000 l 514 1000 l 514 833 l 347 833 l 347 1000 z "},"ß":{"ha":861,"x_min":150,"x_max":767,"o":"m 358 92 l 408 92 q 581 146 524 92 q 639 292 639 200 q 579 442 639 381 q 381 511 519 504 l 381 511 l 381 610 l 381 610 q 490 635 449 613 q 550 690 532 657 q 568 765 568 724 q 529 875 568 832 q 418 918 490 918 q 306 869 343 918 q 268 728 268 819 l 268 0 l 150 0 l 150 717 q 217 928 150 846 q 421 1011 283 1011 q 567 981 504 1011 q 663 897 629 950 q 696 778 696 843 q 674 683 696 725 q 613 612 651 640 q 528 571 575 583 q 647 526 593 558 q 733 438 700 494 q 767 299 767 381 q 722 136 767 206 q 597 30 678 67 q 408 -7 515 -7 l 358 -7 l 358 92 z "},"ð":{"ha":861,"x_min":114,"x_max":733,"o":"m 417 -17 q 194 81 275 -17 q 114 347 114 179 q 149 535 114 454 q 250 660 183 615 q 407 706 317 706 q 489 690 456 706 q 540 656 522 675 q 574 613 558 638 q 454 822 533 726 q 265 961 375 917 l 343 1035 q 547 881 458 983 q 685 643 636 779 q 733 356 733 507 q 694 167 733 251 q 584 33 656 82 q 417 -17 513 -17 m 421 88 q 529 122 488 88 q 590 214 571 156 q 608 347 608 272 q 563 535 608 464 q 421 607 518 607 q 319 573 360 607 q 260 480 279 539 q 240 347 240 421 q 284 161 240 235 q 421 88 328 88 m 208 822 l 635 954 l 661 879 l 236 747 l 208 822 z "},"`":{"ha":861,"x_min":297,"x_max":564,"o":"m 297 1000 l 444 1000 l 564 801 l 460 801 l 297 1000 z "},"´":{"ha":861,"x_min":297,"x_max":564,"o":"m 417 1000 l 564 1000 l 401 801 l 297 801 l 417 1000 z "},"ˆ":{"ha":861,"x_min":222,"x_max":639,"o":"m 365 1000 l 496 1000 l 639 801 l 522 801 l 431 931 l 339 801 l 222 801 l 365 1000 z "},"˜":{"ha":861,"x_min":175,"x_max":686,"o":"m 526 821 q 468 833 492 821 q 415 869 444 846 q 373 899 392 889 q 331 910 354 910 q 284 889 303 910 q 258 835 265 868 l 175 850 q 235 969 190 931 q 333 1007 281 1007 q 398 994 372 1007 q 458 956 424 982 q 500 927 483 936 q 536 918 517 918 q 577 938 558 918 q 604 996 596 957 l 686 982 q 623 859 665 897 q 526 821 581 821 z "},"ˇ":{"ha":861,"x_min":222,"x_max":639,"o":"z "},"¨":{"ha":861,"x_min":208,"x_max":653,"o":"m 488 1000 l 653 1000 l 653 833 l 488 833 l 488 1000 m 208 1000 l 374 1000 l 374 833 l 208 833 l 208 1000 z "},"¯":{"ha":861,"x_min":231,"x_max":631,"o":"m 231 928 l 631 928 l 631 833 l 231 833 l 231 928 z "},"˘":{"ha":861,"x_min":219,"x_max":642,"o":"m 431 794 q 285 846 344 794 q 219 1000 225 897 l 319 1000 q 353 913 322 947 q 431 879 385 879 q 508 913 476 879 q 542 1000 539 947 l 642 1000 q 576 846 636 897 q 431 794 517 794 z "},"˚":{"ha":861,"x_min":282,"x_max":579,"o":"m 431 765 q 323 806 364 765 q 282 907 282 846 q 323 1008 282 968 q 431 1049 364 1049 q 538 1008 497 1049 q 579 907 579 968 q 538 806 579 846 q 431 765 497 765 m 431 832 q 481 853 463 832 q 500 907 500 875 q 481 960 500 939 q 431 982 463 982 q 380 960 399 982 q 361 907 361 939 q 380 853 361 875 q 431 832 399 832 z "},"˝":{"ha":861,"x_min":194,"x_max":665,"o":"m 539 1000 l 665 1000 l 536 801 l 419 801 l 539 1000 m 314 1000 l 440 1000 l 311 801 l 194 801 l 314 1000 z "},"˙":{"ha":861,"x_min":347,"x_max":514,"o":"m 347 1000 l 514 1000 l 514 833 l 347 833 l 347 1000 z "},"¸":{"ha":861,"x_min":288,"x_max":574,"o":"m 460 10 l 411 -68 q 437 -56 419 -60 q 471 -51 454 -51 q 545 -78 517 -51 q 574 -150 574 -106 q 529 -241 574 -206 q 424 -276 485 -276 q 347 -260 383 -276 q 288 -201 310 -244 l 367 -175 q 391 -204 376 -194 q 425 -214 406 -214 q 467 -199 450 -214 q 485 -157 485 -183 q 468 -115 485 -129 q 429 -100 451 -100 q 401 -105 413 -100 q 381 -121 390 -110 l 326 -104 l 386 10 l 460 10 z "},"˛":{"ha":861,"x_min":286,"x_max":574,"o":"m 574 -176 q 520 -255 561 -228 q 426 -282 479 -282 q 326 -249 367 -282 q 286 -158 286 -217 q 317 -69 286 -112 q 414 6 347 -25 l 524 0 q 438 -34 471 -8 q 390 -90 404 -60 q 375 -146 375 -121 q 390 -194 375 -175 q 431 -212 404 -212 q 472 -194 456 -212 q 499 -149 489 -176 l 574 -176 z "},",":{"ha":861,"x_min":338,"x_max":522,"o":"m 346 -142 q 421 -88 403 -117 q 439 0 439 -60 l 338 0 l 338 178 l 522 178 l 522 0 q 492 -128 522 -82 q 382 -206 461 -174 l 346 -142 z "},";":{"ha":861,"x_min":338,"x_max":522,"o":"m 522 475 l 338 475 l 338 653 l 522 653 l 522 475 m 346 -142 q 421 -88 403 -117 q 439 0 439 -60 l 338 0 l 338 178 l 522 178 l 522 0 q 492 -128 522 -82 q 382 -206 461 -174 l 346 -142 z "},":":{"ha":861,"x_min":338,"x_max":522,"o":"m 522 475 l 338 475 l 338 653 l 522 653 l 522 475 m 522 0 l 338 0 l 338 178 l 522 178 l 522 0 z "},".":{"ha":861,"x_min":338,"x_max":522,"o":"m 522 0 l 338 0 l 338 178 l 522 178 l 522 0 z "},"…":{"ha":861,"x_min":50,"x_max":810,"o":"m 235 0 l 50 0 l 50 174 l 235 174 l 235 0 m 522 0 l 338 0 l 338 174 l 522 174 l 522 0 m 810 0 l 625 0 l 625 174 l 810 174 l 810 0 z "},"-":{"ha":861,"x_min":229,"x_max":631,"o":"m 631 442 l 631 331 l 229 331 l 229 442 l 631 442 z "},"!":{"ha":861,"x_min":338,"x_max":522,"o":"m 360 986 l 500 986 l 478 314 l 382 314 l 360 986 m 522 0 l 338 0 l 338 178 l 522 178 l 522 0 z "},"¡":{"ha":861,"x_min":339,"x_max":524,"o":"m 501 -312 l 361 -312 l 383 360 l 479 360 l 501 -312 m 339 674 l 524 674 l 524 496 l 339 496 l 339 674 z "},"?":{"ha":861,"x_min":122,"x_max":738,"o":"m 363 372 q 376 444 363 411 q 442 519 390 476 l 513 579 q 581 660 557 617 q 606 764 606 703 q 561 866 606 826 q 429 906 517 906 q 297 858 346 906 q 247 715 247 810 q 249 676 247 696 q 254 642 251 657 l 128 657 q 124 694 125 674 q 122 729 122 714 q 159 876 122 813 q 265 975 196 940 q 429 1010 335 1010 q 601 980 532 1010 q 704 895 671 950 q 738 764 738 840 q 721 673 738 717 q 676 593 704 629 q 613 528 647 557 l 538 465 q 493 409 506 438 q 481 339 481 381 l 481 314 l 363 314 l 363 372 m 336 178 l 521 178 l 521 0 l 336 0 l 336 178 z "},"¿":{"ha":861,"x_min":122,"x_max":738,"o":"m 497 350 q 483 278 497 311 q 418 203 469 246 l 347 143 q 278 63 303 106 q 254 -42 254 19 q 299 -144 254 -104 q 431 -183 343 -183 q 563 -135 514 -183 q 613 7 613 -87 q 610 46 613 26 q 606 81 608 65 l 732 65 q 736 28 735 49 q 738 -7 738 8 q 701 -154 738 -90 q 594 -253 664 -218 q 431 -287 525 -287 q 258 -258 328 -287 q 156 -173 189 -228 q 122 -42 122 -118 q 139 49 122 6 q 184 129 156 93 q 247 194 213 165 l 322 257 q 367 313 354 285 q 379 383 379 342 l 379 408 l 497 408 l 497 350 m 524 544 l 339 544 l 339 722 l 524 722 l 524 544 z "},"‘":{"ha":861,"x_min":338,"x_max":522,"o":"m 514 964 q 439 910 457 939 q 421 822 421 882 l 522 822 l 522 644 l 338 644 l 338 822 q 368 950 338 904 q 478 1028 399 996 l 514 964 z "},"’":{"ha":861,"x_min":338,"x_max":522,"o":"m 346 667 q 421 720 403 692 q 439 808 439 749 l 338 808 l 338 986 l 522 986 l 522 808 q 492 681 522 726 q 382 603 461 635 l 346 667 z "},"“":{"ha":861,"x_min":175,"x_max":685,"o":"m 351 964 q 276 910 294 939 q 258 822 258 882 l 360 822 l 360 644 l 175 644 l 175 822 q 206 950 175 904 q 315 1028 236 996 l 351 964 m 676 964 q 601 910 619 939 q 583 822 583 882 l 685 822 l 685 644 l 500 644 l 500 822 q 531 950 500 904 q 640 1028 561 996 l 676 964 z "},"”":{"ha":861,"x_min":176,"x_max":686,"o":"m 510 667 q 585 720 567 692 q 603 808 603 749 l 501 808 l 501 986 l 686 986 l 686 808 q 656 681 686 726 q 546 603 625 635 l 510 667 m 185 667 q 260 720 242 692 q 278 808 278 749 l 176 808 l 176 986 l 361 986 l 361 808 q 331 681 361 726 q 221 603 300 635 l 185 667 z "},"‚":{"ha":861,"x_min":338,"x_max":522,"o":"m 346 -142 q 421 -88 403 -117 q 439 0 439 -60 l 338 0 l 338 178 l 522 178 l 522 0 q 492 -128 522 -82 q 382 -206 461 -174 l 346 -142 z "},"„":{"ha":861,"x_min":175,"x_max":685,"o":"m 508 -143 q 583 -90 565 -118 q 601 -1 601 -61 l 500 -1 l 500 176 l 685 176 l 685 -1 q 654 -129 685 -83 q 544 -207 624 -175 l 508 -143 m 183 -143 q 258 -90 240 -118 q 276 -1 276 -61 l 175 -1 l 175 176 l 360 176 l 360 -1 q 329 -129 360 -83 q 219 -207 299 -175 l 183 -143 z "},"‹":{"ha":861,"x_min":233,"x_max":599,"o":"m 233 382 l 474 669 l 599 669 l 367 383 l 594 93 l 467 93 l 233 382 z "},"›":{"ha":861,"x_min":263,"x_max":628,"o":"m 494 383 l 263 669 l 388 669 l 628 382 l 394 93 l 267 93 l 494 383 z "},"·":{"ha":861,"x_min":338,"x_max":522,"o":"m 522 307 l 338 307 l 338 485 l 522 485 l 522 307 z "},"/":{"ha":861,"x_min":179,"x_max":681,"o":"m 179 -162 l 571 1056 l 681 1056 l 289 -162 l 179 -162 z "},"|":{"ha":861,"x_min":381,"x_max":481,"o":"m 381 1056 l 481 1056 l 481 -162 l 381 -162 l 381 1056 z "},"–":{"ha":861,"x_min":144,"x_max":717,"o":"m 717 442 l 717 331 l 144 331 l 144 442 l 717 442 z "},"—":{"ha":861,"x_min":58,"x_max":801,"o":"m 801 442 l 801 331 l 58 331 l 58 442 l 801 442 z "},"•":{"ha":861,"x_min":278,"x_max":583,"o":"m 429 215 q 320 256 363 215 q 278 365 278 297 q 320 476 278 435 q 429 518 363 518 q 540 476 497 518 q 583 365 583 435 q 540 256 583 297 q 429 215 497 215 z "},"(":{"ha":861,"x_min":292,"x_max":713,"o":"m 643 -194 q 454 -26 533 -126 q 333 197 375 75 q 292 446 292 318 q 385 813 292 640 q 643 1086 478 985 l 713 1019 q 546 854 611 940 q 449 667 481 768 q 418 446 418 567 q 490 128 418 265 q 713 -128 561 -10 l 643 -194 z "},")":{"ha":861,"x_min":149,"x_max":569,"o":"m 218 1086 q 407 917 328 1018 q 528 695 486 817 q 569 446 569 574 q 476 79 569 251 q 218 -194 383 -93 l 149 -128 q 315 38 250 -49 q 412 224 381 124 q 443 446 443 325 q 372 764 443 626 q 149 1019 300 901 l 218 1086 z "},"[":{"ha":861,"x_min":278,"x_max":671,"o":"m 278 1051 l 671 1051 l 671 954 l 383 954 l 383 -61 l 671 -61 l 671 -158 l 278 -158 l 278 1051 z "},"]":{"ha":861,"x_min":190,"x_max":583,"o":"m 190 -61 l 478 -61 l 478 954 l 190 954 l 190 1051 l 583 1051 l 583 -158 l 190 -158 l 190 -61 z "},"{":{"ha":861,"x_min":203,"x_max":671,"o":"m 563 -158 q 430 -133 486 -158 q 344 -60 374 -107 q 314 49 314 -12 l 314 247 q 307 326 314 296 q 276 375 300 357 q 203 393 251 393 l 203 501 q 276 517 253 501 q 306 561 300 533 q 313 642 313 589 l 313 844 q 342 953 313 906 q 428 1026 372 1000 q 561 1051 485 1051 l 671 1051 l 671 954 l 561 954 q 458 917 494 954 q 421 815 421 879 l 421 656 q 402 520 421 572 q 331 449 383 468 q 401 370 383 425 q 419 232 419 315 l 419 78 q 458 -24 419 14 q 563 -61 496 -61 l 671 -61 l 671 -158 l 563 -158 z "},"}":{"ha":861,"x_min":190,"x_max":658,"o":"m 299 1051 q 431 1026 375 1051 q 517 953 488 1000 q 547 844 547 906 l 547 646 q 554 567 547 597 q 585 518 561 536 q 658 500 610 500 l 658 392 q 585 376 608 392 q 555 332 561 360 q 549 251 549 304 l 549 49 q 519 -60 549 -12 q 433 -133 489 -107 q 300 -158 376 -158 l 190 -158 l 190 -61 l 300 -61 q 403 -24 367 -61 q 440 78 440 14 l 440 238 q 459 373 440 321 q 531 444 478 425 q 460 523 478 468 q 442 661 442 578 l 442 815 q 403 917 442 879 q 299 954 365 954 l 190 954 l 190 1051 l 299 1051 z "},"­":{"ha":0,"x_min":0,"x_max":0,"o":""},"«":{"ha":861,"x_min":90,"x_max":764,"o":"m 90 382 l 331 669 l 456 669 l 224 383 l 451 93 l 324 93 l 90 382 m 399 382 l 639 669 l 764 669 l 532 383 l 760 93 l 632 93 l 399 382 z "},"»":{"ha":861,"x_min":85,"x_max":771,"o":"m 638 383 l 406 669 l 531 669 l 771 382 l 538 93 l 410 93 l 638 383 m 317 385 l 85 671 l 210 671 l 450 383 l 217 94 l 89 94 l 317 385 z "},"*":{"ha":861,"x_min":140,"x_max":721,"o":"m 311 428 l 192 510 l 351 686 l 140 728 l 189 860 l 385 757 l 347 986 l 500 986 l 465 757 l 672 864 l 721 728 l 494 679 l 660 510 l 546 432 l 428 644 l 311 428 z "},"~":{"ha":861,"x_min":92,"x_max":769,"o":"m 297 540 q 380 525 344 540 q 461 479 415 510 q 521 444 497 456 q 571 433 544 433 q 635 458 610 433 q 676 535 661 482 l 769 513 q 690 374 744 418 q 567 329 635 329 q 485 344 519 329 q 407 390 451 360 q 349 425 372 414 q 300 436 326 436 q 231 415 257 436 q 193 354 204 394 l 92 365 q 167 497 110 454 q 297 540 224 540 z "},"¦":{"ha":861,"x_min":381,"x_max":479,"o":"m 479 531 l 381 531 l 381 1056 l 479 1056 l 479 531 m 479 -162 l 381 -162 l 381 363 l 479 363 l 479 -162 z "},"\\":{"ha":861,"x_min":179,"x_max":681,"o":"m 179 1056 l 289 1056 l 681 -162 l 571 -162 l 179 1056 z "},"_":{"ha":861,"x_min":0,"x_max":861,"o":"m 861 -164 l 861 -261 l 0 -261 l 0 -164 l 861 -164 z "},"'":{"ha":861,"x_min":339,"x_max":521,"o":"m 339 986 l 521 986 l 471 547 l 389 547 l 339 986 z "},"\"":{"ha":861,"x_min":194,"x_max":667,"o":"m 485 986 l 667 986 l 617 547 l 535 547 l 485 986 m 194 986 l 376 986 l 326 547 l 244 547 l 194 986 z "},"&":{"ha":861,"x_min":49,"x_max":836,"o":"m 836 1 q 815 -3 826 -1 q 788 -4 803 -4 q 706 12 744 -4 q 636 67 668 28 l 258 535 q 170 665 203 604 q 138 796 138 726 q 169 908 138 860 q 254 983 200 957 q 374 1010 308 1010 q 486 987 435 1010 q 569 918 538 964 q 601 806 601 872 q 576 698 601 747 q 509 609 551 649 q 407 533 467 569 l 354 501 q 245 425 285 460 q 186 351 206 390 q 167 260 167 313 q 192 156 167 197 q 263 97 218 115 q 367 78 307 78 q 534 131 468 78 q 633 286 600 185 q 669 533 667 388 l 772 518 q 724 249 768 371 q 588 52 681 128 q 349 -24 494 -24 q 184 11 251 -24 q 83 108 117 46 q 49 249 49 169 q 81 388 49 328 q 165 490 113 447 q 286 563 217 532 l 347 597 q 456 697 422 651 q 489 799 489 742 q 457 888 489 857 q 371 918 425 918 q 283 888 317 918 q 250 803 250 858 q 280 699 250 750 q 378 563 310 647 l 704 165 q 751 122 726 135 q 806 108 776 108 q 836 111 819 108 l 836 1 z "},"@":{"ha":861,"x_min":79,"x_max":783,"o":"m 458 -131 q 256 -84 342 -131 q 125 49 171 -37 q 79 253 79 135 q 79 253 79 253 q 79 253 79 253 l 79 510 q 124 723 79 631 q 252 866 169 815 q 443 917 335 917 q 623 871 546 917 q 742 740 700 825 q 783 543 783 656 q 783 543 783 543 q 783 543 783 543 l 783 367 q 767 241 783 292 q 719 165 751 190 q 640 139 688 139 q 569 160 597 139 q 533 218 540 182 q 472 159 511 181 q 389 138 433 138 q 282 178 324 138 q 240 282 240 218 q 278 377 240 340 q 389 426 317 414 l 525 450 l 525 460 q 525 460 525 460 q 525 460 525 460 q 505 546 525 519 q 439 572 485 572 q 367 548 392 572 q 343 476 343 524 l 254 476 q 306 606 254 558 q 444 654 357 654 q 572 602 531 654 q 613 440 613 550 q 613 440 613 440 q 613 440 613 440 l 613 296 q 613 296 613 296 q 613 296 613 296 q 622 233 613 253 q 653 214 632 214 q 688 242 676 214 q 700 329 700 269 l 700 532 q 700 532 700 532 q 700 532 700 532 q 669 698 700 629 q 578 803 638 767 q 438 840 519 840 q 291 801 353 840 q 197 690 229 763 q 164 518 164 618 l 164 247 q 164 247 164 247 q 164 247 164 247 q 201 90 164 158 q 306 -15 238 22 q 463 -53 374 -53 q 549 -42 506 -53 q 636 -12 593 -32 l 665 -79 q 567 -118 617 -106 q 458 -131 517 -131 m 414 214 q 494 249 463 214 q 525 338 525 283 l 525 382 l 415 358 q 353 331 374 349 q 332 283 332 313 q 354 233 332 251 q 414 214 376 214 z "},"©":{"ha":861,"x_min":85,"x_max":776,"o":"m 439 197 q 294 254 344 197 q 244 435 244 311 l 244 557 q 295 733 244 678 q 438 789 346 789 q 565 736 519 789 q 615 593 611 683 l 615 593 l 518 588 l 518 588 q 497 672 515 639 q 435 706 478 706 q 367 674 390 706 q 343 557 343 642 l 343 435 q 367 315 343 349 q 436 281 390 281 q 497 314 476 281 q 521 394 518 347 l 521 394 l 617 381 l 617 381 q 567 249 610 301 q 439 197 525 197 m 431 -24 q 256 20 335 -24 q 131 156 178 64 q 85 388 85 249 l 85 594 q 131 826 85 733 q 256 965 178 919 q 431 1010 335 1010 q 605 965 526 1010 q 730 826 683 919 q 776 594 776 733 l 776 388 q 730 156 776 249 q 605 20 683 64 q 431 -24 526 -24 m 431 42 q 628 126 550 42 q 707 388 707 211 l 707 594 q 669 792 707 714 q 569 908 632 871 q 431 944 507 944 q 292 908 354 944 q 192 792 229 871 q 154 594 154 714 l 154 388 q 192 190 154 268 q 292 77 229 113 q 431 42 354 42 z "},"®":{"ha":861,"x_min":85,"x_max":776,"o":"m 629 217 l 528 217 l 417 479 l 503 489 l 629 217 m 354 533 l 418 533 q 500 557 476 533 q 524 618 524 581 q 499 681 524 660 q 418 703 475 703 l 354 703 l 354 533 m 432 781 q 571 735 528 781 q 614 618 614 690 q 580 516 614 563 q 464 454 546 469 l 464 454 l 354 454 l 354 217 l 263 217 l 263 781 l 432 781 m 431 -24 q 256 20 335 -24 q 131 156 178 64 q 85 388 85 249 l 85 594 q 131 826 85 733 q 256 965 178 919 q 431 1010 335 1010 q 605 965 526 1010 q 730 826 683 919 q 776 594 776 733 l 776 388 q 730 156 776 249 q 605 20 683 64 q 431 -24 526 -24 m 431 42 q 628 126 550 42 q 707 388 707 211 l 707 594 q 669 792 707 714 q 569 908 632 871 q 431 944 507 944 q 292 908 354 944 q 192 792 229 871 q 154 594 154 714 l 154 388 q 192 190 154 268 q 292 77 229 113 q 431 42 354 42 z "},"™":{"ha":861,"x_min":46,"x_max":814,"o":"m 407 986 l 540 986 l 594 635 q 608 528 607 565 l 613 528 q 626 635 614 565 l 681 986 l 814 986 l 814 450 l 733 450 l 733 826 q 733 911 733 869 l 732 911 q 726 872 729 892 l 724 853 l 654 450 l 567 450 l 497 853 q 489 911 493 882 l 488 911 q 488 826 488 869 l 488 450 l 407 450 l 407 986 m 150 908 l 46 908 l 46 986 l 353 986 l 353 908 l 242 908 l 242 450 l 150 450 l 150 908 z "},"¶":{"ha":861,"x_min":61,"x_max":800,"o":"m 382 501 q 221 524 292 501 q 106 601 150 546 q 61 749 61 656 q 106 895 61 839 q 224 976 151 951 q 389 1000 297 1000 l 800 1000 l 800 928 l 656 928 l 656 -139 l 572 -139 l 572 928 l 465 928 l 465 -139 l 382 -139 l 382 501 z "},"§":{"ha":861,"x_min":121,"x_max":740,"o":"m 408 -96 q 268 -67 329 -96 q 172 11 207 -39 q 131 125 136 61 l 249 149 q 309 45 263 83 q 424 7 356 7 q 529 33 488 7 q 571 103 571 58 q 560 152 571 132 q 519 192 549 172 q 431 238 490 211 l 319 286 q 167 385 214 332 q 121 510 121 438 q 156 621 121 571 q 265 699 190 671 l 326 661 q 280 619 297 639 q 255 578 263 599 q 247 533 247 557 q 262 472 247 496 q 303 429 276 447 q 382 386 331 411 l 517 321 q 614 263 575 293 q 673 196 653 232 q 693 115 693 160 q 657 -1 693 47 q 556 -72 621 -49 q 408 -96 492 -96 m 446 1038 q 627 984 560 1038 q 708 836 694 931 l 592 808 q 540 910 579 876 q 431 944 500 944 q 337 915 374 944 q 300 839 300 886 q 310 788 300 808 q 347 748 319 768 q 431 704 375 728 l 542 656 q 656 591 613 625 q 720 517 700 557 q 740 431 740 478 q 706 319 740 369 q 596 243 671 269 l 535 281 q 595 342 576 313 q 614 408 614 372 q 596 472 614 446 q 547 518 578 499 q 464 563 517 538 l 306 639 q 203 725 232 675 q 175 826 175 775 q 251 981 175 924 q 446 1038 326 1038 z "},"^":{"ha":861,"x_min":181,"x_max":679,"o":"m 474 986 l 679 622 l 571 622 l 431 858 l 289 622 l 181 622 l 386 986 l 474 986 z "},"†":{"ha":861,"x_min":189,"x_max":672,"o":"m 489 -139 l 371 -139 l 371 597 l 189 597 l 189 694 l 371 694 l 371 1000 l 489 1000 l 489 694 l 672 694 l 672 597 l 489 597 l 489 -139 z "},"‡":{"ha":861,"x_min":189,"x_max":672,"o":"m 189 256 l 669 256 l 669 158 l 189 158 l 189 256 m 489 -139 l 371 -139 l 371 597 l 189 597 l 189 694 l 371 694 l 371 1000 l 489 1000 l 489 694 l 672 694 l 672 597 l 489 597 l 489 -139 z "},"∅":{"ha":861,"x_min":113,"x_max":749,"o":"m 113 132 l 693 763 l 749 713 l 168 82 l 113 132 m 431 108 q 269 149 339 108 q 161 260 200 189 q 122 422 122 332 q 161 584 122 513 q 269 696 200 656 q 431 736 339 736 q 592 696 522 736 q 701 585 663 656 q 739 422 739 514 q 701 260 739 331 q 592 149 663 189 q 431 108 522 108 m 431 207 q 536 234 490 207 q 606 310 582 261 q 631 422 631 360 q 606 534 631 485 q 536 610 582 583 q 431 638 490 638 q 326 610 371 638 q 256 534 281 583 q 231 422 231 485 q 256 310 231 360 q 326 234 281 261 q 431 207 371 207 z "},"Ω":{"ha":861,"x_min":71,"x_max":790,"o":"m 86 111 l 231 111 l 231 117 q 111 251 151 165 q 71 457 71 336 l 71 544 q 111 796 71 692 q 232 955 151 900 q 431 1010 313 1010 q 629 955 549 1010 q 750 796 710 900 q 790 544 790 692 l 790 457 q 750 251 790 336 q 631 117 710 165 l 631 111 l 775 111 l 775 0 l 496 0 l 496 110 q 616 239 576 153 q 656 456 656 325 l 656 544 q 601 814 656 729 q 431 899 547 899 q 260 814 314 899 q 206 544 206 729 l 206 456 q 245 239 206 325 q 365 110 285 153 l 365 0 l 86 0 l 86 111 z "},"∆":{"ha":861,"x_min":88,"x_max":774,"o":"m 364 986 l 501 986 l 774 0 l 88 0 l 364 986 m 240 104 l 614 104 l 431 847 l 240 104 z "},"µ":{"ha":861,"x_min":143,"x_max":731,"o":"m 143 694 l 261 694 l 261 265 q 299 134 261 181 q 413 88 338 88 q 503 117 463 88 q 568 199 544 146 q 592 321 592 251 l 592 694 l 707 694 l 707 233 q 713 97 707 153 q 731 0 718 40 l 611 0 q 597 108 600 40 q 515 18 571 53 q 403 -17 460 -17 q 319 2 353 -17 q 261 58 285 21 l 261 -271 l 143 -271 l 143 694 z "},"":{"ha":861,"x_min":0,"x_max":0,"o":"z "},"ℓ":{"ha":861,"x_min":172,"x_max":688,"o":"m 524 -12 q 376 44 418 -12 q 335 208 335 101 l 335 804 q 386 961 335 911 q 511 1011 438 1011 q 609 986 569 1011 q 668 916 649 961 q 688 811 688 871 q 566 479 688 613 q 213 250 444 346 l 172 339 q 381 446 300 394 q 516 582 463 497 q 569 794 569 667 q 554 890 569 863 q 508 917 539 917 q 467 894 482 917 q 453 826 453 871 l 453 213 q 463 147 453 172 q 496 110 474 122 q 554 99 518 99 q 626 108 585 99 l 626 0 q 579 -10 603 -7 q 524 -12 556 -12 z "},"℮":{"ha":1722,"x_min":321,"x_max":1401,"o":"m 861 0 q 581 60 704 0 q 390 233 458 121 q 321 492 321 344 q 390 750 321 638 q 581 924 458 863 q 861 986 704 986 q 1140 927 1021 986 q 1326 754 1258 868 q 1401 479 1394 640 l 542 479 q 526 475 531 479 q 521 454 521 471 l 521 213 q 566 143 521 185 q 689 70 611 101 q 861 39 767 39 q 1051 83 960 39 q 1203 196 1142 126 l 1303 196 q 1108 44 1206 88 q 861 0 1011 0 m 1176 510 q 1196 515 1192 510 q 1200 532 1200 519 l 1200 769 q 1147 850 1200 807 q 1013 922 1093 893 q 860 951 933 951 q 693 919 771 951 q 568 845 615 888 q 521 779 521 803 l 521 522 q 542 510 521 510 l 1176 510 z "},"$":{"ha":861,"x_min":85,"x_max":775,"o":"m 472 1133 l 472 -151 l 410 -151 l 410 1133 l 472 1133 m 450 -21 q 258 20 336 -21 q 139 130 181 61 q 85 286 97 199 l 210 313 q 250 194 222 246 q 327 111 278 142 q 449 81 376 81 q 597 117 538 81 q 657 244 657 154 q 633 340 657 303 q 572 395 608 376 q 485 426 535 414 l 363 458 q 183 559 250 488 q 117 742 117 631 q 156 875 117 814 q 265 972 194 936 q 429 1007 336 1007 q 594 978 522 1007 q 712 888 667 950 q 767 728 757 825 l 643 690 q 577 854 635 804 q 433 904 519 904 q 281 857 326 904 q 235 744 235 810 q 281 635 235 681 q 403 571 326 590 l 519 542 q 707 451 639 511 q 775 263 775 390 q 741 124 775 188 q 634 19 707 60 q 450 -21 561 -21 z "},"¢":{"ha":861,"x_min":128,"x_max":733,"o":"m 447 -17 q 273 31 344 -17 q 165 163 201 79 q 128 351 128 246 q 164 538 128 457 q 273 665 200 619 q 451 711 346 711 q 590 682 529 711 q 688 597 650 653 q 733 463 725 542 l 613 449 q 560 567 603 526 q 443 608 517 608 q 338 576 381 608 q 272 488 294 544 q 250 353 250 431 q 301 159 250 231 q 447 88 351 88 q 565 131 522 88 q 619 254 607 174 l 732 236 q 685 106 721 163 q 590 16 650 49 q 447 -17 531 -17 m 407 825 l 475 825 l 475 -124 l 407 -124 l 407 825 z "},"£":{"ha":861,"x_min":43,"x_max":803,"o":"m 582 556 l 582 468 l 78 468 l 78 556 l 582 556 m 282 15 q 174 8 229 15 q 69 -11 119 1 l 43 76 q 148 133 104 97 q 216 221 192 168 q 240 346 240 274 q 234 445 240 400 q 215 547 228 490 q 200 631 206 594 q 194 708 194 668 q 231 872 194 804 q 333 975 268 940 q 479 1010 397 1010 q 606 985 551 1010 q 695 913 660 960 q 747 799 731 865 l 625 768 q 573 871 610 836 q 478 906 536 906 q 367 858 408 906 q 326 713 326 811 q 332 634 326 672 q 347 549 338 596 q 363 449 358 485 q 368 371 368 414 q 351 253 368 303 q 304 168 335 203 q 229 110 274 133 q 282 118 254 117 q 332 119 310 119 q 390 116 361 119 q 444 107 418 113 q 499 99 471 103 q 556 96 528 96 q 644 128 607 96 q 692 238 682 161 l 803 215 q 753 78 792 131 q 665 2 715 25 q 557 -21 614 -21 q 496 -17 522 -21 q 429 -4 469 -12 q 356 10 388 6 q 282 15 324 15 z "},"¥":{"ha":861,"x_min":65,"x_max":794,"o":"m 749 288 l 749 203 l 108 203 l 108 288 l 749 288 m 749 474 l 749 389 l 108 389 l 108 474 l 749 474 m 493 0 l 368 0 l 368 474 l 65 986 l 206 986 l 429 589 l 654 986 l 794 986 l 493 474 l 493 0 z "},"€":{"ha":861,"x_min":18,"x_max":843,"o":"m 650 451 l 650 365 l 18 365 l 18 451 l 650 451 m 650 642 l 650 557 l 18 557 l 18 642 l 650 642 m 843 168 q 713 29 794 79 q 524 -21 632 -21 q 311 43 399 -21 q 178 225 224 107 q 133 503 133 343 l 133 503 q 181 779 133 665 q 320 951 229 893 q 538 1010 411 1010 q 717 965 644 1010 q 842 832 790 919 l 744 753 q 656 858 708 818 q 528 897 603 897 q 386 855 446 897 q 294 724 326 813 q 263 504 263 636 l 263 504 q 296 274 263 367 q 388 135 329 181 q 526 90 447 90 q 652 126 594 90 q 751 235 710 163 l 843 168 z "},"¤":{"ha":861,"x_min":113,"x_max":749,"o":"m 113 201 l 211 310 l 265 257 l 168 151 l 113 201 m 261 732 l 207 678 l 113 781 l 168 831 l 261 732 m 236 490 q 263 377 236 426 q 335 301 289 328 q 436 275 381 275 q 537 301 492 275 q 608 377 582 328 q 635 490 635 426 q 608 603 635 554 q 537 679 582 653 q 436 706 492 706 q 335 679 381 706 q 263 603 289 653 q 236 490 236 554 m 128 490 q 168 654 128 583 q 278 765 208 725 q 436 804 349 804 q 593 765 524 804 q 703 654 663 725 q 743 490 743 583 q 703 326 743 397 q 593 216 663 256 q 436 176 524 176 q 278 216 349 176 q 168 326 208 256 q 128 490 128 397 m 693 153 l 594 258 l 650 311 l 749 203 l 693 153 m 603 736 l 693 832 l 749 782 l 657 682 l 603 736 z "},"ﬁ":{"ha":1722,"x_min":126,"x_max":1610,"o":"m 721 599 l 457 599 l 457 0 l 339 0 l 339 599 l 126 599 l 126 694 l 339 694 l 339 771 q 405 951 339 890 q 600 1011 471 1011 q 657 1008 629 1011 q 721 997 685 1004 l 721 893 q 706 896 717 893 q 656 901 683 899 q 600 904 628 904 q 489 873 521 904 q 457 763 457 842 l 457 694 l 721 694 l 721 599 m 1035 97 l 1257 97 l 1257 597 l 1056 597 l 1056 694 l 1375 694 l 1375 97 l 1610 97 l 1610 0 l 1035 0 l 1035 97 m 1221 1000 l 1388 1000 l 1388 833 l 1221 833 l 1221 1000 z "},"ﬂ":{"ha":1722,"x_min":126,"x_max":1610,"o":"m 721 599 l 457 599 l 457 0 l 339 0 l 339 599 l 126 599 l 126 694 l 339 694 l 339 771 q 405 951 339 890 q 600 1011 471 1011 q 657 1008 629 1011 q 721 997 685 1004 l 721 893 q 706 896 717 893 q 656 901 683 899 q 600 904 628 904 q 489 873 521 904 q 457 763 457 842 l 457 694 l 721 694 l 721 599 m 1035 97 l 1257 97 l 1257 910 l 1049 910 l 1049 1007 l 1375 1007 l 1375 97 l 1610 97 l 1610 0 l 1035 0 l 1035 97 z "},"⁄":{"ha":0,"x_min":-411,"x_max":411,"o":"m 411 1010 l -304 -24 l -411 -24 l 306 1010 l 411 1010 z "},"¼":{"ha":1722,"x_min":233,"x_max":1518,"o":"m 1272 1010 l 557 -24 l 450 -24 l 1167 1010 l 1272 1010 m 1431 125 l 1431 0 l 1339 0 l 1339 125 l 1065 125 l 1065 194 l 1321 529 l 1431 529 l 1431 197 l 1518 197 l 1518 125 l 1431 125 m 1339 451 l 1140 197 l 1339 197 l 1339 451 z "},"½":{"ha":1722,"x_min":233,"x_max":1490,"o":"m 1272 1010 l 557 -24 l 450 -24 l 1167 1010 l 1272 1010 m 1093 72 q 1243 182 1183 133 q 1338 278 1303 231 q 1374 369 1374 325 q 1351 438 1374 414 q 1285 463 1328 463 q 1218 440 1242 463 q 1194 374 1194 417 q 1197 340 1194 349 l 1099 349 q 1096 379 1096 374 q 1148 497 1096 453 q 1285 542 1200 542 q 1424 498 1375 542 q 1472 375 1472 454 q 1439 271 1472 322 q 1351 172 1406 219 q 1224 76 1297 125 l 1490 76 l 1490 0 l 1093 0 l 1093 72 z "},"¾":{"ha":1722,"x_min":232,"x_max":1518,"o":"m 1272 1010 l 557 -24 l 450 -24 l 1167 1010 l 1272 1010 m 1431 125 l 1431 0 l 1339 0 l 1339 125 l 1065 125 l 1065 194 l 1321 529 l 1431 529 l 1431 197 l 1518 197 l 1518 125 l 1431 125 m 1339 451 l 1140 197 l 1339 197 l 1339 451 z "},"⅓":{"ha":1722,"x_min":233,"x_max":1490,"o":"m 1272 1010 l 557 -24 l 450 -24 l 1167 1010 l 1272 1010 m 1282 300 q 1349 320 1322 300 q 1376 382 1376 340 q 1353 444 1376 422 q 1289 465 1329 465 q 1219 437 1243 465 q 1199 361 1196 408 l 1096 369 q 1144 495 1093 449 q 1289 542 1196 542 q 1426 503 1376 542 q 1476 396 1476 464 q 1447 313 1476 346 q 1367 271 1417 279 q 1457 233 1424 268 q 1490 140 1490 199 q 1436 31 1490 72 q 1293 -11 1382 -11 q 1147 33 1199 -11 q 1093 157 1094 78 l 1196 164 q 1222 92 1194 121 q 1293 63 1249 63 q 1361 85 1335 63 q 1388 149 1388 107 q 1365 212 1388 188 q 1286 236 1342 236 l 1246 236 l 1246 300 l 1282 300 z "},"⅔":{"ha":1722,"x_min":232,"x_max":1490,"o":"m 1272 1010 l 557 -24 l 450 -24 l 1167 1010 l 1272 1010 m 1282 300 q 1349 320 1322 300 q 1376 382 1376 340 q 1353 444 1376 422 q 1289 465 1329 465 q 1219 437 1243 465 q 1199 361 1196 408 l 1096 369 q 1144 495 1093 449 q 1289 542 1196 542 q 1426 503 1376 542 q 1476 396 1476 464 q 1447 313 1476 346 q 1367 271 1417 279 q 1457 233 1424 268 q 1490 140 1490 199 q 1436 31 1490 72 q 1293 -11 1382 -11 q 1147 33 1199 -11 q 1093 157 1094 78 l 1196 164 q 1222 92 1194 121 q 1293 63 1249 63 q 1361 85 1335 63 q 1388 149 1388 107 q 1365 212 1388 188 q 1286 236 1342 236 l 1246 236 l 1246 300 l 1282 300 z "},"⅛":{"ha":1722,"x_min":233,"x_max":1504,"o":"m 1272 1010 l 557 -24 l 450 -24 l 1167 1010 l 1272 1010 m 1288 -11 q 1175 6 1222 -11 q 1103 57 1128 24 q 1078 135 1078 90 q 1122 228 1078 194 q 1261 269 1165 261 l 1293 257 q 1204 216 1233 243 q 1175 149 1175 189 q 1206 84 1175 107 q 1292 61 1236 61 q 1375 83 1344 61 q 1406 144 1406 106 q 1378 208 1406 188 q 1297 239 1350 228 l 1231 253 q 1128 298 1165 267 q 1090 396 1090 329 q 1115 472 1090 439 q 1184 523 1139 504 q 1286 542 1229 542 q 1427 506 1374 542 q 1481 410 1481 471 q 1440 324 1481 354 q 1306 283 1399 293 l 1289 296 q 1367 331 1344 310 q 1390 392 1390 351 q 1362 452 1390 431 q 1285 474 1333 474 q 1213 453 1239 474 q 1186 394 1186 432 q 1212 340 1186 358 q 1283 313 1238 322 l 1353 299 q 1464 249 1424 283 q 1504 140 1504 214 q 1446 29 1504 69 q 1288 -11 1388 -11 z "},"⅜":{"ha":1722,"x_min":232,"x_max":1504,"o":"m 1272 1010 l 557 -24 l 450 -24 l 1167 1010 l 1272 1010 m 1288 -11 q 1175 6 1222 -11 q 1103 57 1128 24 q 1078 135 1078 90 q 1122 228 1078 194 q 1261 269 1165 261 l 1293 257 q 1204 216 1233 243 q 1175 149 1175 189 q 1206 84 1175 107 q 1292 61 1236 61 q 1375 83 1344 61 q 1406 144 1406 106 q 1378 208 1406 188 q 1297 239 1350 228 l 1231 253 q 1128 298 1165 267 q 1090 396 1090 329 q 1115 472 1090 439 q 1184 523 1139 504 q 1286 542 1229 542 q 1427 506 1374 542 q 1481 410 1481 471 q 1440 324 1481 354 q 1306 283 1399 293 l 1289 296 q 1367 331 1344 310 q 1390 392 1390 351 q 1362 452 1390 431 q 1285 474 1333 474 q 1213 453 1239 474 q 1186 394 1186 432 q 1212 340 1186 358 q 1283 313 1238 322 l 1353 299 q 1464 249 1424 283 q 1504 140 1504 214 q 1446 29 1504 69 q 1288 -11 1388 -11 z "},"⅝":{"ha":1722,"x_min":229,"x_max":1504,"o":"m 1272 1010 l 557 -24 l 450 -24 l 1167 1010 l 1272 1010 m 1288 -11 q 1175 6 1222 -11 q 1103 57 1128 24 q 1078 135 1078 90 q 1122 228 1078 194 q 1261 269 1165 261 l 1293 257 q 1204 216 1233 243 q 1175 149 1175 189 q 1206 84 1175 107 q 1292 61 1236 61 q 1375 83 1344 61 q 1406 144 1406 106 q 1378 208 1406 188 q 1297 239 1350 228 l 1231 253 q 1128 298 1165 267 q 1090 396 1090 329 q 1115 472 1090 439 q 1184 523 1139 504 q 1286 542 1229 542 q 1427 506 1374 542 q 1481 410 1481 471 q 1440 324 1481 354 q 1306 283 1399 293 l 1289 296 q 1367 331 1344 310 q 1390 392 1390 351 q 1362 452 1390 431 q 1285 474 1333 474 q 1213 453 1239 474 q 1186 394 1186 432 q 1212 340 1186 358 q 1283 313 1238 322 l 1353 299 q 1464 249 1424 283 q 1504 140 1504 214 q 1446 29 1504 69 q 1288 -11 1388 -11 z "},"⅞":{"ha":1722,"x_min":240,"x_max":1504,"o":"m 1272 1010 l 557 -24 l 450 -24 l 1167 1010 l 1272 1010 m 1288 -11 q 1175 6 1222 -11 q 1103 57 1128 24 q 1078 135 1078 90 q 1122 228 1078 194 q 1261 269 1165 261 l 1293 257 q 1204 216 1233 243 q 1175 149 1175 189 q 1206 84 1175 107 q 1292 61 1236 61 q 1375 83 1344 61 q 1406 144 1406 106 q 1378 208 1406 188 q 1297 239 1350 228 l 1231 253 q 1128 298 1165 267 q 1090 396 1090 329 q 1115 472 1090 439 q 1184 523 1139 504 q 1286 542 1229 542 q 1427 506 1374 542 q 1481 410 1481 471 q 1440 324 1481 354 q 1306 283 1399 293 l 1289 296 q 1367 331 1344 310 q 1390 392 1390 351 q 1362 452 1390 431 q 1285 474 1333 474 q 1213 453 1239 474 q 1186 394 1186 432 q 1212 340 1186 358 q 1283 313 1238 322 l 1353 299 q 1464 249 1424 283 q 1504 140 1504 214 q 1446 29 1504 69 q 1288 -11 1388 -11 z "},"%":{"ha":861,"x_min":33,"x_max":828,"o":"m 646 1014 l 746 1014 l 199 -19 l 100 -19 l 646 1014 m 644 0 q 509 61 560 0 q 458 229 458 122 q 509 393 458 332 q 643 454 560 454 q 776 392 725 454 q 828 225 828 329 q 804 106 828 157 q 739 27 781 54 q 644 0 697 0 m 644 82 q 708 119 685 82 q 732 225 732 157 q 708 333 732 294 q 643 372 685 372 q 576 334 600 372 q 551 229 551 296 q 576 120 551 158 q 644 82 600 82 m 219 532 q 84 593 135 532 q 33 761 33 654 q 84 925 33 864 q 218 986 135 986 q 351 924 300 986 q 403 757 403 861 q 379 638 403 689 q 314 559 356 586 q 219 532 272 532 m 219 614 q 283 651 260 614 q 307 757 307 689 q 283 865 307 826 q 218 904 260 904 q 151 866 175 904 q 126 761 126 828 q 151 652 126 690 q 219 614 175 614 z "},"‰":{"ha":861,"x_min":50,"x_max":810,"o":"m 218 592 q 96 645 142 592 q 50 789 50 699 q 96 933 50 879 q 218 986 142 986 q 340 933 294 986 q 386 789 386 879 q 365 684 386 729 q 306 615 344 639 q 218 592 268 592 m 218 668 q 276 699 256 668 q 297 789 297 731 l 297 789 q 276 878 297 847 q 218 910 256 910 q 160 878 181 910 q 139 789 139 847 l 139 789 q 160 699 139 731 q 218 668 181 668 m 60 399 l 744 828 l 744 735 l 60 306 l 60 399 m 394 0 q 272 53 318 0 q 226 197 226 107 q 247 302 226 257 q 306 371 268 347 q 394 394 344 394 q 517 341 471 394 q 563 197 563 288 q 542 92 563 138 q 483 24 521 47 q 394 0 444 0 m 394 76 q 453 108 432 76 q 474 197 474 139 l 474 197 q 453 287 474 256 q 394 318 432 318 q 336 287 357 318 q 315 197 315 256 l 315 197 q 336 108 315 139 q 394 76 357 76 m 642 0 q 519 53 565 0 q 474 197 474 107 q 494 302 474 257 q 553 371 515 347 q 642 394 592 394 q 764 341 718 394 q 810 197 810 288 q 789 92 810 138 q 730 24 768 47 q 642 0 692 0 m 642 76 q 700 108 679 76 q 721 197 721 139 l 721 197 q 700 287 721 256 q 642 318 679 318 q 583 287 604 318 q 563 197 563 256 l 563 197 q 583 108 563 139 q 642 76 604 76 z "},"μ":{"ha":861,"x_min":143,"x_max":731,"o":"m 143 694 l 261 694 l 261 265 q 299 134 261 181 q 413 88 338 88 q 503 117 463 88 q 568 199 544 146 q 592 321 592 251 l 592 694 l 707 694 l 707 233 q 713 97 707 153 q 731 0 718 40 l 611 0 q 597 108 600 40 q 515 18 571 53 q 403 -17 460 -17 q 319 2 353 -17 q 261 58 285 21 l 261 -271 l 143 -271 l 143 694 z "},"#":{"ha":861,"x_min":63,"x_max":785,"o":"m 738 379 l 738 283 l 63 283 l 63 379 l 738 379 m 699 960 l 519 0 l 407 0 l 586 960 l 699 960 m 438 960 l 258 0 l 146 0 l 325 960 l 438 960 m 785 682 l 785 586 l 118 586 l 118 682 l 785 682 z "},"№":{"ha":861,"x_min":21,"x_max":840,"o":"m 21 986 l 149 986 l 304 363 q 343 193 324 278 l 347 193 q 331 465 331 331 l 331 986 l 429 986 l 429 0 l 307 0 l 144 651 q 106 810 125 731 l 101 810 q 115 669 110 742 q 119 529 119 597 l 119 0 l 21 0 l 21 986 m 679 411 q 559 463 604 411 q 514 613 514 515 l 514 718 q 555 874 514 822 q 679 925 596 925 q 800 874 760 925 q 840 721 840 822 l 840 607 q 796 463 840 514 q 679 411 751 411 m 679 499 q 727 524 711 499 q 743 608 743 549 l 743 731 q 727 813 743 789 q 679 838 711 838 q 628 813 646 838 q 611 726 611 788 l 611 610 q 628 525 611 551 q 679 499 646 499 z "},"Δ":{"ha":861,"x_min":49,"x_max":813,"o":"m 367 986 l 497 986 l 813 0 l 49 0 l 367 986 m 196 111 l 667 111 l 431 869 l 196 111 z "},"Ω":{"ha":861,"x_min":71,"x_max":790,"o":"m 86 111 l 231 111 l 231 117 q 111 251 151 165 q 71 457 71 336 l 71 544 q 111 796 71 692 q 232 955 151 900 q 431 1010 313 1010 q 629 955 549 1010 q 750 796 710 900 q 790 544 790 692 l 790 457 q 750 251 790 336 q 631 117 710 165 l 631 111 l 775 111 l 775 0 l 496 0 l 496 110 q 616 239 576 153 q 656 456 656 325 l 656 544 q 601 814 656 729 q 431 899 547 899 q 260 814 314 899 q 206 544 206 729 l 206 456 q 245 239 206 325 q 365 110 285 153 l 365 0 l 86 0 l 86 111 z "},"π":{"ha":861,"x_min":46,"x_max":815,"o":"m 181 667 l 300 667 l 300 0 l 181 0 l 181 667 m 700 -7 q 598 35 625 -7 q 571 144 571 76 l 571 667 l 690 667 l 690 156 q 699 114 690 128 q 736 100 708 100 q 764 104 754 100 l 764 -1 q 734 -6 750 -4 q 700 -7 718 -7 m 46 676 q 99 690 68 686 q 186 694 131 694 l 815 694 l 815 590 l 174 590 q 46 575 97 590 l 46 676 z "},"+":{"ha":861,"x_min":104,"x_max":757,"o":"m 371 126 l 371 772 l 489 772 l 489 126 l 371 126 m 104 514 l 757 514 l 757 401 l 104 401 l 104 514 z "},"−":{"ha":861,"x_min":104,"x_max":757,"o":"m 104 511 l 757 511 l 757 400 l 104 400 l 104 511 z "},"±":{"ha":861,"x_min":104,"x_max":757,"o":"m 104 111 l 757 111 l 757 0 l 104 0 l 104 111 m 371 182 l 371 729 l 490 729 l 490 182 l 371 182 m 104 511 l 757 511 l 757 400 l 104 400 l 104 511 z "},"×":{"ha":861,"x_min":93,"x_max":768,"o":"m 688 792 l 768 713 l 172 117 l 93 196 l 688 792 m 768 197 l 689 117 l 93 713 l 172 792 l 768 197 z "},"÷":{"ha":861,"x_min":104,"x_max":757,"o":"m 104 506 l 757 506 l 757 400 l 104 400 l 104 506 m 431 119 q 378 140 399 119 q 358 192 358 160 q 378 244 358 224 q 431 264 399 264 q 483 244 463 264 q 503 192 503 225 q 483 140 503 160 q 431 119 463 119 m 431 642 q 378 662 399 642 q 358 714 358 682 q 378 766 358 746 q 431 786 399 786 q 483 767 463 786 q 503 714 503 747 q 483 662 503 682 q 431 642 463 642 z "},"=":{"ha":861,"x_min":104,"x_max":757,"o":"m 104 644 l 757 644 l 757 533 l 104 533 l 104 644 m 104 381 l 757 381 l 757 269 l 104 269 l 104 381 z "},"<":{"ha":861,"x_min":107,"x_max":753,"o":"m 107 403 l 107 503 l 753 788 l 753 678 l 238 454 l 753 231 l 753 118 l 107 403 z "},">":{"ha":861,"x_min":108,"x_max":754,"o":"m 108 228 l 624 451 l 108 675 l 108 788 l 754 503 l 754 403 l 108 118 l 108 228 z "},"°":{"ha":861,"x_min":215,"x_max":646,"o":"m 313 775 q 328 710 313 739 q 370 664 343 681 q 431 647 397 647 q 491 665 464 647 q 533 711 518 682 q 549 775 549 740 q 515 867 549 831 q 431 903 481 903 q 372 886 399 903 q 328 840 344 869 q 313 775 313 811 m 646 775 q 617 665 646 715 q 540 584 589 614 q 431 554 490 554 q 322 583 372 554 q 244 663 272 613 q 215 775 215 714 q 244 888 215 838 q 323 967 274 939 q 431 996 372 996 q 539 967 489 996 q 617 887 589 938 q 646 775 646 836 z "},"≈":{"ha":861,"x_min":104,"x_max":757,"o":"m 585 506 q 519 514 550 506 q 438 540 489 522 q 360 566 393 557 q 293 575 326 575 q 189 559 242 575 q 104 519 136 543 l 104 631 q 182 670 132 654 q 279 686 232 686 q 356 677 321 686 q 436 650 392 668 q 509 625 481 633 q 571 617 538 617 q 674 633 622 617 q 757 672 726 649 l 757 561 q 683 522 732 538 q 585 506 633 506 m 585 242 q 519 250 550 242 q 438 276 489 258 q 360 302 393 293 q 293 311 326 311 q 189 295 242 311 q 104 256 136 279 l 104 367 q 182 406 132 390 q 279 422 232 422 q 356 413 321 422 q 436 386 392 404 q 509 361 481 369 q 571 353 538 353 q 674 369 622 353 q 757 408 726 385 l 757 297 q 683 258 732 274 q 585 242 633 242 z "},"≥":{"ha":861,"x_min":94,"x_max":740,"o":"m 97 104 l 736 104 l 736 0 l 97 0 l 97 104 m 94 294 l 610 518 l 94 742 l 94 851 l 740 567 l 740 467 l 94 182 l 94 294 z "},"∞":{"ha":861,"x_min":86,"x_max":775,"o":"m 86 454 q 110 557 86 513 q 176 626 135 601 q 264 650 217 650 q 362 617 314 650 q 435 535 410 583 l 383 453 q 353 499 369 478 q 315 535 338 519 q 265 550 293 550 q 208 526 232 550 q 183 454 183 503 q 213 385 183 410 q 272 361 242 361 q 343 396 315 361 q 404 501 371 431 q 489 609 443 568 q 594 650 535 650 q 686 626 644 650 q 751 558 728 601 q 775 456 775 514 q 750 356 775 400 q 683 287 725 311 q 593 263 642 263 q 515 288 553 263 q 447 349 476 313 q 404 418 418 385 l 457 497 q 517 400 483 439 q 590 361 551 361 q 649 387 624 361 q 675 454 675 413 q 651 526 675 501 q 592 550 626 550 q 528 523 554 550 q 457 424 503 496 q 373 307 421 353 q 263 261 325 261 q 177 283 218 261 q 111 349 136 306 q 86 454 86 393 z "},"≤":{"ha":861,"x_min":107,"x_max":753,"o":"m 750 104 l 750 0 l 111 0 l 111 104 l 750 104 m 107 467 l 107 567 l 753 851 l 753 742 l 238 518 l 753 294 l 753 182 l 107 467 z "},"¬":{"ha":861,"x_min":107,"x_max":753,"o":"m 753 519 l 753 182 l 642 182 l 642 408 l 107 408 l 107 519 l 753 519 z "},"≠":{"ha":861,"x_min":104,"x_max":757,"o":"m 613 821 l 326 88 l 249 88 l 535 821 l 613 821 m 104 644 l 757 644 l 757 533 l 104 533 l 104 644 m 104 381 l 757 381 l 757 269 l 104 269 l 104 381 z "},"∫":{"ha":861,"x_min":119,"x_max":740,"o":"m 119 -58 q 161 -60 135 -60 q 290 -38 244 -60 q 354 31 335 -17 q 374 165 374 79 l 374 672 q 445 906 374 821 q 672 990 517 992 q 740 986 706 990 l 740 885 q 672 890 707 890 q 533 833 574 890 q 493 661 493 776 l 493 154 q 415 -83 493 -4 q 160 -161 336 -162 q 140 -161 150 -161 q 119 -160 129 -161 l 119 -58 z "},"∂":{"ha":861,"x_min":90,"x_max":769,"o":"m 417 -24 q 248 19 322 -24 q 132 139 174 63 q 90 311 90 215 q 129 478 90 404 q 237 593 168 551 q 393 635 306 635 q 545 601 479 635 q 656 493 611 568 l 653 364 q 555 492 613 451 q 419 533 497 533 q 265 472 321 533 q 210 311 210 411 q 237 191 210 244 q 312 108 264 138 q 422 78 360 78 q 533 110 482 78 q 617 212 585 142 q 650 390 650 282 l 650 501 q 622 712 650 624 q 535 849 593 800 q 390 897 478 897 q 331 892 360 897 q 272 875 301 886 l 242 974 q 314 994 275 988 q 390 1001 353 1001 q 676 860 582 1001 q 769 469 769 719 q 728 208 769 319 q 606 37 686 97 q 417 -24 526 -24 z "},"∏":{"ha":861,"x_min":99,"x_max":763,"o":"m 643 868 l 218 868 l 218 -122 l 99 -122 l 99 979 l 763 979 l 763 -122 l 643 -122 l 643 868 z "},"√":{"ha":861,"x_min":71,"x_max":790,"o":"m 258 419 l 369 35 l 678 1019 l 790 1019 l 425 -131 l 315 -131 l 171 324 l 71 324 l 71 419 l 258 419 z "},"∑":{"ha":861,"x_min":86,"x_max":774,"o":"m 86 -36 l 472 454 l 104 894 l 104 979 l 757 979 l 757 872 l 263 872 l 621 454 l 238 -15 l 774 -15 l 774 -122 l 86 -122 l 86 -36 z "},"◊":{"ha":861,"x_min":96,"x_max":765,"o":"m 376 -24 l 96 493 l 376 1010 l 482 1010 l 765 493 l 482 -24 l 376 -24 m 218 493 l 429 92 l 644 493 l 429 894 l 218 493 z "},"̈":{"ha":0,"x_min":208,"x_max":653,"o":"m 488 1000 l 653 1000 l 653 833 l 488 833 l 488 1000 m 208 1000 l 374 1000 l 374 833 l 208 833 l 208 1000 z "},"̇":{"ha":0,"x_min":347,"x_max":514,"o":"m 347 1000 l 514 1000 l 514 833 l 347 833 l 347 1000 z "},"̀":{"ha":0,"x_min":297,"x_max":564,"o":"m 297 1000 l 444 1000 l 564 801 l 460 801 l 297 1000 z "},"́":{"ha":0,"x_min":297,"x_max":564,"o":"m 417 1000 l 564 1000 l 401 801 l 297 801 l 417 1000 z "},"̋":{"ha":0,"x_min":194,"x_max":665,"o":"m 539 1000 l 665 1000 l 536 801 l 419 801 l 539 1000 m 314 1000 l 440 1000 l 311 801 l 194 801 l 314 1000 z "},"̂":{"ha":0,"x_min":222,"x_max":639,"o":"m 365 1000 l 496 1000 l 639 801 l 522 801 l 431 931 l 339 801 l 222 801 l 365 1000 z "},"̌":{"ha":0,"x_min":222,"x_max":639,"o":"m 496 801 l 365 801 l 222 1000 l 339 1000 l 431 871 l 522 1000 l 639 1000 l 496 801 z "},"̆":{"ha":0,"x_min":219,"x_max":642,"o":"m 431 794 q 285 846 344 794 q 219 1000 225 897 l 319 1000 q 353 913 322 947 q 431 879 385 879 q 508 913 476 879 q 542 1000 539 947 l 642 1000 q 576 846 636 897 q 431 794 517 794 z "},"̊":{"ha":0,"x_min":282,"x_max":579,"o":"m 431 765 q 323 806 364 765 q 282 907 282 846 q 323 1008 282 968 q 431 1049 364 1049 q 538 1008 497 1049 q 579 907 579 968 q 538 806 579 846 q 431 765 497 765 m 431 832 q 481 853 463 832 q 500 907 500 875 q 481 960 500 939 q 431 982 463 982 q 380 960 399 982 q 361 907 361 939 q 380 853 361 875 q 431 832 399 832 z "},"̃":{"ha":0,"x_min":175,"x_max":686,"o":"m 526 821 q 468 833 492 821 q 415 869 444 846 q 373 899 392 889 q 331 910 354 910 q 284 889 303 910 q 258 835 265 868 l 175 850 q 235 969 190 931 q 333 1007 281 1007 q 398 994 372 1007 q 458 956 424 982 q 500 927 483 936 q 536 918 517 918 q 577 938 558 918 q 604 996 596 957 l 686 982 q 623 859 665 897 q 526 821 581 821 z "},"̄":{"ha":0,"x_min":231,"x_max":631,"o":"m 231 928 l 631 928 l 631 833 l 231 833 l 231 928 z "},"̒":{"ha":0,"x_min":364,"x_max":497,"o":"m 492 1018 q 438 986 450 1004 q 426 931 426 968 l 497 931 l 497 806 l 364 806 l 364 917 q 385 1013 364 976 q 464 1071 407 1050 l 492 1018 z "},"̦":{"ha":0,"x_min":364,"x_max":497,"o":"m 369 -276 q 423 -244 411 -262 q 435 -189 435 -226 l 364 -189 l 364 -64 l 497 -64 l 497 -175 q 476 -272 497 -235 q 397 -329 454 -308 l 369 -276 z "},"̧":{"ha":0,"x_min":288,"x_max":574,"o":"m 460 10 l 411 -68 q 437 -56 419 -60 q 471 -51 454 -51 q 545 -78 517 -51 q 574 -150 574 -106 q 529 -241 574 -206 q 424 -276 485 -276 q 347 -260 383 -276 q 288 -201 310 -244 l 367 -175 q 391 -204 376 -194 q 425 -214 406 -214 q 467 -199 450 -214 q 485 -157 485 -183 q 468 -115 485 -129 q 429 -100 451 -100 q 401 -105 413 -100 q 381 -121 390 -110 l 326 -104 l 386 10 l 460 10 z "},"̨":{"ha":0,"x_min":286,"x_max":574,"o":"m 574 -176 q 520 -255 561 -228 q 426 -282 479 -282 q 326 -249 367 -282 q 286 -158 286 -217 q 317 -69 286 -112 q 414 6 347 -25 l 524 0 q 438 -34 471 -8 q 390 -90 404 -60 q 375 -146 375 -121 q 390 -194 375 -175 q 431 -212 404 -212 q 472 -194 456 -212 q 499 -149 489 -176 l 574 -176 z "}," ":{"ha":861,"x_min":0,"x_max":0,"o":""}," ":{"ha":861,"x_min":0,"x_max":0,"o":""}," ":{"ha":861,"x_min":0,"x_max":0,"o":""},"Ạ":{"ha":861,"x_min":40,"x_max":821,"o":"m 569 386 q 487 659 522 535 q 432 872 451 783 l 429 872 q 374 663 410 786 q 290 386 339 539 l 168 0 l 40 0 l 357 986 l 504 986 l 821 0 l 693 0 l 569 386 m 619 396 l 619 285 l 242 285 l 242 396 l 619 396 m 363 -74 l 497 -74 l 497 -208 l 363 -208 l 363 -74 z "},"Ẹ":{"ha":861,"x_min":146,"x_max":732,"o":"m 722 875 l 275 875 l 275 560 l 699 560 l 699 451 l 275 451 l 275 111 l 732 111 l 732 0 l 146 0 l 146 986 l 722 986 l 722 875 m 363 -74 l 497 -74 l 497 -208 l 363 -208 l 363 -74 z "},"Ẽ":{"ha":861,"x_min":146,"x_max":732,"o":"m 722 875 l 275 875 l 275 560 l 699 560 l 699 451 l 275 451 l 275 111 l 732 111 l 732 0 l 146 0 l 146 986 l 722 986 l 722 875 m 331 1235 q 392 1224 365 1235 q 450 1194 418 1214 q 497 1169 479 1176 q 539 1161 515 1161 q 584 1174 564 1161 q 611 1224 604 1188 l 693 1210 q 639 1106 682 1142 q 528 1069 596 1069 q 465 1080 490 1069 q 408 1110 440 1090 q 365 1135 383 1126 q 321 1143 346 1143 q 278 1128 297 1143 q 250 1076 258 1114 l 167 1092 q 226 1199 181 1164 q 331 1235 272 1235 z "},"Ə":{"ha":861,"x_min":71,"x_max":790,"o":"m 431 -24 q 232 33 313 -24 q 111 195 151 89 q 71 449 71 301 l 71 538 l 676 538 l 676 429 l 164 429 l 206 508 l 206 449 q 260 175 206 263 q 431 88 315 88 q 601 175 546 88 q 656 449 656 263 l 656 538 q 600 810 656 722 q 431 899 544 899 q 285 847 342 899 q 206 689 228 794 l 81 721 q 148 878 99 814 q 269 976 197 943 q 431 1010 342 1010 q 628 953 547 1010 q 749 791 708 897 q 790 538 790 685 l 790 449 q 750 195 790 301 q 629 33 710 89 q 431 -24 549 -24 z "},"Ǧ":{"ha":861,"x_min":75,"x_max":764,"o":"m 410 -24 q 226 36 301 -24 q 113 203 151 96 q 75 449 75 310 l 75 546 q 169 887 75 764 q 433 1010 263 1010 q 615 962 546 1010 q 713 848 683 914 q 753 711 743 782 l 626 693 q 570 836 617 774 q 429 899 524 899 q 265 814 321 899 q 210 524 210 729 l 210 469 q 263 188 210 286 q 429 89 315 89 q 559 134 511 89 q 626 240 607 179 q 646 353 646 300 l 646 411 l 399 411 l 399 515 l 764 515 l 764 0 l 675 0 l 656 144 q 564 21 624 65 q 410 -24 504 -24 m 343 1228 l 433 1132 l 521 1228 l 639 1228 l 504 1078 l 358 1078 l 222 1228 l 343 1228 z "},"Ị":{"ha":861,"x_min":119,"x_max":742,"o":"m 742 104 l 742 0 l 119 0 l 119 104 l 742 104 m 742 986 l 742 882 l 119 882 l 119 986 l 742 986 m 494 0 l 365 0 l 365 986 l 494 986 l 494 0 m 363 -74 l 497 -74 l 497 -208 l 363 -208 l 363 -74 z "},"Ɲ":{"ha":861,"x_min":-24,"x_max":749,"o":"m 61 -281 q -24 -272 14 -281 l -24 -171 q 35 -174 7 -174 q 96 -145 79 -174 q 113 -51 113 -117 l 113 986 l 282 986 l 572 315 q 602 240 590 272 q 619 186 614 207 l 622 186 q 620 238 621 211 q 619 292 619 265 l 619 986 l 749 986 l 749 0 l 597 0 l 288 710 q 263 771 274 742 q 246 818 253 800 l 243 826 l 239 826 q 241 785 240 806 q 242 742 242 764 l 242 -33 q 201 -216 242 -151 q 61 -281 161 -281 z "},"Ọ":{"ha":861,"x_min":71,"x_max":790,"o":"m 431 -24 q 232 33 313 -24 q 111 195 151 89 q 71 449 71 301 l 71 538 q 111 791 71 685 q 232 953 151 897 q 431 1010 313 1010 q 629 953 549 1010 q 750 791 710 897 q 790 538 790 685 l 790 449 q 750 195 790 301 q 629 33 710 89 q 431 -24 549 -24 m 431 88 q 601 175 546 88 q 656 449 656 263 l 656 538 q 601 811 656 724 q 431 899 546 899 q 260 811 315 899 q 206 538 206 724 l 206 449 q 260 175 206 263 q 431 88 315 88 m 404 -74 l 539 -74 l 539 -208 l 404 -208 l 404 -74 z "},"ẞ":{"ha":861,"x_min":111,"x_max":783,"o":"m 111 650 q 199 919 111 828 q 438 1010 286 1010 q 633 963 543 1010 q 772 833 722 917 l 524 515 l 415 558 l 658 876 l 675 774 q 568 875 626 844 q 442 906 510 906 q 290 843 339 906 q 240 649 240 781 l 240 0 l 111 0 l 111 650 m 476 -24 q 413 -20 449 -24 q 351 -11 378 -17 l 351 94 q 463 81 415 81 q 563 105 519 81 q 628 174 606 129 q 651 274 651 218 q 599 404 651 361 q 463 447 547 447 l 415 447 l 415 558 l 483 558 q 701 484 619 558 q 783 275 783 410 q 746 117 783 185 q 639 13 708 50 q 476 -24 569 -24 z "},"Ụ":{"ha":861,"x_min":94,"x_max":767,"o":"m 224 986 l 224 329 q 247 201 224 256 q 318 117 271 147 q 435 88 365 88 q 588 151 539 88 q 638 329 638 215 l 638 986 l 767 986 l 767 329 q 684 72 767 168 q 435 -24 601 -24 q 247 22 324 -24 q 133 146 171 67 q 94 329 94 225 l 94 986 l 224 986 m 376 -74 l 511 -74 l 511 -208 l 376 -208 l 376 -74 z "},"Ȳ":{"ha":861,"x_min":46,"x_max":815,"o":"m 496 0 l 367 0 l 367 393 l 46 986 l 189 986 l 431 500 l 672 986 l 815 986 l 496 393 l 496 0 m 208 1168 l 653 1168 l 653 1074 l 208 1074 l 208 1168 z "},"Ỹ":{"ha":861,"x_min":46,"x_max":815,"o":"m 496 0 l 367 0 l 367 393 l 46 986 l 189 986 l 431 500 l 672 986 l 815 986 l 496 393 l 496 0 m 331 1235 q 392 1224 365 1235 q 450 1194 418 1214 q 497 1169 479 1176 q 539 1161 515 1161 q 584 1174 564 1161 q 611 1224 604 1188 l 693 1210 q 639 1106 682 1142 q 528 1069 596 1069 q 465 1080 490 1069 q 408 1110 440 1090 q 365 1135 383 1126 q 321 1143 346 1143 q 278 1128 297 1143 q 250 1076 258 1114 l 167 1092 q 226 1199 181 1164 q 331 1235 272 1235 z "},"ạ":{"ha":861,"x_min":114,"x_max":717,"o":"m 347 -17 q 179 40 244 -17 q 114 188 114 97 q 138 283 114 242 q 211 351 163 324 q 447 408 278 388 l 574 424 l 574 424 q 574 436 574 431 q 538 572 574 529 q 425 614 503 614 q 309 578 351 614 q 263 476 267 542 l 136 476 q 179 603 142 550 q 281 683 217 656 q 433 711 346 711 q 633 639 574 711 q 693 422 693 567 q 693 422 693 422 q 693 422 693 422 l 693 235 q 699 95 693 151 q 717 0 704 39 l 593 0 q 588 47 590 17 q 582 126 585 74 q 490 18 547 53 q 347 -17 432 -17 m 369 81 q 478 108 432 81 q 550 185 525 135 q 575 303 575 235 l 575 338 l 410 315 q 279 274 319 303 q 239 194 239 246 q 274 111 239 142 q 369 81 308 81 m 363 -74 l 497 -74 l 497 -208 l 363 -208 l 363 -74 z "},"ẹ":{"ha":861,"x_min":111,"x_max":722,"o":"m 436 -17 q 194 85 276 -17 q 111 361 111 186 q 150 546 111 467 q 260 668 189 625 q 428 711 332 711 q 651 617 579 711 q 722 369 722 522 q 719 317 722 353 l 189 317 l 189 414 l 600 414 q 600 414 600 414 q 600 414 600 414 q 557 561 603 503 q 422 619 511 619 q 319 590 363 619 q 254 514 276 561 q 232 414 232 467 l 232 317 q 287 152 232 217 q 436 88 342 88 q 545 122 500 88 q 619 211 590 156 l 719 158 q 604 27 675 71 q 436 -17 533 -17 m 363 -74 l 497 -74 l 497 -208 l 363 -208 l 363 -74 z "},"ẽ":{"ha":861,"x_min":111,"x_max":722,"o":"m 436 -17 q 194 85 276 -17 q 111 361 111 186 q 150 546 111 467 q 260 668 189 625 q 428 711 332 711 q 651 617 579 711 q 722 369 722 522 q 719 317 722 353 l 189 317 l 189 414 l 600 414 q 600 414 600 414 q 600 414 600 414 q 557 561 603 503 q 422 619 511 619 q 319 590 363 619 q 254 514 276 561 q 232 414 232 467 l 232 317 q 287 152 232 217 q 436 88 342 88 q 545 122 500 88 q 619 211 590 156 l 719 158 q 604 27 675 71 q 436 -17 533 -17 m 525 821 q 467 833 490 821 q 414 869 443 846 q 372 899 390 889 q 329 910 353 910 q 283 889 301 910 q 257 835 264 868 l 174 850 q 234 969 189 931 q 332 1007 279 1007 q 397 994 371 1007 q 457 956 422 982 q 499 927 482 936 q 535 918 515 918 q 576 938 557 918 q 603 996 594 957 l 685 982 q 622 859 664 897 q 525 821 579 821 z "},"ə":{"ha":861,"x_min":139,"x_max":750,"o":"m 425 711 q 667 610 585 711 q 750 333 750 508 q 711 149 750 228 q 601 26 672 69 q 433 -17 529 -17 q 210 78 282 -17 q 139 325 139 172 q 142 378 139 342 l 672 378 l 672 281 l 261 281 q 261 281 261 281 q 261 281 261 281 q 304 133 258 192 q 439 75 350 75 q 542 104 499 75 q 607 181 585 133 q 629 281 629 228 l 629 378 q 574 542 629 478 q 425 607 519 607 q 316 573 361 607 q 242 483 271 539 l 142 536 q 257 667 186 624 q 425 711 328 711 z "},"ǧ":{"ha":861,"x_min":110,"x_max":778,"o":"m 425 -287 q 194 -240 278 -287 q 110 -111 110 -193 q 160 5 110 -40 q 296 60 211 50 l 343 42 q 258 -1 290 31 q 226 -78 226 -33 q 278 -162 226 -133 q 438 -190 331 -190 q 599 -160 547 -190 q 650 -72 650 -131 q 616 0 650 -25 q 515 25 582 25 l 358 25 q 199 62 254 25 q 143 168 143 99 q 160 238 143 207 q 210 288 178 268 q 288 315 243 308 l 354 282 q 278 258 308 279 q 247 199 247 236 q 276 147 247 165 q 363 129 304 129 l 542 129 q 709 79 650 129 q 768 -60 768 29 q 678 -228 768 -168 q 425 -287 588 -287 m 425 240 q 243 303 313 240 q 174 471 174 367 q 206 596 174 542 q 297 681 239 650 q 432 711 356 711 q 616 647 546 711 q 686 478 686 582 q 653 354 686 408 q 561 270 621 300 q 425 240 501 240 m 426 331 q 533 372 490 331 q 575 478 575 414 q 535 581 575 540 q 431 621 494 621 q 326 580 367 621 q 285 474 285 539 q 324 370 285 410 q 426 331 364 331 m 565 679 q 626 775 583 742 q 733 808 669 808 q 778 803 761 808 l 778 700 q 726 706 747 706 q 663 689 688 706 q 622 636 638 672 l 565 679 m 496 801 l 365 801 l 222 1000 l 339 1000 l 431 871 l 522 1000 l 639 1000 l 496 801 z "},"ị":{"ha":861,"x_min":174,"x_max":749,"o":"m 174 97 l 396 97 l 396 597 l 194 597 l 194 694 l 514 694 l 514 97 l 749 97 l 749 0 l 174 0 l 174 97 m 360 1000 l 526 1000 l 526 833 l 360 833 l 360 1000 m 393 -74 l 528 -74 l 528 -208 l 393 -208 l 393 -74 z "},"ɲ":{"ha":861,"x_min":1,"x_max":718,"o":"m 86 -281 q 42 -278 65 -281 q 1 -272 19 -276 l 1 -171 q 60 -174 32 -174 q 126 -146 108 -174 q 143 -51 143 -118 l 143 694 l 254 694 l 254 557 q 342 669 283 626 q 483 711 400 711 q 574 697 531 711 q 651 651 618 683 q 702 566 686 619 q 718 429 718 513 q 718 429 718 429 q 718 429 718 429 l 718 0 l 600 0 l 600 422 q 600 422 600 422 q 600 422 600 422 q 559 566 600 525 q 456 607 518 607 q 340 569 383 607 q 278 476 296 531 q 261 363 261 421 l 261 -33 q 245 -165 261 -111 q 191 -250 229 -219 q 86 -281 153 -281 z "},"ọ":{"ha":861,"x_min":107,"x_max":754,"o":"m 431 -17 q 261 28 335 -17 q 147 156 188 74 q 107 347 107 239 q 147 539 107 457 q 261 666 188 621 q 431 711 335 711 q 600 666 526 711 q 714 539 674 621 q 754 347 754 457 q 714 156 754 238 q 600 28 674 74 q 431 -17 526 -17 m 431 86 q 538 117 493 86 q 606 207 582 149 q 629 347 629 265 q 606 487 629 428 q 538 577 582 546 q 431 608 493 608 q 324 577 368 608 q 256 488 279 546 q 232 347 232 429 q 256 207 232 265 q 324 117 279 149 q 431 86 368 86 m 363 -74 l 497 -74 l 497 -208 l 363 -208 l 363 -74 z "},"ụ":{"ha":861,"x_min":140,"x_max":704,"o":"m 382 -17 q 285 -2 331 -17 q 204 44 239 13 q 156 129 171 76 q 140 265 140 182 l 140 694 l 261 694 l 261 269 q 301 125 261 165 q 406 85 342 85 q 514 123 474 85 q 570 217 554 161 q 586 332 586 272 l 586 694 l 704 694 l 704 0 l 593 0 l 593 132 q 513 29 571 75 q 382 -17 454 -17 m 363 -74 l 497 -74 l 497 -208 l 363 -208 l 363 -74 z "},"ȳ":{"ha":861,"x_min":113,"x_max":761,"o":"m 442 138 l 635 694 l 761 694 l 483 -44 q 413 -183 451 -132 q 327 -258 375 -235 q 219 -281 279 -281 q 156 -275 185 -281 l 156 -171 q 206 -174 192 -174 q 277 -160 247 -174 q 328 -119 307 -147 q 365 -43 349 -90 l 383 8 l 113 694 l 246 694 l 442 138 m 231 928 l 631 928 l 631 833 l 231 833 l 231 928 z "},"ỹ":{"ha":861,"x_min":113,"x_max":761,"o":"m 442 138 l 635 694 l 761 694 l 483 -44 q 413 -183 451 -132 q 327 -258 375 -235 q 219 -281 279 -281 q 156 -275 185 -281 l 156 -171 q 206 -174 192 -174 q 277 -160 247 -174 q 328 -119 307 -147 q 365 -43 349 -90 l 383 8 l 113 694 l 246 694 l 442 138 m 525 821 q 467 833 490 821 q 414 869 443 846 q 372 899 390 889 q 329 910 353 910 q 283 889 301 910 q 257 835 264 868 l 174 850 q 234 969 189 931 q 332 1007 279 1007 q 397 994 371 1007 q 457 956 422 982 q 499 927 482 936 q 535 918 515 918 q 576 938 557 918 q 603 996 594 957 l 685 982 q 622 859 664 897 q 525 821 579 821 z "},"⓿":{"ha":861,"x_min":36,"x_max":824,"o":"m 429 -24 q 224 28 313 -24 q 85 177 135 79 q 36 410 36 275 l 36 576 q 85 809 36 711 q 224 958 135 907 q 429 1010 313 1010 q 635 958 546 1010 q 774 809 725 907 q 824 576 824 711 l 824 410 q 774 177 824 275 q 635 28 725 79 q 429 -24 546 -24 m 431 236 q 510 258 478 236 q 559 336 542 279 q 576 493 576 393 q 559 650 576 593 q 510 728 542 707 q 431 750 478 750 q 351 728 383 750 q 302 650 319 707 q 285 493 285 593 q 302 336 285 393 q 351 258 319 279 q 431 236 383 236 m 431 297 q 399 311 411 297 q 378 367 386 325 q 371 493 371 410 q 378 619 371 576 q 399 675 386 661 q 431 689 411 689 q 463 675 450 689 q 483 619 475 661 q 490 493 490 576 q 483 367 490 410 q 463 311 475 325 q 431 297 450 297 z "},"❶":{"ha":861,"x_min":36,"x_max":824,"o":"m 429 -24 q 224 28 313 -24 q 85 177 135 79 q 36 410 36 275 l 36 576 q 85 809 36 711 q 224 958 135 907 q 429 1010 313 1010 q 635 958 546 1010 q 774 809 725 907 q 824 576 824 711 l 824 410 q 774 177 824 275 q 635 28 725 79 q 429 -24 546 -24 m 569 247 l 569 321 l 475 321 l 475 739 l 408 739 q 372 688 397 707 q 311 669 346 669 l 304 669 l 304 589 l 313 589 q 360 598 339 589 q 392 621 381 607 l 392 321 l 293 321 l 293 247 l 569 247 z "},"❷":{"ha":861,"x_min":36,"x_max":824,"o":"m 429 -24 q 224 28 313 -24 q 85 177 135 79 q 36 410 36 275 l 36 576 q 85 809 36 711 q 224 958 135 907 q 429 1010 313 1010 q 635 958 546 1010 q 774 809 725 907 q 824 576 824 711 l 824 410 q 774 177 824 275 q 635 28 725 79 q 429 -24 546 -24 m 574 242 l 574 304 l 382 304 q 492 431 457 388 q 549 521 528 475 q 569 618 569 567 q 535 713 569 682 q 432 744 500 744 q 326 710 363 744 q 290 618 290 676 q 290 601 290 610 q 292 583 290 592 l 376 576 q 375 599 375 588 q 375 622 375 611 q 389 667 375 651 q 429 682 403 682 q 469 667 456 682 q 482 621 482 651 q 460 523 482 571 q 399 426 438 475 q 288 299 360 378 l 288 242 l 574 242 z "},"❸":{"ha":861,"x_min":36,"x_max":824,"o":"m 429 -24 q 224 28 313 -24 q 85 177 135 79 q 36 410 36 275 l 36 576 q 85 809 36 711 q 224 958 135 907 q 429 1010 313 1010 q 635 958 546 1010 q 774 809 725 907 q 824 576 824 711 l 824 410 q 774 177 824 275 q 635 28 725 79 q 429 -24 546 -24 m 432 236 q 535 272 499 236 q 571 379 571 307 q 551 468 571 440 q 488 503 531 496 q 547 539 526 510 q 567 618 567 568 q 532 719 567 688 q 429 750 497 750 q 326 715 361 750 q 290 596 290 679 l 375 588 q 388 667 375 646 q 429 689 401 689 q 469 673 456 689 q 482 618 482 657 q 466 549 482 568 q 419 529 450 529 l 399 529 l 399 471 l 419 471 q 470 452 454 471 q 486 379 486 433 q 472 317 486 335 q 431 299 458 299 q 388 320 401 299 q 374 403 374 342 l 289 396 q 324 272 289 307 q 432 236 358 236 z "},"❹":{"ha":861,"x_min":36,"x_max":824,"o":"m 429 -24 q 224 28 313 -24 q 85 177 135 79 q 36 410 36 275 l 36 576 q 85 809 36 711 q 224 958 135 907 q 429 1010 313 1010 q 635 958 546 1010 q 774 809 725 907 q 824 576 824 711 l 824 410 q 774 177 824 275 q 635 28 725 79 q 429 -24 546 -24 m 529 247 l 529 360 l 588 360 l 588 422 l 529 422 l 529 739 l 432 739 l 274 419 l 274 360 l 450 360 l 450 247 l 529 247 m 450 656 l 450 422 l 339 422 l 450 656 z "},"❺":{"ha":861,"x_min":36,"x_max":824,"o":"m 429 -24 q 224 28 313 -24 q 85 177 135 79 q 36 410 36 275 l 36 576 q 85 809 36 711 q 224 958 135 907 q 429 1010 313 1010 q 635 958 546 1010 q 774 809 725 907 q 824 576 824 711 l 824 410 q 774 177 824 275 q 635 28 725 79 q 429 -24 546 -24 m 429 242 q 535 283 500 242 q 571 415 571 324 q 543 546 571 507 q 458 585 515 585 q 403 572 426 585 q 368 538 379 560 l 375 681 l 551 681 l 551 744 l 310 744 l 294 471 l 372 465 q 391 508 375 493 q 432 524 407 524 q 474 501 461 524 q 486 415 486 478 q 472 326 486 350 q 429 303 458 303 q 386 324 400 303 q 372 399 372 344 l 289 390 q 325 278 289 314 q 429 242 361 242 z "},"❻":{"ha":861,"x_min":36,"x_max":824,"o":"m 429 -24 q 224 28 313 -24 q 85 177 135 79 q 36 410 36 275 l 36 576 q 85 809 36 711 q 224 958 135 907 q 429 1010 313 1010 q 635 958 546 1010 q 774 809 725 907 q 824 576 824 711 l 824 410 q 774 177 824 275 q 635 28 725 79 q 429 -24 546 -24 m 432 296 q 399 309 411 296 q 378 360 386 322 q 371 474 371 399 q 394 507 379 496 q 432 518 408 518 q 474 495 460 518 q 488 408 488 472 q 474 319 488 343 q 432 296 460 296 m 433 236 q 538 277 503 236 q 572 408 572 318 q 544 542 572 504 q 458 579 515 579 q 406 569 428 579 q 372 540 385 558 q 381 637 374 604 q 401 681 389 669 q 432 692 413 692 q 472 674 458 692 q 485 613 485 656 l 568 621 q 534 719 568 689 q 433 750 500 750 q 352 727 383 750 q 304 647 321 704 q 288 486 288 589 q 303 335 288 389 q 349 258 318 281 q 433 236 381 236 z "},"❼":{"ha":861,"x_min":36,"x_max":824,"o":"m 429 -24 q 224 28 313 -24 q 85 177 135 79 q 36 410 36 275 l 36 576 q 85 809 36 711 q 224 958 135 907 q 429 1010 313 1010 q 635 958 546 1010 q 774 809 725 907 q 824 576 824 711 l 824 410 q 774 177 824 275 q 635 28 725 79 q 429 -24 546 -24 m 485 674 q 392 474 421 579 q 364 247 364 369 l 364 247 l 450 247 l 450 247 q 476 487 450 383 q 565 683 501 590 l 565 739 l 296 739 l 296 674 l 485 674 z "},"❽":{"ha":861,"x_min":36,"x_max":824,"o":"m 429 -24 q 224 28 313 -24 q 85 177 135 79 q 36 410 36 275 l 36 576 q 85 809 36 711 q 224 958 135 907 q 429 1010 313 1010 q 635 958 546 1010 q 774 809 725 907 q 824 576 824 711 l 824 410 q 774 177 824 275 q 635 28 725 79 q 429 -24 546 -24 m 431 294 q 387 313 401 294 q 372 381 372 332 q 383 447 372 426 q 419 476 394 467 l 431 472 q 463 457 453 464 q 480 433 474 450 q 486 381 486 415 q 472 313 486 332 q 431 294 458 294 m 429 238 q 506 253 474 238 q 555 299 538 268 q 572 381 572 331 q 554 469 572 440 q 499 513 536 497 q 547 553 532 528 q 563 625 563 578 q 528 719 563 688 q 429 750 493 750 q 358 736 389 750 q 311 694 328 722 q 294 625 294 667 q 312 541 294 569 q 363 497 329 513 q 306 457 325 485 q 288 381 288 429 q 324 273 288 308 q 429 238 361 238 m 429 536 q 388 561 401 544 q 375 625 375 578 q 389 681 375 665 q 429 697 403 697 q 469 682 456 697 q 482 625 482 667 q 472 563 482 583 q 440 532 463 542 l 429 536 z "},"❾":{"ha":861,"x_min":36,"x_max":824,"o":"m 429 -24 q 224 28 313 -24 q 85 177 135 79 q 36 410 36 275 l 36 576 q 85 809 36 711 q 224 958 135 907 q 429 1010 313 1010 q 635 958 546 1010 q 774 809 725 907 q 824 576 824 711 l 824 410 q 774 177 824 275 q 635 28 725 79 q 429 -24 546 -24 m 428 236 q 510 256 479 236 q 556 331 540 276 q 572 485 572 385 q 558 650 572 593 q 513 728 543 707 q 429 750 482 750 q 352 733 383 750 q 305 678 321 715 q 289 582 289 642 q 318 460 289 496 q 404 424 347 424 q 454 433 432 424 q 489 460 476 442 q 482 355 489 390 q 463 307 475 319 q 431 294 450 294 q 390 315 404 294 q 376 382 376 335 l 293 374 q 308 296 293 326 q 354 251 324 265 q 428 236 385 236 m 429 485 q 387 506 401 485 q 372 582 372 526 q 386 670 372 647 q 429 693 400 693 q 460 682 449 693 q 480 635 472 671 q 489 528 488 599 q 466 495 481 506 q 429 485 451 485 z "},"⓪":{"ha":861,"x_min":36,"x_max":824,"o":"m 431 236 q 351 258 383 236 q 302 336 319 279 q 285 493 285 393 q 302 650 285 593 q 351 728 319 707 q 431 750 383 750 q 510 728 478 750 q 559 650 542 707 q 576 493 576 593 q 559 336 576 393 q 510 258 542 279 q 431 236 478 236 m 431 297 q 463 311 450 297 q 483 367 475 325 q 490 493 490 410 q 483 619 490 576 q 463 675 475 661 q 431 689 450 689 q 399 675 411 689 q 378 619 386 661 q 371 493 371 576 q 378 367 371 410 q 399 311 386 325 q 431 297 411 297 m 429 -24 q 224 28 313 -24 q 85 177 135 79 q 36 410 36 275 l 36 576 q 85 809 36 711 q 224 958 135 907 q 429 1010 313 1010 q 635 958 546 1010 q 774 809 725 907 q 824 576 824 711 l 824 410 q 774 177 824 275 q 635 28 725 79 q 429 -24 546 -24 m 429 40 q 597 83 524 40 q 710 209 669 126 q 750 407 750 292 l 750 579 q 710 777 750 694 q 597 903 669 860 q 429 946 524 946 q 263 903 335 946 q 150 777 190 860 q 110 579 110 694 l 110 407 q 150 209 110 292 q 263 83 190 126 q 429 40 335 40 z "},"①":{"ha":861,"x_min":36,"x_max":824,"o":"m 429 -24 q 224 28 313 -24 q 85 177 135 79 q 36 410 36 275 l 36 576 q 85 809 36 711 q 224 958 135 907 q 429 1010 313 1010 q 635 958 546 1010 q 774 809 725 907 q 824 576 824 711 l 824 410 q 774 177 824 275 q 635 28 725 79 q 429 -24 546 -24 m 429 40 q 597 83 524 40 q 710 209 669 126 q 750 407 750 292 l 750 579 q 710 777 750 694 q 597 903 669 860 q 429 946 524 946 q 263 903 335 946 q 150 777 190 860 q 110 579 110 694 l 110 407 q 150 209 110 292 q 263 83 190 126 q 429 40 335 40 m 300 321 l 399 321 l 399 621 q 367 598 388 607 q 319 589 346 589 l 311 589 l 311 669 l 318 669 q 378 688 353 669 q 415 739 404 707 l 482 739 l 482 321 l 576 321 l 576 247 l 300 247 l 300 321 z "},"②":{"ha":861,"x_min":36,"x_max":824,"o":"m 288 299 q 399 426 360 378 q 460 523 438 475 q 482 621 482 571 q 469 667 482 651 q 429 682 456 682 q 389 667 403 682 q 375 622 375 651 q 375 599 375 611 q 376 576 375 588 l 292 583 q 290 601 290 592 q 290 618 290 610 q 326 710 290 676 q 432 744 363 744 q 535 713 500 744 q 569 618 569 682 q 549 521 569 567 q 492 431 528 475 q 382 304 457 388 l 574 304 l 574 242 l 288 242 l 288 299 m 429 -24 q 224 28 313 -24 q 85 177 135 79 q 36 410 36 275 l 36 576 q 85 809 36 711 q 224 958 135 907 q 429 1010 313 1010 q 635 958 546 1010 q 774 809 725 907 q 824 576 824 711 l 824 410 q 774 177 824 275 q 635 28 725 79 q 429 -24 546 -24 m 429 40 q 597 83 524 40 q 710 209 669 126 q 750 407 750 292 l 750 579 q 710 777 750 694 q 597 903 669 860 q 429 946 524 946 q 263 903 335 946 q 150 777 190 860 q 110 579 110 694 l 110 407 q 150 209 110 292 q 263 83 190 126 q 429 40 335 40 z "},"③":{"ha":861,"x_min":36,"x_max":824,"o":"m 432 236 q 324 272 358 236 q 289 396 289 307 l 374 403 q 388 320 374 342 q 431 299 401 299 q 472 317 458 299 q 486 379 486 335 q 470 452 486 433 q 419 471 454 471 l 399 471 l 399 529 l 419 529 q 466 549 450 529 q 482 618 482 568 q 469 673 482 657 q 429 689 456 689 q 388 667 401 689 q 375 588 375 646 l 290 596 q 326 715 290 679 q 429 750 361 750 q 532 719 497 750 q 567 618 567 688 q 547 539 567 568 q 488 503 526 510 q 551 468 531 496 q 571 379 571 440 q 535 272 571 307 q 432 236 499 236 m 429 -24 q 224 28 313 -24 q 85 177 135 79 q 36 410 36 275 l 36 576 q 85 809 36 711 q 224 958 135 907 q 429 1010 313 1010 q 635 958 546 1010 q 774 809 725 907 q 824 576 824 711 l 824 410 q 774 177 824 275 q 635 28 725 79 q 429 -24 546 -24 m 429 40 q 597 83 524 40 q 710 209 669 126 q 750 407 750 292 l 750 579 q 710 777 750 694 q 597 903 669 860 q 429 946 524 946 q 263 903 335 946 q 150 777 190 860 q 110 579 110 694 l 110 407 q 150 209 110 292 q 263 83 190 126 q 429 40 335 40 z "},"④":{"ha":861,"x_min":36,"x_max":824,"o":"m 429 -24 q 224 28 313 -24 q 85 177 135 79 q 36 410 36 275 l 36 576 q 85 809 36 711 q 224 958 135 907 q 429 1010 313 1010 q 635 958 546 1010 q 774 809 725 907 q 824 576 824 711 l 824 410 q 774 177 824 275 q 635 28 725 79 q 429 -24 546 -24 m 450 360 l 274 360 l 274 419 l 432 739 l 529 739 l 529 422 l 588 422 l 588 360 l 529 360 l 529 247 l 450 247 l 450 360 m 429 40 q 597 83 524 40 q 710 209 669 126 q 750 407 750 292 l 750 579 q 710 777 750 694 q 597 903 669 860 q 429 946 524 946 q 263 903 335 946 q 150 777 190 860 q 110 579 110 694 l 110 407 q 150 209 110 292 q 263 83 190 126 q 429 40 335 40 m 450 422 l 450 656 l 339 422 l 450 422 z "},"⑤":{"ha":861,"x_min":36,"x_max":824,"o":"m 429 242 q 325 278 361 242 q 289 390 289 314 l 372 399 q 386 324 372 344 q 429 303 400 303 q 472 326 458 303 q 486 415 486 350 q 474 501 486 478 q 432 524 461 524 q 391 508 407 524 q 372 465 375 493 l 294 471 l 310 744 l 551 744 l 551 681 l 375 681 l 368 538 q 403 572 379 560 q 458 585 426 585 q 543 546 515 585 q 571 415 571 507 q 535 283 571 324 q 429 242 500 242 m 429 -24 q 224 28 313 -24 q 85 177 135 79 q 36 410 36 275 l 36 576 q 85 809 36 711 q 224 958 135 907 q 429 1010 313 1010 q 635 958 546 1010 q 774 809 725 907 q 824 576 824 711 l 824 410 q 774 177 824 275 q 635 28 725 79 q 429 -24 546 -24 m 429 40 q 597 83 524 40 q 710 209 669 126 q 750 407 750 292 l 750 579 q 710 777 750 694 q 597 903 669 860 q 429 946 524 946 q 263 903 335 946 q 150 777 190 860 q 110 579 110 694 l 110 407 q 150 209 110 292 q 263 83 190 126 q 429 40 335 40 z "},"⑥":{"ha":861,"x_min":36,"x_max":824,"o":"m 433 236 q 349 258 381 236 q 303 335 318 281 q 288 486 288 389 q 304 647 288 589 q 352 727 321 704 q 433 750 383 750 q 534 719 500 750 q 568 621 568 689 l 485 613 q 472 674 485 656 q 432 692 458 692 q 397 677 410 692 q 378 618 385 663 q 371 488 371 574 q 378 365 371 407 q 397 310 385 324 q 432 296 410 296 q 474 319 460 296 q 488 408 488 343 q 474 495 488 472 q 432 518 460 518 q 389 503 406 518 q 367 458 372 489 l 361 521 q 396 563 371 547 q 458 579 421 579 q 544 542 515 579 q 572 408 572 504 q 538 277 572 318 q 433 236 503 236 m 429 -24 q 224 28 313 -24 q 85 177 135 79 q 36 410 36 275 l 36 576 q 85 809 36 711 q 224 958 135 907 q 429 1010 313 1010 q 635 958 546 1010 q 774 809 725 907 q 824 576 824 711 l 824 410 q 774 177 824 275 q 635 28 725 79 q 429 -24 546 -24 m 429 40 q 597 83 524 40 q 710 209 669 126 q 750 407 750 292 l 750 579 q 710 777 750 694 q 597 903 669 860 q 429 946 524 946 q 263 903 335 946 q 150 777 190 860 q 110 579 110 694 l 110 407 q 150 209 110 292 q 263 83 190 126 q 429 40 335 40 z "},"⑦":{"ha":861,"x_min":36,"x_max":824,"o":"m 296 739 l 565 739 l 565 683 q 476 492 503 590 q 450 276 450 393 l 450 247 l 364 247 l 364 258 q 393 476 364 374 q 485 674 422 579 l 296 674 l 296 739 m 429 -24 q 224 28 313 -24 q 85 177 135 79 q 36 410 36 275 l 36 576 q 85 809 36 711 q 224 958 135 907 q 429 1010 313 1010 q 635 958 546 1010 q 774 809 725 907 q 824 576 824 711 l 824 410 q 774 177 824 275 q 635 28 725 79 q 429 -24 546 -24 m 429 40 q 597 83 524 40 q 710 209 669 126 q 750 407 750 292 l 750 579 q 710 777 750 694 q 597 903 669 860 q 429 946 524 946 q 263 903 335 946 q 150 777 190 860 q 110 579 110 694 l 110 407 q 150 209 110 292 q 263 83 190 126 q 429 40 335 40 z "},"⑧":{"ha":861,"x_min":36,"x_max":824,"o":"m 429 238 q 324 273 361 238 q 288 381 288 308 q 314 467 288 439 q 393 506 340 494 l 438 482 q 388 453 403 472 q 372 381 372 433 q 387 313 372 332 q 431 294 401 294 q 472 313 458 294 q 486 381 486 332 q 480 433 486 415 q 463 457 474 450 q 431 472 453 464 l 379 490 q 316 533 338 504 q 294 625 294 563 q 311 694 294 667 q 358 736 328 722 q 429 750 389 750 q 528 719 493 750 q 563 625 563 688 q 540 542 563 568 q 467 501 518 517 l 422 526 q 468 555 454 535 q 482 625 482 575 q 469 682 482 667 q 429 697 456 697 q 389 681 403 697 q 375 625 375 665 q 388 561 375 578 q 429 536 401 544 l 481 519 q 550 476 528 504 q 572 381 572 447 q 555 299 572 331 q 506 253 538 268 q 429 238 474 238 m 429 -24 q 224 28 313 -24 q 85 177 135 79 q 36 410 36 275 l 36 576 q 85 809 36 711 q 224 958 135 907 q 429 1010 313 1010 q 635 958 546 1010 q 774 809 725 907 q 824 576 824 711 l 824 410 q 774 177 824 275 q 635 28 725 79 q 429 -24 546 -24 m 429 40 q 597 83 524 40 q 710 209 669 126 q 750 407 750 292 l 750 579 q 710 777 750 694 q 597 903 669 860 q 429 946 524 946 q 263 903 335 946 q 150 777 190 860 q 110 579 110 694 l 110 407 q 150 209 110 292 q 263 83 190 126 q 429 40 335 40 z "},"⑨":{"ha":861,"x_min":36,"x_max":824,"o":"m 428 236 q 354 251 385 236 q 308 296 324 265 q 293 374 293 326 l 376 382 q 390 315 376 335 q 431 294 404 294 q 464 308 451 294 q 483 361 476 321 q 489 481 489 401 q 482 618 489 572 q 463 678 475 664 q 429 693 450 693 q 386 670 400 693 q 372 582 372 647 q 387 506 372 526 q 429 485 401 485 q 472 500 456 485 q 493 547 488 515 l 499 481 q 465 439 490 454 q 404 424 440 424 q 318 460 347 424 q 289 582 289 496 q 305 678 289 642 q 352 733 321 715 q 429 750 383 750 q 513 728 482 750 q 558 650 543 707 q 572 485 572 593 q 556 331 572 385 q 510 256 540 276 q 428 236 479 236 m 429 -24 q 224 28 313 -24 q 85 177 135 79 q 36 410 36 275 l 36 576 q 85 809 36 711 q 224 958 135 907 q 429 1010 313 1010 q 635 958 546 1010 q 774 809 725 907 q 824 576 824 711 l 824 410 q 774 177 824 275 q 635 28 725 79 q 429 -24 546 -24 m 429 40 q 597 83 524 40 q 710 209 669 126 q 750 407 750 292 l 750 579 q 710 777 750 694 q 597 903 669 860 q 429 946 524 946 q 263 903 335 946 q 150 777 190 860 q 110 579 110 694 l 110 407 q 150 209 110 292 q 263 83 190 126 q 429 40 335 40 z "},"₀":{"ha":861,"x_min":161,"x_max":700,"o":"m 432 -210 q 229 -117 297 -210 q 161 158 161 -24 q 229 433 161 342 q 432 525 297 525 q 632 432 564 525 q 700 157 700 339 q 635 -120 700 -31 q 432 -210 569 -210 m 432 -122 q 520 -93 486 -122 q 571 -3 554 -64 q 588 157 588 58 q 571 317 588 256 q 520 408 554 379 q 432 438 486 438 q 312 370 350 438 q 274 158 274 303 q 312 -55 274 13 q 432 -122 350 -122 m 250 -28 l 581 401 l 613 354 l 281 -76 l 250 -28 z "},"₁":{"ha":861,"x_min":189,"x_max":672,"o":"m 382 364 q 308 323 361 340 q 213 306 254 306 l 192 306 l 192 404 l 207 404 q 283 418 243 404 q 355 456 324 432 q 399 510 386 481 l 492 510 l 492 -194 l 382 -194 l 382 364 m 189 -104 l 672 -104 l 672 -194 l 189 -194 l 189 -104 z "},"₂":{"ha":861,"x_min":183,"x_max":678,"o":"m 183 -107 q 328 10 263 -46 q 442 117 393 67 q 522 221 499 175 q 546 315 546 267 q 515 403 546 372 q 426 435 483 435 q 334 401 367 435 q 301 310 301 368 q 306 260 301 289 l 194 269 q 189 317 189 293 q 219 426 189 378 q 302 499 249 474 q 426 525 356 525 q 598 471 536 525 q 660 319 660 417 q 632 205 660 258 q 533 78 604 151 q 441 -8 494 38 q 329 -100 388 -54 l 678 -100 l 678 -194 l 183 -194 l 183 -107 z "},"₃":{"ha":861,"x_min":176,"x_max":683,"o":"m 422 208 q 511 240 475 208 q 547 324 547 272 q 515 407 547 378 q 431 436 483 436 q 328 397 363 436 q 297 286 294 357 l 186 301 q 250 465 185 406 q 433 525 315 525 q 599 474 538 525 q 661 335 661 424 q 624 232 661 275 q 526 175 588 189 q 641 120 599 168 q 683 0 683 72 q 652 -110 683 -62 q 565 -183 621 -157 q 433 -210 508 -210 q 297 -183 354 -210 q 209 -106 240 -156 q 176 11 178 -56 l 290 21 q 329 -81 290 -42 q 433 -121 368 -121 q 533 -89 497 -121 q 568 4 568 -57 q 533 93 568 60 q 426 126 497 126 l 378 126 l 378 208 l 422 208 z "},"₄":{"ha":861,"x_min":151,"x_max":710,"o":"m 596 -22 l 596 -194 l 490 -194 l 490 -22 l 151 -22 l 151 56 l 471 510 l 596 510 l 596 63 l 710 63 l 710 -22 l 596 -22 m 490 401 q 443 324 472 363 l 294 121 q 246 63 269 86 l 490 63 l 490 401 z "},"₅":{"ha":861,"x_min":179,"x_max":681,"o":"m 646 418 l 314 418 l 288 179 q 360 253 315 228 q 463 278 404 278 q 622 213 563 278 q 681 39 681 147 q 613 -143 681 -76 q 428 -210 546 -210 q 258 -160 324 -210 q 179 -25 192 -110 l 289 -11 q 337 -92 300 -62 q 431 -121 374 -121 q 535 -79 499 -121 q 571 38 571 -37 q 535 149 571 108 q 435 189 500 189 q 345 160 383 189 q 293 85 307 132 l 192 94 l 232 510 l 646 510 l 646 418 z "},"₆":{"ha":861,"x_min":172,"x_max":688,"o":"m 443 -210 q 242 -119 311 -210 q 172 146 172 -29 q 204 350 172 265 q 298 480 236 435 q 449 525 360 525 q 603 478 544 525 q 678 344 663 432 l 568 325 q 527 409 557 381 q 446 438 497 438 q 323 365 364 438 q 282 161 282 293 l 282 106 q 324 -60 282 1 q 443 -121 365 -121 q 542 -78 506 -121 q 578 36 578 -35 q 541 150 578 108 q 442 192 504 192 q 334 149 378 192 q 279 29 290 106 l 269 132 q 340 241 286 203 q 467 279 393 279 q 628 214 568 279 q 688 39 688 149 q 658 -90 688 -33 q 572 -178 628 -147 q 443 -210 517 -210 z "},"₇":{"ha":861,"x_min":188,"x_max":674,"o":"m 188 510 l 674 510 l 674 421 q 504 151 569 313 q 433 -194 439 -10 l 310 -194 l 310 -189 q 381 131 315 -28 q 563 415 446 290 l 188 415 l 188 510 z "},"₈":{"ha":861,"x_min":168,"x_max":693,"o":"m 431 -210 q 239 -156 310 -210 q 168 -12 168 -103 q 224 121 168 72 q 394 179 279 169 l 438 154 q 317 97 354 132 q 279 3 279 61 q 321 -89 279 -54 q 432 -124 363 -124 q 541 -91 501 -124 q 581 -3 581 -58 q 549 78 581 49 q 457 125 518 108 l 360 150 q 233 216 275 172 q 190 338 190 260 q 220 435 190 393 q 303 501 250 478 q 428 525 357 525 q 599 478 535 525 q 663 349 663 431 q 613 228 663 272 q 458 175 563 185 l 417 199 q 500 232 469 214 q 544 275 531 250 q 557 335 557 300 q 522 416 557 386 q 425 446 486 446 q 335 417 368 446 q 301 338 301 388 q 331 267 301 293 q 419 224 360 240 l 508 199 q 647 126 601 174 q 693 -6 693 79 q 622 -154 693 -99 q 431 -210 550 -210 z "},"₉":{"ha":861,"x_min":171,"x_max":689,"o":"m 419 -210 q 258 -162 319 -210 q 182 -24 197 -114 l 292 -4 q 335 -89 303 -58 q 424 -119 368 -119 q 541 -49 503 -119 q 579 147 579 21 l 579 226 q 542 378 579 318 q 419 438 504 438 q 318 398 356 438 q 281 293 281 358 q 321 188 281 228 q 424 149 361 149 q 526 188 482 149 q 581 289 571 226 l 592 196 q 535 106 575 139 q 439 65 496 72 q 406 63 417 63 q 284 90 338 63 q 201 169 231 118 q 171 290 171 221 q 201 412 171 358 q 287 495 231 465 q 418 525 343 525 q 619 436 550 525 q 689 169 689 347 q 660 -32 689 53 q 572 -163 632 -117 q 419 -210 511 -210 z "},"⁰":{"ha":861,"x_min":161,"x_max":700,"o":"m 432 415 q 229 508 297 415 q 161 783 161 601 q 229 1058 161 967 q 432 1150 297 1150 q 632 1057 564 1150 q 700 782 700 964 q 635 505 700 594 q 432 415 569 415 m 432 503 q 520 532 486 503 q 571 622 554 561 q 588 782 588 683 q 571 942 588 881 q 520 1033 554 1004 q 432 1063 486 1063 q 312 995 350 1063 q 274 783 274 928 q 312 570 274 638 q 432 503 350 503 m 250 597 l 581 1026 l 613 979 l 281 549 l 250 597 z "},"¹":{"ha":861,"x_min":189,"x_max":672,"o":"m 382 989 q 308 948 361 965 q 213 931 254 931 l 192 931 l 192 1029 l 207 1029 q 283 1043 243 1029 q 355 1081 324 1057 q 399 1135 386 1106 l 492 1135 l 492 431 l 382 431 l 382 989 m 189 521 l 672 521 l 672 431 l 189 431 l 189 521 z "},"²":{"ha":861,"x_min":183,"x_max":678,"o":"m 183 518 q 328 635 263 579 q 442 742 393 692 q 522 846 499 800 q 546 940 546 892 q 515 1028 546 997 q 426 1060 483 1060 q 334 1026 367 1060 q 301 935 301 993 q 306 885 301 914 l 194 894 q 189 942 189 918 q 219 1051 189 1003 q 302 1124 249 1099 q 426 1150 356 1150 q 598 1096 536 1150 q 660 944 660 1042 q 632 830 660 883 q 533 703 604 776 q 441 617 494 663 q 329 525 388 571 l 678 525 l 678 431 l 183 431 l 183 518 z "},"³":{"ha":861,"x_min":176,"x_max":683,"o":"m 422 833 q 511 865 475 833 q 547 949 547 897 q 515 1032 547 1003 q 431 1061 483 1061 q 328 1022 363 1061 q 297 911 294 982 l 186 926 q 250 1090 185 1031 q 433 1150 315 1150 q 599 1099 538 1150 q 661 960 661 1049 q 624 857 661 900 q 526 800 588 814 q 641 745 599 793 q 683 625 683 697 q 652 515 683 563 q 565 442 621 468 q 433 415 508 415 q 297 442 354 415 q 209 519 240 469 q 176 636 178 569 l 290 646 q 329 544 290 583 q 433 504 368 504 q 533 536 497 504 q 568 629 568 568 q 533 718 568 685 q 426 751 497 751 l 378 751 l 378 833 l 422 833 z "},"⁴":{"ha":861,"x_min":151,"x_max":710,"o":"m 596 603 l 596 431 l 490 431 l 490 603 l 151 603 l 151 681 l 471 1135 l 596 1135 l 596 688 l 710 688 l 710 603 l 596 603 m 490 1026 q 443 949 472 988 l 294 746 q 246 688 269 711 l 490 688 l 490 1026 z "},"⁵":{"ha":861,"x_min":179,"x_max":681,"o":"m 646 1043 l 314 1043 l 288 804 q 360 878 315 853 q 463 903 404 903 q 622 838 563 903 q 681 664 681 772 q 613 482 681 549 q 428 415 546 415 q 258 465 324 415 q 179 600 192 515 l 289 614 q 337 533 300 563 q 431 504 374 504 q 535 546 499 504 q 571 663 571 588 q 535 774 571 733 q 435 814 500 814 q 345 785 383 814 q 293 710 307 757 l 192 719 l 232 1135 l 646 1135 l 646 1043 z "},"⁶":{"ha":861,"x_min":172,"x_max":688,"o":"m 443 415 q 242 506 311 415 q 172 771 172 596 q 204 975 172 890 q 298 1105 236 1060 q 449 1150 360 1150 q 603 1103 544 1150 q 678 969 663 1057 l 568 950 q 527 1034 557 1006 q 446 1063 497 1063 q 323 990 364 1063 q 282 786 282 918 l 282 731 q 324 565 282 626 q 443 504 365 504 q 542 547 506 504 q 578 661 578 590 q 541 775 578 733 q 442 817 504 817 q 334 774 378 817 q 279 654 290 731 l 269 757 q 340 866 286 828 q 467 904 393 904 q 628 839 568 904 q 688 664 688 774 q 658 535 688 592 q 572 447 628 478 q 443 415 517 415 z "},"⁷":{"ha":861,"x_min":188,"x_max":674,"o":"m 188 1135 l 674 1135 l 674 1046 q 504 776 569 938 q 433 431 439 615 l 310 431 l 310 436 q 381 756 315 597 q 563 1040 446 915 l 188 1040 l 188 1135 z "},"⁸":{"ha":861,"x_min":168,"x_max":693,"o":"m 431 415 q 239 469 310 415 q 168 613 168 522 q 224 746 168 697 q 394 804 279 794 l 438 779 q 317 722 354 757 q 279 628 279 686 q 321 536 279 571 q 432 501 363 501 q 541 534 501 501 q 581 622 581 567 q 549 703 581 674 q 457 750 518 733 l 360 775 q 233 841 275 797 q 190 963 190 885 q 220 1060 190 1018 q 303 1126 250 1103 q 428 1150 357 1150 q 599 1103 535 1150 q 663 974 663 1056 q 613 853 663 897 q 458 800 563 810 l 417 824 q 500 857 469 839 q 544 900 531 875 q 557 960 557 925 q 522 1041 557 1011 q 425 1071 486 1071 q 335 1042 368 1071 q 301 963 301 1013 q 331 892 301 918 q 419 849 360 865 l 508 824 q 647 751 601 799 q 693 619 693 704 q 622 471 693 526 q 431 415 550 415 z "}}}
